<?xml version="1.0" standalone="no"?>
<!DOCTYPE svg PUBLIC "-//W3C//DTD SVG 20010904//EN"
 "http://www.w3.org/TR/2001/REC-SVG-20010904/DTD/svg10.dtd">
<svg version="1.0" xmlns="http://www.w3.org/2000/svg"
 width="896.000000pt" height="896.000000pt" viewBox="0 0 896.000000 896.000000"
 preserveAspectRatio="xMidYMid meet">
<metadata>
Created by potrace 1.11, written by Peter Selinger 2001-2013
</metadata>
<g transform="translate(0.000000,896.000000) scale(0.100000,-0.100000)"
fill="#000000" stroke="none">
<path d="M6884 8922 c-27 -21 -92 -85 -144 -142 -228 -247 -295 -304 -343
-293 -24 5 -143 41 -167 50 -8 3 -19 7 -25 9 -5 1 -53 14 -105 28 -109 30
-126 34 -160 41 -14 2 -51 11 -83 20 -31 8 -61 14 -65 14 -4 -1 -9 0 -12 1 -3
1 -14 3 -24 5 -11 2 -31 7 -45 11 -14 4 -29 7 -33 6 -4 -1 -37 5 -72 13 -36 8
-69 14 -73 13 -4 -1 -24 2 -43 5 -38 7 -101 17 -140 22 -14 2 -43 5 -65 8 -74
10 -170 20 -210 21 -23 1 -45 4 -50 7 -6 2 -45 4 -87 4 -43 0 -78 3 -78 6 0 7
-693 3 -775 -5 -33 -3 -91 -8 -130 -11 -38 -3 -81 -8 -95 -10 -14 -2 -50 -6
-80 -9 -30 -3 -68 -8 -85 -11 -16 -4 -47 -8 -70 -10 -22 -2 -51 -7 -65 -10
-14 -3 -43 -8 -65 -10 -22 -3 -53 -8 -70 -12 -16 -3 -39 -7 -50 -9 -11 -2 -31
-5 -45 -9 -14 -3 -38 -8 -55 -11 -29 -5 -104 -22 -135 -30 -74 -19 -108 -27
-127 -29 -12 -2 -27 -6 -32 -10 -6 -3 -19 -8 -28 -10 -26 -5 -120 -31 -178
-49 -27 -8 -52 -15 -55 -14 -3 1 -15 -4 -28 -11 -13 -7 -31 -14 -40 -16 -23
-5 -135 -45 -147 -53 -5 -4 -14 -7 -20 -8 -75 -15 -510 -221 -640 -304 -16
-11 -43 -27 -59 -36 -15 -8 -57 -36 -93 -60 -35 -24 -67 -44 -69 -44 -3 0 -11
-6 -18 -12 -7 -7 -25 -22 -41 -33 -137 -99 -392 -336 -465 -433 -14 -18 -35
-45 -48 -60 -32 -39 -38 -47 -43 -57 -2 -6 -25 -41 -50 -80 -25 -38 -59 -95
-75 -125 -16 -30 -31 -57 -34 -60 -3 -3 -6 -12 -8 -20 -2 -8 -12 -32 -22 -55
-17 -38 -48 -124 -55 -155 -3 -8 -11 -40 -19 -70 -15 -53 -27 -120 -30 -167
-1 -12 -4 -24 -7 -27 -5 -5 -2 -1302 4 -1509 2 -65 1 -120 -2 -122 -3 -2 -31
-6 -61 -10 -67 -9 -129 -29 -195 -64 -66 -34 -68 -36 -139 -107 -176 -177
-214 -450 -93 -677 34 -64 145 -183 193 -207 16 -8 37 -21 48 -30 10 -8 19
-14 20 -12 1 3 35 -8 76 -25 19 -8 34 -10 99 -17 30 -3 56 -8 59 -11 7 -6 9
-28 27 -235 6 -63 10 -99 20 -170 2 -19 7 -55 10 -79 19 -148 75 -417 124
-601 34 -131 94 -316 104 -326 4 -4 7 -13 7 -21 0 -7 9 -32 19 -56 10 -23 29
-69 42 -102 30 -78 185 -383 233 -460 55 -86 90 -139 97 -145 3 -3 24 -32 46
-65 23 -33 50 -70 62 -82 12 -12 21 -25 21 -28 0 -4 6 -12 12 -19 7 -7 38 -41
68 -75 67 -77 181 -191 250 -251 85 -74 108 -94 137 -119 15 -13 58 -51 94
-85 86 -81 126 -115 174 -150 22 -17 42 -32 45 -35 17 -19 130 -101 139 -101
6 0 11 -3 11 -7 0 -5 27 -24 60 -43 33 -19 60 -38 60 -42 0 -5 7 -8 15 -8 8 0
15 -4 15 -9 0 -5 8 -11 18 -14 9 -3 49 -24 87 -46 67 -38 215 -114 225 -116 3
0 32 -13 65 -29 103 -50 465 -181 465 -169 0 3 7 0 15 -7 8 -7 15 -10 15 -7 0
3 15 1 33 -4 17 -6 46 -13 62 -16 17 -3 38 -9 48 -14 9 -5 17 -8 17 -5 0 3 15
0 33 -5 17 -5 50 -12 71 -15 21 -2 42 -6 46 -9 3 -2 29 -7 56 -10 27 -4 60 -9
74 -11 34 -7 75 -12 135 -18 28 -3 79 -8 115 -12 138 -17 619 -9 765 11 22 4
56 8 75 10 39 5 87 12 140 22 19 3 44 8 55 10 51 8 73 13 110 22 22 5 51 12
65 15 135 25 457 135 640 218 96 44 243 119 269 138 16 10 31 17 35 13 3 -3 6
-1 6 5 0 7 5 12 11 12 5 0 56 30 112 67 56 38 107 70 112 72 6 2 35 24 65 47
30 24 64 51 75 59 56 43 92 73 117 97 16 14 28 24 28 21 0 -15 287 287 338
356 9 13 42 51 73 85 128 140 139 152 209 241 109 137 270 377 270 402 0 6 4
13 9 15 15 5 172 328 221 453 24 61 49 124 55 140 7 17 20 55 29 85 10 30 21
63 27 72 5 10 9 24 9 32 0 8 5 27 11 43 7 15 13 35 14 43 2 8 15 60 29 115 28
104 65 262 71 305 2 14 6 36 9 50 3 14 12 70 21 125 9 55 18 113 21 128 2 16
6 49 9 75 2 26 6 65 9 87 3 22 8 60 11 85 7 51 12 59 45 65 56 11 123 39 182
77 128 83 200 182 255 353 11 36 11 203 -1 260 -10 50 -83 205 -96 205 -6 0
-10 6 -10 12 0 16 -130 138 -147 138 -7 0 -13 5 -13 12 0 6 -3 8 -7 5 -3 -4
-15 0 -25 10 -10 9 -18 13 -18 9 0 -3 -11 1 -25 10 -14 9 -25 13 -25 9 0 -4
-6 -3 -12 2 -14 11 -68 27 -81 24 -5 -1 -6 3 -2 8 7 12 8 822 0 829 -3 3 0 11
6 18 7 8 7 14 0 18 -6 4 -7 16 -2 29 5 12 5 31 1 42 -4 11 -3 25 2 32 5 7 5
14 -1 17 -7 4 -7 15 -1 31 6 15 6 27 0 30 -7 4 -6 13 0 26 7 12 7 25 1 36 -5
9 -5 26 -1 38 5 12 4 28 0 35 -5 8 -5 19 1 26 7 8 7 14 0 18 -7 4 -7 15 -1 31
6 15 6 27 0 30 -6 4 -6 14 1 26 7 14 7 24 0 33 -6 7 -8 15 -5 19 8 8 9 151 1
165 -4 6 -3 13 2 17 5 3 8 15 5 28 -2 12 -6 40 -9 62 -3 22 -7 51 -10 65 -3
14 -8 39 -11 55 -2 17 -10 48 -15 70 -6 22 -12 47 -14 55 -16 80 -84 236 -161
370 -76 132 -77 133 -96 151 -10 9 -18 20 -18 25 0 5 -15 25 -33 45 -17 20
-48 56 -67 80 -57 70 -282 289 -297 289 -3 0 -11 6 -19 14 -7 8 -26 24 -40 35
-14 11 -27 28 -28 38 -5 28 49 220 102 363 3 8 6 20 8 25 1 6 12 43 24 83 29
105 31 131 9 143 -14 7 -23 5 -39 -11 -11 -11 -24 -20 -28 -20 -4 0 -35 -25
-67 -56 -277 -260 -329 -304 -358 -304 -7 0 -35 13 -63 30 -82 46 -84 56 -88
455 -3 264 -13 316 -67 330 -20 5 -36 -2 -75 -33z"/>
</g>
</svg>
