<?xml version="1.0" encoding="UTF-8" standalone="no"?>
<!-- Generator: Adobe Illustrator 18.0.0, SVG Export Plug-In . SVG Version: 6.00 Build 0)  -->

<svg
   xmlns:dc="http://purl.org/dc/elements/1.1/"
   xmlns:cc="http://creativecommons.org/ns#"
   xmlns:rdf="http://www.w3.org/1999/02/22-rdf-syntax-ns#"
   xmlns:svg="http://www.w3.org/2000/svg"
   xmlns="http://www.w3.org/2000/svg"
   xmlns:sodipodi="http://sodipodi.sourceforge.net/DTD/sodipodi-0.dtd"
   xmlns:inkscape="http://www.inkscape.org/namespaces/inkscape"
   version="1.1"
   id="Capa_1"
   x="0px"
   y="0px"
   viewBox="0 0 45 43"
   xml:space="preserve"
   inkscape:version="0.48.4 r9939"
   width="100%"
   height="100%"
   sodipodi:docname="chatB.svg"><metadata
     id="metadata6347"><rdf:RDF><cc:Work
         rdf:about=""><dc:format>image/svg+xml</dc:format><dc:type
           rdf:resource="http://purl.org/dc/dcmitype/StillImage" /><dc:title></dc:title></cc:Work></rdf:RDF></metadata><defs
     id="defs6345" /><sodipodi:namedview
     pagecolor="#ffffff"
     bordercolor="#666666"
     borderopacity="1"
     objecttolerance="10"
     gridtolerance="10"
     guidetolerance="10"
     inkscape:pageopacity="0"
     inkscape:pageshadow="2"
     inkscape:window-width="2560"
     inkscape:window-height="1605"
     id="namedview6343"
     showgrid="false"
     fit-margin-top="0"
     fit-margin-left="0"
     fit-margin-right="0"
     fit-margin-bottom="0"
     inkscape:zoom="11.508772"
     inkscape:cx="51.663503"
     inkscape:cy="27.675305"
     inkscape:window-x="0"
     inkscape:window-y="73"
     inkscape:window-maximized="1"
     inkscape:current-layer="g6301" /><g
     id="g6301"
     transform="translate(0,-12.5)"><path
       style="fill:#45b29a;fill-opacity:1"
       d="M 1.653,12.5 C 0.74,12.5 0,13.24 0,14.153 v 33.347 8 l 8,-8 H 43.347 C 44.26,47.5 45,46.76 45,45.847 V 14.153 C 45,13.24 44.26,12.5 43.347,12.5 H 1.653 z"
       id="path6303"
       inkscape:connector-curvature="0" /><g
       style="font-size:6.80058049999999970px;font-style:normal;font-variant:normal;font-weight:500;font-stretch:normal;line-height:125%;letter-spacing:0px;word-spacing:0px;fill:#ffffff;fill-opacity:1;stroke:none;font-family:Pixway;-inkscape-font-specification:Pixway Medium"
       id="text6408"><path
         d="m 3.376463,22.322256 c -0.2360006,-0.199998 -0.3540005,-0.449998 -0.354,-0.75 -5e-7,-0.315997 0.1239994,-0.571997 0.372,-0.768 0.2399989,-0.187997 0.5139987,-0.281997 0.822,-0.282 0.311998,3e-6 0.5719978,0.058 0.78,0.174 0.023998,-0.227997 0.1219974,-0.411996 0.294,-0.552 0.1679971,-0.139996 0.3659969,-0.209996 0.594,-0.21 l -0.036,0.678 c -0.3440029,3e-6 -0.5220028,0.114003 -0.534,0.342 0.1479971,0.184003 0.221997,0.372003 0.222,0.564 -3e-6,0.192002 -0.034003,0.354002 -0.102,0.486 -0.068003,0.128002 -0.1600027,0.236002 -0.276,0.324 -0.2400024,0.192001 -0.5320021,0.288001 -0.876,0.288 -0.1960015,1e-6 -0.3740013,-0.03 -0.534,-0.09 -0.160001,0.048 -0.2400009,0.144001 -0.24,0.288 -9e-7,0.180001 0.1519989,0.270001 0.456,0.27 l 0.978,0 c 0.663997,1e-6 0.9959966,0.232001 0.996,0.696 -3.4e-6,0.156 -0.040003,0.308 -0.12,0.456 -0.076003,0.151999 -0.1880031,0.285999 -0.336,0.402 -0.3280026,0.255999 -0.7400022,0.383999 -1.236,0.384 -0.4800012,-10e-7 -0.8700008,-0.098 -1.17,-0.294 -0.2800002,-0.188001 -0.4200001,-0.418 -0.42,-0.69 -10e-8,-0.18 0.054,-0.324 0.162,-0.432 0.1119996,-0.104 0.2579995,-0.17 0.438,-0.198 -0.2360005,-0.143999 -0.3540003,-0.321999 -0.354,-0.534 -3e-7,-0.139999 0.044,-0.255999 0.132,-0.348 0.087999,-0.096 0.2019993,-0.163999 0.342,-0.204 m 0.54,1.26 c -0.376001,0.016 -0.5640008,0.158 -0.564,0.426 -8e-7,0.136 0.077999,0.244 0.234,0.324 0.1599988,0.084 0.3479986,0.125999 0.564,0.126 0.2159982,-10e-7 0.383998,-0.018 0.504,-0.054 0.1239978,-0.036 0.2279977,-0.084 0.312,-0.144 0.1799974,-0.12 0.2699973,-0.264 0.27,-0.432 -2.7e-6,-0.072 -0.026003,-0.132 -0.078,-0.18 -0.048003,-0.044 -0.1200025,-0.066 -0.216,-0.066 l -1.026,0 m 0.918,-2.016 c -2.3e-6,-0.163998 -0.046002,-0.295997 -0.138,-0.396 -0.088002,-0.103997 -0.2240019,-0.155997 -0.408,-0.156 -0.1840015,3e-6 -0.3240014,0.052 -0.42,0.156 -0.096001,0.100003 -0.1440012,0.232002 -0.144,0.396 -1.2e-6,0.160002 0.047999,0.292002 0.144,0.396 0.095999,0.104002 0.2359985,0.156002 0.42,0.156 0.1839981,2e-6 0.319998,-0.052 0.408,-0.156 0.091998,-0.103998 0.1379977,-0.235998 0.138,-0.396"
         style="font-size:6px;font-weight:bold;font-family:Karla;-inkscape-font-specification:Karla;fill:#ffffff"
         id="path3444" /><path
         d="m 6.6766505,20.594256 0.708,0 0,2.922 -0.708,0 0,-2.922 m -0.084,-0.936 c -5e-7,-0.127996 0.037999,-0.227996 0.114,-0.3 0.075999,-0.076 0.1839992,-0.113995 0.324,-0.114 0.1359989,5e-6 0.2419988,0.038 0.318,0.114 0.079999,0.072 0.1199986,0.172004 0.12,0.3 -1.4e-6,0.128004 -0.040001,0.230004 -0.12,0.306 -0.076001,0.072 -0.1820011,0.108004 -0.318,0.108 -0.1400008,4e-6 -0.2480007,-0.036 -0.324,-0.108 -0.076001,-0.076 -0.1140005,-0.177996 -0.114,-0.306"
         style="font-size:6px;font-weight:bold;font-family:Karla;-inkscape-font-specification:Karla;fill:#ffffff"
         id="path3446" /><path
         d="m 10.2294,23.444256 c -0.2640014,0.104 -0.4720012,0.156 -0.6239995,0.156 -0.1520014,0 -0.2860013,-0.018 -0.402,-0.054 -0.1120011,-0.036 -0.212001,-0.09 -0.3,-0.162 -0.1840007,-0.163999 -0.2760006,-0.389999 -0.276,-0.678 l 0,-1.632 -0.408,0 0,-0.474 0.408,0 0,-0.768 0.708,0 0,0.768 0.7919995,0 0,0.474 -0.7919995,0 0,1.608 c -1.3e-6,0.240001 0.1139986,0.360001 0.342,0.36 0.1159982,1e-6 0.2659981,-0.032 0.4499995,-0.096 l 0.102,0.498"
         style="font-size:6px;font-weight:bold;font-family:Karla;-inkscape-font-specification:Karla;fill:#ffffff"
         id="path3448" /><path
         d="m 13.586025,20.522256 c 0.183999,3e-6 0.347998,0.032 0.492,0.096 0.147998,0.06 0.271998,0.140003 0.372,0.24 0.199998,0.192003 0.317998,0.434003 0.354,0.726 l -0.714,0.018 c -0.032,-0.127998 -0.092,-0.233998 -0.18,-0.318 -0.084,-0.084 -0.182001,-0.125997 -0.294,-0.126 -0.112001,3e-6 -0.208001,0.018 -0.288,0.054 -0.08,0.032 -0.150001,0.084 -0.21,0.156 -0.136001,0.168002 -0.204001,0.400002 -0.204,0.696 -1e-6,0.296001 0.064,0.520001 0.192,0.672 0.127999,0.148001 0.281999,0.222001 0.462,0.222 0.183999,1e-6 0.315999,-0.042 0.396,-0.126 0.084,-0.088 0.125998,-0.205999 0.126,-0.354 l 0.714,0 c -2e-6,0.320001 -0.106002,0.586001 -0.318,0.798 -0.216002,0.216 -0.518002,0.324 -0.906,0.324 -0.384001,0 -0.706,-0.14 -0.966,-0.42 -0.276,-0.299999 -0.414,-0.673999 -0.414,-1.122 0,-0.471998 0.138,-0.849997 0.414,-1.134 0.26,-0.267997 0.583999,-0.401997 0.972,-0.402"
         style="font-size:6px;font-weight:bold;font-family:Karla;-inkscape-font-specification:Karla;fill:#ffffff"
         id="path3450" /><path
         d="m 16.797807,20.522256 c 0.195998,3e-6 0.379998,0.032 0.552,0.096 0.171997,0.06 0.319997,0.154003 0.444,0.282 0.275997,0.280003 0.413997,0.668002 0.414,1.164 -3e-6,0.488001 -0.138003,0.872001 -0.414,1.152 -0.248003,0.256 -0.580002,0.384 -0.996,0.384 -0.416002,0 -0.752001,-0.128 -1.008,-0.384 -0.276001,-0.275999 -0.414001,-0.659999 -0.414,-1.152 -10e-7,-0.499998 0.137999,-0.887997 0.414,-1.164 0.251999,-0.251997 0.587998,-0.377997 1.008,-0.378 m 0.702,1.536 c -3e-6,-0.307998 -0.06,-0.537998 -0.18,-0.69 -0.120002,-0.155997 -0.288002,-0.233997 -0.504,-0.234 -0.212002,3e-6 -0.386002,0.078 -0.522,0.234 -0.136001,0.152002 -0.204001,0.382002 -0.204,0.69 -1e-6,0.308001 0.06,0.540001 0.18,0.696 0.123998,0.152001 0.291998,0.228001 0.504,0.228 0.211998,1e-6 0.385998,-0.076 0.522,-0.228 0.135997,-0.155999 0.203997,-0.387999 0.204,-0.696"
         style="font-size:6px;font-weight:bold;font-family:Karla;-inkscape-font-specification:Karla;fill:#ffffff"
         id="path3452" /><path
         d="m 21.642244,21.152256 c 0.187997,-0.419997 0.517997,-0.629997 0.99,-0.63 0.347996,3e-6 0.617995,0.118003 0.81,0.354 0.183995,0.224003 0.275995,0.536002 0.276,0.936 l 0,1.704 -0.714,0 0,-1.704 c -4e-6,-0.215998 -0.052,-0.377998 -0.156,-0.486 -0.104004,-0.111997 -0.250004,-0.167997 -0.438,-0.168 -0.188003,3e-6 -0.342003,0.082 -0.462,0.246 -0.120003,0.164002 -0.184003,0.412002 -0.192,0.744 l 0,1.368 -0.708,0 0,-1.704 c -2e-6,-0.215998 -0.052,-0.377998 -0.156,-0.486 -0.104002,-0.111997 -0.250002,-0.167997 -0.438,-0.168 -0.188002,3e-6 -0.350001,0.084 -0.486,0.252 -0.132001,0.168002 -0.202001,0.420002 -0.21,0.756 l 0,1.35 -0.708,0 0,-2.916 0.618,0 0.078,0.504 c 0.191999,-0.387997 0.499998,-0.581997 0.924,-0.582 0.243998,3e-6 0.445998,0.056 0.606,0.168 0.163997,0.112003 0.285997,0.266003 0.366,0.462"
         style="font-size:6px;font-weight:bold;font-family:Karla;-inkscape-font-specification:Karla;fill:#ffffff"
         id="path3454" /><path
         d="m 27.337557,21.152256 c 0.187996,-0.419997 0.517996,-0.629997 0.99,-0.63 0.347995,3e-6 0.617995,0.118003 0.81,0.354 0.183995,0.224003 0.275995,0.536002 0.276,0.936 l 0,1.704 -0.714,0 0,-1.704 c -5e-6,-0.215998 -0.052,-0.377998 -0.156,-0.486 -0.104005,-0.111997 -0.250004,-0.167997 -0.438,-0.168 -0.188004,3e-6 -0.342004,0.082 -0.462,0.246 -0.120004,0.164002 -0.184004,0.412002 -0.192,0.744 l 0,1.368 -0.708,0 0,-1.704 c -3e-6,-0.215998 -0.052,-0.377998 -0.156,-0.486 -0.104003,-0.111997 -0.250002,-0.167997 -0.438,-0.168 -0.188002,3e-6 -0.350002,0.084 -0.486,0.252 -0.132002,0.168002 -0.202002,0.420002 -0.21,0.756 l 0,1.35 -0.708,0 0,-2.916 0.618,0 0.078,0.504 c 0.191998,-0.387997 0.499998,-0.581997 0.924,-0.582 0.243997,3e-6 0.445997,0.056 0.606,0.168 0.163997,0.112003 0.285997,0.266003 0.366,0.462"
         style="font-size:6px;font-weight:bold;font-family:Karla;-inkscape-font-specification:Karla;fill:#ffffff"
         id="path3456" /><path
         d="m 30.500869,20.594256 0.708,0 0,2.922 -0.708,0 0,-2.922 m -0.084,-0.936 c 0,-0.127996 0.038,-0.227996 0.114,-0.3 0.076,-0.076 0.183999,-0.113995 0.324,-0.114 0.135999,5e-6 0.241999,0.038 0.318,0.114 0.08,0.072 0.119999,0.172004 0.12,0.3 -1e-6,0.128004 -0.04,0.230004 -0.12,0.306 -0.076,0.072 -0.182001,0.108004 -0.318,0.108 -0.140001,4e-6 -0.248,-0.036 -0.324,-0.108 -0.076,-0.076 -0.114,-0.177996 -0.114,-0.306"
         style="font-size:6px;font-weight:bold;font-family:Karla;-inkscape-font-specification:Karla;fill:#ffffff"
         id="path3458" /><path
         d="m 34.053619,23.444256 c -0.264002,0.104 -0.472001,0.156 -0.624,0.156 -0.152001,0 -0.286001,-0.018 -0.402,-0.054 -0.112001,-0.036 -0.212001,-0.09 -0.3,-0.162 -0.184,-0.163999 -0.276,-0.389999 -0.276,-0.678 l 0,-1.632 -0.408,0 0,-0.474 0.408,0 0,-0.768 0.708,0 0,0.768 0.792,0 0,0.474 -0.792,0 0,1.608 c -10e-7,0.240001 0.113999,0.360001 0.342,0.36 0.115998,1e-6 0.265998,-0.032 0.45,-0.096 l 0.102,0.498"
         style="font-size:6px;font-weight:bold;font-family:Karla;-inkscape-font-specification:Karla;fill:#ffffff"
         id="path3460" /><path
         d="m 2.842463,28.898256 1.686,0 0,0.618 -1.686,0 0,-0.618"
         style="font-size:6px;font-weight:bold;font-family:Karla;-inkscape-font-specification:Karla;fill:#ffffff"
         id="path3462" /><path
         d="m 7.9547442,28.652256 c 0.1879967,-0.419997 0.5179964,-0.629997 0.99,-0.63 0.3479956,3e-6 0.6179953,0.118003 0.81,0.354 0.1839949,0.224003 0.2759948,0.536002 0.2759998,0.936 l 0,1.704 -0.7139998,0 0,-1.704 c -4.5e-6,-0.215998 -0.052004,-0.377998 -0.156,-0.486 -0.1040042,-0.111997 -0.2500041,-0.167997 -0.438,-0.168 -0.1880037,3e-6 -0.3420035,0.082 -0.462,0.246 -0.1200033,0.164002 -0.1840032,0.412002 -0.192,0.744 l 0,1.368 -0.708,0 0,-1.704 c -2.5e-6,-0.215998 -0.052003,-0.377998 -0.156,-0.486 -0.1040023,-0.111997 -0.2500021,-0.167997 -0.438,-0.168 -0.1880017,3e-6 -0.3500016,0.084 -0.486,0.252 -0.1320013,0.168002 -0.2020012,0.420002 -0.21,0.756 l 0,1.35 -0.708,0 0,-2.916 0.618,0 0.078,0.504 c 0.1919986,-0.387997 0.4999983,-0.581997 0.924,-0.582 0.2439976,3e-6 0.4459974,0.056 0.606,0.168 0.1639971,0.112003 0.285997,0.266003 0.366,0.462"
         style="font-size:6px;font-weight:bold;font-family:Karla;-inkscape-font-specification:Karla;fill:#ffffff"
         id="path3464" /><path
         d="m 12.923494,26.900256 -0.096,1.428 -0.522,0 -0.09,-1.428 0.708,0 m 1.206,0 -0.096,1.428 -0.522,0 -0.09,-1.428 0.708,0"
         style="font-size:6px;font-weight:bold;font-family:Karla;-inkscape-font-specification:Karla;fill:#ffffff"
         id="path3466" /><path
         d="m 15.838369,29.312256 c 0.231998,2e-6 0.499998,0.038 0.804,0.114 l 0,-0.288 c -2e-6,-0.203998 -0.042,-0.353997 -0.126,-0.45 -0.08,-0.1 -0.214002,-0.149997 -0.402,-0.15 -0.184001,3e-6 -0.326001,0.038 -0.426,0.114 -0.100001,0.072 -0.150001,0.176003 -0.15,0.312 l -0.774,0 c 0,-0.331997 0.116,-0.571997 0.348,-0.72 0.235999,-0.147997 0.563999,-0.221997 0.984,-0.222 0.599998,3e-6 0.987997,0.210003 1.164,0.63 0.06,0.144003 0.09,0.314002 0.09,0.51 l 0,1.854 -0.618,0 -0.054,-0.39 c -0.188002,0.316 -0.476002,0.474 -0.864,0.474 -0.376001,0 -0.668001,-0.092 -0.876,-0.276 -0.192,-0.175999 -0.288,-0.397999 -0.288,-0.666 0,-0.271999 0.106,-0.479998 0.318,-0.624 0.211999,-0.147998 0.501999,-0.221998 0.87,-0.222 m 0.804,0.564 c -0.236002,-0.064 -0.456002,-0.096 -0.66,-0.096 -0.384001,2e-6 -0.576001,0.128001 -0.576,0.384 -10e-7,0.108001 0.044,0.202001 0.132,0.282 0.088,0.076 0.227999,0.114001 0.42,0.114 0.195998,1e-6 0.355998,-0.064 0.48,-0.192 0.127998,-0.131999 0.195998,-0.295999 0.204,-0.492"
         style="font-size:6px;font-weight:bold;font-family:Karla;-inkscape-font-specification:Karla;fill:#ffffff"
         id="path3468" /><path
         d="m 20.284275,30.566256 c -0.180002,0.356 -0.456002,0.534 -0.828,0.534 -0.372001,0 -0.684,-0.142 -0.936,-0.426 -0.26,-0.295999 -0.39,-0.671999 -0.39,-1.128 0,-0.455998 0.124,-0.825997 0.372,-1.11 0.244,-0.275997 0.547999,-0.413997 0.912,-0.414 0.363999,3e-6 0.637998,0.146003 0.822,0.438 l 0,-1.56 0.714,0 0,4.116 -0.582,0 -0.084,-0.45 m -0.738,-1.908 c -0.200001,3e-6 -0.368001,0.082 -0.504,0.246 -0.132001,0.160002 -0.198001,0.376002 -0.198,0.648 -1e-6,0.272002 0.068,0.492001 0.204,0.66 0.135999,0.164001 0.307999,0.246001 0.516,0.246 0.171999,1e-6 0.325998,-0.068 0.462,-0.204 0.139998,-0.139999 0.209998,-0.315999 0.21,-0.528 l 0,-0.378 c -0.008,-0.207998 -0.078,-0.377998 -0.21,-0.51 -0.120002,-0.119997 -0.280001,-0.179997 -0.48,-0.18"
         style="font-size:6px;font-weight:bold;font-family:Karla;-inkscape-font-specification:Karla;fill:#ffffff"
         id="path3470" /><path
         d="m 23.963963,30.566256 c -0.180002,0.356 -0.456002,0.534 -0.828,0.534 -0.372001,0 -0.684001,-0.142 -0.936,-0.426 -0.26,-0.295999 -0.39,-0.671999 -0.39,-1.128 0,-0.455998 0.124,-0.825997 0.372,-1.11 0.243999,-0.275997 0.547999,-0.413997 0.912,-0.414 0.363998,3e-6 0.637998,0.146003 0.822,0.438 l 0,-1.56 0.714,0 0,4.116 -0.582,0 -0.084,-0.45 m -0.738,-1.908 c -0.200002,3e-6 -0.368001,0.082 -0.504,0.246 -0.132001,0.160002 -0.198001,0.376002 -0.198,0.648 -10e-7,0.272002 0.068,0.492001 0.204,0.66 0.135999,0.164001 0.307998,0.246001 0.516,0.246 0.171998,1e-6 0.325998,-0.068 0.462,-0.204 0.139998,-0.139999 0.209998,-0.315999 0.21,-0.528 l 0,-0.378 c -0.008,-0.207998 -0.078,-0.377998 -0.21,-0.51 -0.120002,-0.119997 -0.280002,-0.179997 -0.48,-0.18"
         style="font-size:6px;font-weight:bold;font-family:Karla;-inkscape-font-specification:Karla;fill:#ffffff"
         id="path3472" /><path
         d="m 27.77565,28.448256 c 0.1,0.128003 0.173998,0.276003 0.222,0.444 0.052,0.168002 0.078,0.322002 0.078,0.462 -2e-6,0.140002 -0.008,0.266002 -0.024,0.378 l -1.884,0 c 0.008,0.236001 0.066,0.428001 0.174,0.576 0.107999,0.148001 0.271999,0.222001 0.492,0.222 0.291999,10e-7 0.465998,-0.127999 0.522,-0.384 l 0.714,0 c -0.048,0.292001 -0.182002,0.522001 -0.402,0.69 -0.228002,0.176 -0.506001,0.264 -0.834,0.264 -0.384001,0 -0.706,-0.14 -0.966,-0.42 -0.268,-0.291999 -0.402,-0.665999 -0.402,-1.122 0,-0.467998 0.134,-0.843997 0.402,-1.128 0.256,-0.271997 0.577999,-0.407997 0.966,-0.408 0.403998,3e-6 0.717998,0.142003 0.942,0.426 m -0.936,0.138 c -0.200001,3e-6 -0.356001,0.066 -0.468,0.198 -0.112001,0.128002 -0.178001,0.294002 -0.198,0.498 l 1.242,0 c -2e-6,-0.315998 -0.100002,-0.527997 -0.3,-0.636 -0.076,-0.04 -0.168001,-0.06 -0.276,-0.06"
         style="font-size:6px;font-weight:bold;font-family:Karla;-inkscape-font-specification:Karla;fill:#ffffff"
         id="path3474" /><path
         d="m 30.819432,30.566256 c -0.180003,0.356 -0.456002,0.534 -0.828,0.534 -0.372002,0 -0.684001,-0.142 -0.936,-0.426 -0.260001,-0.295999 -0.390001,-0.671999 -0.39,-1.128 -10e-7,-0.455998 0.123999,-0.825997 0.372,-1.11 0.243999,-0.275997 0.547999,-0.413997 0.912,-0.414 0.363998,3e-6 0.637998,0.146003 0.822,0.438 l 0,-1.56 0.714,0 0,4.116 -0.582,0 -0.084,-0.45 m -0.738,-1.908 c -0.200002,3e-6 -0.368002,0.082 -0.504,0.246 -0.132001,0.160002 -0.198001,0.376002 -0.198,0.648 -1e-6,0.272002 0.068,0.492001 0.204,0.66 0.135998,0.164001 0.307998,0.246001 0.516,0.246 0.171998,1e-6 0.325998,-0.068 0.462,-0.204 0.139997,-0.139999 0.209997,-0.315999 0.21,-0.528 l 0,-0.378 c -0.008,-0.207998 -0.078,-0.377998 -0.21,-0.51 -0.120002,-0.119997 -0.280002,-0.179997 -0.48,-0.18"
         style="font-size:6px;font-weight:bold;font-family:Karla;-inkscape-font-specification:Karla;fill:#ffffff"
         id="path3476" /><path
         d="m 3.376463,37.322256 c -0.2360006,-0.199998 -0.3540005,-0.449998 -0.354,-0.75 -5e-7,-0.315997 0.1239994,-0.571997 0.372,-0.768 0.2399989,-0.187997 0.5139987,-0.281997 0.822,-0.282 0.311998,3e-6 0.5719978,0.058 0.78,0.174 0.023998,-0.227997 0.1219974,-0.411996 0.294,-0.552 0.1679971,-0.139996 0.3659969,-0.209996 0.594,-0.21 l -0.036,0.678 c -0.3440029,3e-6 -0.5220028,0.114003 -0.534,0.342 0.1479971,0.184003 0.221997,0.372003 0.222,0.564 -3e-6,0.192002 -0.034003,0.354002 -0.102,0.486 -0.068003,0.128002 -0.1600027,0.236002 -0.276,0.324 -0.2400024,0.192001 -0.5320021,0.288001 -0.876,0.288 -0.1960015,10e-7 -0.3740013,-0.03 -0.534,-0.09 -0.160001,0.048 -0.2400009,0.144001 -0.24,0.288 -9e-7,0.180001 0.1519989,0.270001 0.456,0.27 l 0.978,0 c 0.663997,10e-7 0.9959966,0.232001 0.996,0.696 -3.4e-6,0.156 -0.040003,0.308 -0.12,0.456 -0.076003,0.151999 -0.1880031,0.285999 -0.336,0.402 -0.3280026,0.255999 -0.7400022,0.383999 -1.236,0.384 -0.4800012,-10e-7 -0.8700008,-0.098 -1.17,-0.294 -0.2800002,-0.188001 -0.4200001,-0.418 -0.42,-0.69 -10e-8,-0.18 0.054,-0.324 0.162,-0.432 0.1119996,-0.104 0.2579995,-0.17 0.438,-0.198 -0.2360005,-0.143999 -0.3540003,-0.321999 -0.354,-0.534 -3e-7,-0.139999 0.044,-0.255999 0.132,-0.348 0.087999,-0.096 0.2019993,-0.163999 0.342,-0.204 m 0.54,1.26 c -0.376001,0.016 -0.5640008,0.158 -0.564,0.426 -8e-7,0.136 0.077999,0.244 0.234,0.324 0.1599988,0.084 0.3479986,0.125999 0.564,0.126 0.2159982,-10e-7 0.383998,-0.018 0.504,-0.054 0.1239978,-0.036 0.2279977,-0.084 0.312,-0.144 0.1799974,-0.12 0.2699973,-0.264 0.27,-0.432 -2.7e-6,-0.072 -0.026003,-0.132 -0.078,-0.18 -0.048003,-0.044 -0.1200025,-0.066 -0.216,-0.066 l -1.026,0 m 0.918,-2.016 c -2.3e-6,-0.163998 -0.046002,-0.295997 -0.138,-0.396 -0.088002,-0.103997 -0.2240019,-0.155997 -0.408,-0.156 -0.1840015,3e-6 -0.3240014,0.052 -0.42,0.156 -0.096001,0.100003 -0.1440012,0.232002 -0.144,0.396 -1.2e-6,0.160002 0.047999,0.292002 0.144,0.396 0.095999,0.104002 0.2359985,0.156002 0.42,0.156 0.1839981,2e-6 0.319998,-0.052 0.408,-0.156 0.091998,-0.103998 0.1379977,-0.235998 0.138,-0.396"
         style="font-size:6px;font-weight:bold;font-family:Karla;-inkscape-font-specification:Karla;fill:#ffffff"
         id="path3478" /><path
         d="m 6.6166505,34.400256 0.708,0 0,4.116 -0.708,0 0,-4.116"
         style="font-size:6px;font-weight:bold;font-family:Karla;-inkscape-font-specification:Karla;fill:#ffffff"
         id="path3480" /><path
         d="m 9.4047755,36.812256 c 0.2319982,2e-6 0.499998,0.038 0.8039995,0.114 l 0,-0.288 c -2e-6,-0.203998 -0.042,-0.353997 -0.126,-0.45 -0.08,-0.1 -0.2140015,-0.149997 -0.4019995,-0.15 -0.1840016,3e-6 -0.3260015,0.038 -0.426,0.114 -0.1000013,0.072 -0.1500012,0.176003 -0.15,0.312 l -0.774,0 c -5e-7,-0.331997 0.1159994,-0.571997 0.348,-0.72 0.235999,-0.147997 0.5639986,-0.221997 0.984,-0.222 0.5999975,3e-6 0.9879975,0.210003 1.1639995,0.63 0.06,0.144003 0.09,0.314002 0.09,0.51 l 0,1.854 -0.618,0 -0.054,-0.39 c -0.188002,0.316 -0.4760014,0.474 -0.8639995,0.474 -0.3760011,0 -0.6680008,-0.092 -0.876,-0.276 -0.1920004,-0.175999 -0.2880003,-0.397999 -0.288,-0.666 -3e-7,-0.271999 0.1059996,-0.479998 0.318,-0.624 0.2119991,-0.147998 0.5019988,-0.221998 0.87,-0.222 m 0.8039995,0.564 c -0.2360016,-0.064 -0.4560014,-0.096 -0.6599995,-0.096 -0.3840013,2e-6 -0.5760011,0.128001 -0.576,0.384 -1.1e-6,0.108001 0.043999,0.202001 0.132,0.282 0.087999,0.076 0.2279985,0.114001 0.42,0.114 0.1959982,10e-7 0.355998,-0.064 0.4799995,-0.192 0.127998,-0.131999 0.195998,-0.295999 0.204,-0.492"
         style="font-size:6px;font-weight:bold;font-family:Karla;-inkscape-font-specification:Karla;fill:#ffffff"
         id="path3482" /><path
         d="m 12.344682,37.628256 c 0.008,0.276001 0.209999,0.414001 0.606,0.414 0.151998,10e-7 0.275998,-0.032 0.372,-0.096 0.1,-0.068 0.149998,-0.145999 0.15,-0.234 -2e-6,-0.088 -0.03,-0.155999 -0.09,-0.204 -0.06,-0.048 -0.154002,-0.092 -0.282,-0.132 l -0.636,-0.228 c -0.472001,-0.163998 -0.708001,-0.431998 -0.708,-0.804 -10e-7,-0.247997 0.109999,-0.445997 0.33,-0.594 0.223999,-0.151997 0.521999,-0.227997 0.894,-0.228 0.375998,3e-6 0.663997,0.082 0.864,0.246 0.203997,0.164003 0.309997,0.370003 0.318,0.618 l -0.666,0 c -0.008,-0.096 -0.054,-0.171997 -0.138,-0.228 -0.084,-0.056 -0.204002,-0.084 -0.36,-0.084 -0.156002,3e-6 -0.278002,0.032 -0.366,0.096 -0.084,0.06 -0.126001,0.130003 -0.126,0.21 -10e-7,0.140002 0.117999,0.244002 0.354,0.312 l 0.69,0.258 c 0.227997,0.076 0.401997,0.174002 0.522,0.294 0.123997,0.116001 0.185997,0.268001 0.186,0.456 -3e-6,0.240001 -0.114003,0.448001 -0.342,0.624 -0.236003,0.184 -0.548002,0.276 -0.936,0.276 -0.388001,0 -0.700001,-0.084 -0.936,-0.252 -0.236001,-0.171999 -0.356001,-0.411999 -0.36,-0.72 l 0.66,0"
         style="font-size:6px;font-weight:bold;font-family:Karla;-inkscape-font-specification:Karla;fill:#ffffff"
         id="path3484" /><path
         d="m 15.508744,37.628256 c 0.008,0.276001 0.209999,0.414001 0.606,0.414 0.151999,10e-7 0.275998,-0.032 0.372,-0.096 0.1,-0.068 0.149998,-0.145999 0.15,-0.234 -2e-6,-0.088 -0.03,-0.155999 -0.09,-0.204 -0.06,-0.048 -0.154002,-0.092 -0.282,-0.132 l -0.636,-0.228 c -0.472,-0.163998 -0.708,-0.431998 -0.708,-0.804 0,-0.247997 0.11,-0.445997 0.33,-0.594 0.223999,-0.151997 0.521999,-0.227997 0.894,-0.228 0.375998,3e-6 0.663998,0.082 0.864,0.246 0.203998,0.164003 0.309997,0.370003 0.318,0.618 l -0.666,0 c -0.008,-0.096 -0.054,-0.171997 -0.138,-0.228 -0.084,-0.056 -0.204002,-0.084 -0.36,-0.084 -0.156001,3e-6 -0.278001,0.032 -0.366,0.096 -0.084,0.06 -0.126001,0.130003 -0.126,0.21 -10e-7,0.140002 0.117999,0.244002 0.354,0.312 l 0.69,0.258 c 0.227998,0.076 0.401998,0.174002 0.522,0.294 0.123997,0.116001 0.185997,0.268001 0.186,0.456 -3e-6,0.240001 -0.114003,0.448001 -0.342,0.624 -0.236002,0.184 -0.548002,0.276 -0.936,0.276 -0.388001,0 -0.700001,-0.084 -0.936,-0.252 -0.236,-0.171999 -0.356,-0.411999 -0.36,-0.72 l 0.66,0"
         style="font-size:6px;font-weight:bold;font-family:Karla;-inkscape-font-specification:Karla;fill:#ffffff"
         id="path3486" /><path
         d="m 20.310807,35.948256 c 0.1,0.128003 0.173997,0.276003 0.222,0.444 0.052,0.168002 0.078,0.322002 0.078,0.462 -3e-6,0.140002 -0.008,0.266002 -0.024,0.378 l -1.884,0 c 0.008,0.236001 0.066,0.428001 0.174,0.576 0.107998,0.148001 0.271998,0.222001 0.492,0.222 0.291998,10e-7 0.465998,-0.127999 0.522,-0.384 l 0.714,0 c -0.048,0.292001 -0.182003,0.522001 -0.402,0.69 -0.228003,0.176 -0.506002,0.264 -0.834,0.264 -0.384002,0 -0.706001,-0.14 -0.966,-0.42 -0.268001,-0.291999 -0.402001,-0.665999 -0.402,-1.122 -10e-7,-0.467998 0.133999,-0.843997 0.402,-1.128 0.255999,-0.271997 0.577998,-0.407997 0.966,-0.408 0.403998,3e-6 0.717997,0.142003 0.942,0.426 m -0.936,0.138 c -0.200002,3e-6 -0.356002,0.066 -0.468,0.198 -0.112001,0.128002 -0.178001,0.294002 -0.198,0.498 l 1.242,0 c -2e-6,-0.315998 -0.100002,-0.527997 -0.3,-0.636 -0.076,-0.04 -0.168002,-0.06 -0.276,-0.06"
         style="font-size:6px;font-weight:bold;font-family:Karla;-inkscape-font-specification:Karla;fill:#ffffff"
         id="path3488" /><path
         d="m 21.848588,37.628256 c 0.008,0.276001 0.209999,0.414001 0.606,0.414 0.151998,10e-7 0.275998,-0.032 0.372,-0.096 0.1,-0.068 0.149998,-0.145999 0.15,-0.234 -2e-6,-0.088 -0.03,-0.155999 -0.09,-0.204 -0.06,-0.048 -0.154002,-0.092 -0.282,-0.132 l -0.636,-0.228 c -0.472001,-0.163998 -0.708,-0.431998 -0.708,-0.804 0,-0.247997 0.11,-0.445997 0.33,-0.594 0.223999,-0.151997 0.521999,-0.227997 0.894,-0.228 0.375998,3e-6 0.663998,0.082 0.864,0.246 0.203997,0.164003 0.309997,0.370003 0.318,0.618 l -0.666,0 c -0.008,-0.096 -0.054,-0.171997 -0.138,-0.228 -0.084,-0.056 -0.204002,-0.084 -0.36,-0.084 -0.156001,3e-6 -0.278001,0.032 -0.366,0.096 -0.084,0.06 -0.126001,0.130003 -0.126,0.21 -10e-7,0.140002 0.117999,0.244002 0.354,0.312 l 0.69,0.258 c 0.227998,0.076 0.401997,0.174002 0.522,0.294 0.123997,0.116001 0.185997,0.268001 0.186,0.456 -3e-6,0.240001 -0.114003,0.448001 -0.342,0.624 -0.236002,0.184 -0.548002,0.276 -0.936,0.276 -0.388001,0 -0.700001,-0.084 -0.936,-0.252 -0.236,-0.171999 -0.356,-0.411999 -0.36,-0.72 l 0.66,0"
         style="font-size:6px;font-weight:bold;font-family:Karla;-inkscape-font-specification:Karla;fill:#ffffff"
         id="path3490" /><path
         d="m 24.95865,34.400256 -0.096,1.428 -0.522,0 -0.09,-1.428 0.708,0 m 1.206,0 -0.096,1.428 -0.522,0 -0.09,-1.428 0.708,0"
         style="font-size:6px;font-weight:bold;font-family:Karla;-inkscape-font-specification:Karla;fill:#ffffff"
         id="path3492" /></g></g><g
     id="g6313"
     transform="translate(0,-12.5)" /><g
     id="g6315"
     transform="translate(0,-12.5)" /><g
     id="g6317"
     transform="translate(0,-12.5)" /><g
     id="g6319"
     transform="translate(0,-12.5)" /><g
     id="g6321"
     transform="translate(0,-12.5)" /><g
     id="g6323"
     transform="translate(0,-12.5)" /><g
     id="g6325"
     transform="translate(0,-12.5)" /><g
     id="g6327"
     transform="translate(0,-12.5)" /><g
     id="g6329"
     transform="translate(0,-12.5)" /><g
     id="g6331"
     transform="translate(0,-12.5)" /><g
     id="g6333"
     transform="translate(0,-12.5)" /><g
     id="g6335"
     transform="translate(0,-12.5)" /><g
     id="g6337"
     transform="translate(0,-12.5)" /><g
     id="g6339"
     transform="translate(0,-12.5)" /><g
     id="g6341"
     transform="translate(0,-12.5)" /></svg>