<?xml version="1.0" encoding="UTF-8" standalone="no"?>
<!-- Generator: Adobe Illustrator 18.0.0, SVG Export Plug-In . SVG Version: 6.00 Build 0)  -->

<svg
   xmlns:dc="http://purl.org/dc/elements/1.1/"
   xmlns:cc="http://creativecommons.org/ns#"
   xmlns:rdf="http://www.w3.org/1999/02/22-rdf-syntax-ns#"
   xmlns:svg="http://www.w3.org/2000/svg"
   xmlns="http://www.w3.org/2000/svg"
   xmlns:sodipodi="http://sodipodi.sourceforge.net/DTD/sodipodi-0.dtd"
   xmlns:inkscape="http://www.inkscape.org/namespaces/inkscape"
   version="1.1"
   id="Capa_1"
   x="0px"
   y="0px"
   viewBox="0 0 45 43"
   xml:space="preserve"
   inkscape:version="0.48.4 r9939"
   width="100%"
   height="100%"
   sodipodi:docname="chatB.svg"><metadata
     id="metadata6347"><rdf:RDF><cc:Work
         rdf:about=""><dc:format>image/svg+xml</dc:format><dc:type
           rdf:resource="http://purl.org/dc/dcmitype/StillImage" /><dc:title></dc:title></cc:Work></rdf:RDF></metadata><defs
     id="defs6345" /><sodipodi:namedview
     pagecolor="#ffffff"
     bordercolor="#666666"
     borderopacity="1"
     objecttolerance="10"
     gridtolerance="10"
     guidetolerance="10"
     inkscape:pageopacity="0"
     inkscape:pageshadow="2"
     inkscape:window-width="2560"
     inkscape:window-height="1605"
     id="namedview6343"
     showgrid="false"
     fit-margin-top="0"
     fit-margin-left="0"
     fit-margin-right="0"
     fit-margin-bottom="0"
     inkscape:zoom="11.508772"
     inkscape:cx="51.663503"
     inkscape:cy="27.675305"
     inkscape:window-x="0"
     inkscape:window-y="73"
     inkscape:window-maximized="1"
     inkscape:current-layer="g6301" /><g
     id="g6301"
     transform="translate(0,-12.5)"><path
       style="fill:#45b29a;fill-opacity:1"
       d="M 1.653,12.5 C 0.74,12.5 0,13.24 0,14.153 v 33.347 8 l 8,-8 H 43.347 C 44.26,47.5 45,46.76 45,45.847 V 14.153 C 45,13.24 44.26,12.5 43.347,12.5 H 1.653 z"
       id="path6303"
       inkscape:connector-curvature="0" /><g
       style="font-size:6.80058049999999970px;font-style:normal;font-variant:normal;font-weight:500;font-stretch:normal;line-height:125%;letter-spacing:0px;word-spacing:0px;fill:#ffffff;fill-opacity:1;stroke:none;font-family:Pixway;-inkscape-font-specification:Pixway Medium"
       id="text6408"><path
         d="m 4.234463,20.522256 c 0.1839981,3e-6 0.347998,0.032 0.492,0.096 0.1479977,0.06 0.2719976,0.140003 0.372,0.24 0.1999973,0.192003 0.3179971,0.434003 0.354,0.726 l -0.714,0.018 c -0.032002,-0.127998 -0.092002,-0.233998 -0.18,-0.318 -0.084002,-0.084 -0.1820018,-0.125997 -0.294,-0.126 -0.1120016,3e-6 -0.2080015,0.018 -0.288,0.054 -0.080001,0.032 -0.1500013,0.084 -0.21,0.156 -0.1360011,0.168002 -0.204001,0.400002 -0.204,0.696 -1e-6,0.296001 0.063999,0.520001 0.192,0.672 0.1279987,0.148001 0.2819985,0.222001 0.462,0.222 0.1839982,1e-6 0.315998,-0.042 0.396,-0.126 0.083998,-0.088 0.1259978,-0.205999 0.126,-0.354 l 0.714,0 c -2.9e-6,0.320001 -0.1060028,0.586001 -0.318,0.798 -0.2160024,0.216 -0.5180021,0.324 -0.906,0.324 -0.3840013,0 -0.706001,-0.14 -0.966,-0.42 -0.2760004,-0.299999 -0.4140003,-0.673999 -0.414,-1.122 -3e-7,-0.471998 0.1379996,-0.849997 0.414,-1.134 0.259999,-0.267997 0.5839987,-0.401997 0.972,-0.402"
         style="font-size:6px;font-weight:bold;font-family:Karla;-inkscape-font-specification:Karla;fill:#ffffff"
         id="path3510" /><path
         d="m 7.7942442,19.544256 c 0.2599977,4e-6 0.4979975,0.044 0.714,0.132 0.2159971,0.084 0.4019969,0.210004 0.558,0.378 0.3279964,0.352003 0.4919962,0.856003 0.492,1.512 -3.8e-6,0.660002 -0.1640036,1.170001 -0.492,1.53 -0.312003,0.336 -0.7380025,0.504 -1.278,0.504 -0.5360015,0 -0.960001,-0.172 -1.272,-0.516 -0.3280004,-0.355999 -0.4920002,-0.861998 -0.492,-1.518 -2e-7,-0.663997 0.1639996,-1.171997 0.492,-1.524 0.307999,-0.331996 0.7339985,-0.497996 1.278,-0.498 m 1.032,2.034 c -3e-6,-0.447997 -0.094003,-0.791997 -0.282,-1.032 -0.1840026,-0.243996 -0.4340023,-0.365996 -0.75,-0.366 -0.3160017,4e-6 -0.5680014,0.122004 -0.756,0.366 -0.1880011,0.240003 -0.282001,0.584003 -0.282,1.032 -1e-6,0.444002 0.093999,0.786001 0.282,1.026 0.1879986,0.236001 0.4399983,0.354001 0.756,0.354 0.3159977,1e-6 0.5659974,-0.117999 0.75,-0.354 0.1879971,-0.239999 0.281997,-0.581998 0.282,-1.026"
         style="font-size:6px;font-weight:bold;font-family:Karla;-inkscape-font-specification:Karla;fill:#ffffff"
         id="path3512" /><path
         d="m 12.447807,20.696256 c -0.064,-0.339997 -0.304003,-0.509996 -0.72,-0.51 -0.204002,4e-6 -0.364002,0.042 -0.48,0.126 -0.112002,0.08 -0.168001,0.178003 -0.168,0.294 -1e-6,0.116003 0.036,0.208003 0.108,0.276 0.076,0.064 0.191998,0.124003 0.348,0.18 l 0.846,0.33 c 0.287997,0.112002 0.509997,0.254002 0.666,0.426 0.155996,0.168002 0.233996,0.380002 0.234,0.636 -4e-6,0.352001 -0.132004,0.632001 -0.396,0.84 -0.264003,0.204 -0.640003,0.306 -1.128,0.306 -0.432002,0 -0.782001,-0.106 -1.05,-0.318 -0.300001,-0.231999 -0.458001,-0.559999 -0.474,-0.984 l 0.702,0 c -1e-6,0.320001 0.165998,0.522001 0.498,0.606 0.1,0.028 0.231998,0.042 0.396,0.042 0.163998,10e-7 0.315997,-0.04 0.456,-0.12 0.139997,-0.084 0.209997,-0.193999 0.21,-0.33 -3e-6,-0.139999 -0.038,-0.245998 -0.114,-0.318 -0.076,-0.076 -0.200003,-0.145998 -0.372,-0.21 l -0.774,-0.306 c -0.300001,-0.115998 -0.530001,-0.251998 -0.69,-0.408 -0.160001,-0.155997 -0.240001,-0.371997 -0.24,-0.648 -10e-7,-0.323996 0.125999,-0.579996 0.378,-0.768 0.255999,-0.195996 0.601998,-0.293996 1.038,-0.294 0.439997,4e-6 0.777997,0.102004 1.014,0.306 0.239997,0.200004 0.377996,0.482004 0.414,0.846 l -0.702,0"
         style="font-size:6px;font-weight:bold;font-family:Karla;-inkscape-font-specification:Karla;fill:#ffffff"
         id="path3514" /><path
         d="m 14.473838,23.468256 c -0.144001,0 -0.262001,-0.044 -0.354,-0.132 -0.092,-0.088 -0.138,-0.199999 -0.138,-0.336 0,-0.135999 0.046,-0.249999 0.138,-0.342 0.092,-0.092 0.209999,-0.137999 0.354,-0.138 0.143999,1e-6 0.263999,0.046 0.36,0.138 0.096,0.092 0.143999,0.206001 0.144,0.342 -1e-6,0.136001 -0.048,0.248001 -0.144,0.336 -0.096,0.088 -0.216001,0.132 -0.36,0.132 m 0,-1.782 c -0.144001,2e-6 -0.262001,-0.044 -0.354,-0.132 -0.092,-0.088 -0.138,-0.199998 -0.138,-0.336 0,-0.135997 0.046,-0.249997 0.138,-0.342 0.092,-0.092 0.209999,-0.137997 0.354,-0.138 0.143999,3e-6 0.263999,0.046 0.36,0.138 0.096,0.092 0.143999,0.206003 0.144,0.342 -1e-6,0.136002 -0.048,0.248002 -0.144,0.336 -0.096,0.088 -0.216001,0.132002 -0.36,0.132"
         style="font-size:6px;font-weight:bold;font-family:Karla;-inkscape-font-specification:Karla;fill:#ffffff"
         id="path3516" /><path
         d="m 16.397025,21.926256 c -0.152,2e-6 -0.28,0.122002 -0.384,0.366 l -0.378,-0.204 c 0.068,-0.259998 0.162,-0.463998 0.282,-0.612 0.124,-0.151997 0.286,-0.227997 0.486,-0.228 0.135999,3e-6 0.313999,0.042 0.534,0.126 0.343999,0.132002 0.563998,0.198002 0.66,0.198 0.163998,2e-6 0.293998,-0.111998 0.39,-0.336 l 0.384,0.246 c -0.160002,0.508002 -0.436002,0.762002 -0.828,0.762 -0.132002,2e-6 -0.336001,-0.056 -0.612,-0.168 -0.148001,-0.052 -0.260001,-0.09 -0.336,-0.114 -0.072,-0.024 -0.138001,-0.036 -0.198,-0.036"
         style="font-size:6px;font-weight:bold;font-family:Karla;-inkscape-font-specification:Karla;fill:#ffffff"
         id="path3518" /><path
         d="m 21.5649,21.458256 c 0.299997,0.104002 0.523997,0.236002 0.672,0.396 0.147997,0.156002 0.221997,0.364002 0.222,0.624 -3e-6,0.284001 -0.116003,0.530001 -0.348,0.738 -0.256003,0.22 -0.614002,0.346 -1.074,0.378 l 0,0.528 -0.504,0 0,-0.54 c -0.416001,-0.04 -0.754001,-0.164 -1.014,-0.372 -0.276,-0.223999 -0.414,-0.527999 -0.414,-0.912 l 0.702,0 c -10e-7,0.192001 0.062,0.338001 0.186,0.438 0.123999,0.100001 0.303999,0.164001 0.54,0.192 l 0,-1.164 -0.3,-0.102 c -0.336001,-0.111998 -0.596,-0.245998 -0.78,-0.402 -0.184,-0.159997 -0.276,-0.381997 -0.276,-0.666 0,-0.283996 0.114,-0.519996 0.342,-0.708 0.231999,-0.191996 0.569999,-0.303996 1.014,-0.336 l 0,-0.456 0.504,0 0,0.462 c 0.387998,0.04 0.683997,0.160004 0.888,0.36 0.203997,0.200004 0.333997,0.460003 0.39,0.78 l -0.702,0 c -0.02,-0.119997 -0.08,-0.225997 -0.18,-0.318 -0.096,-0.096 -0.228002,-0.161996 -0.396,-0.198 l 0,1.092 0.528,0.186 m -0.528,1.482 c 0.215998,-0.02 0.373998,-0.074 0.474,-0.162 0.1,-0.088 0.149998,-0.191999 0.15,-0.312 -2e-6,-0.227998 -0.144002,-0.395998 -0.432,-0.504 l -0.192,-0.072 0,1.05 m -0.504,-2.778 c -0.192001,0.024 -0.338001,0.078 -0.438,0.162 -0.096,0.084 -0.144001,0.182003 -0.144,0.294 -1e-6,0.112003 0.032,0.202003 0.096,0.27 0.064,0.064 0.165999,0.120003 0.306,0.168 l 0.18,0.072 0,-0.966"
         style="font-size:6px;font-weight:bold;font-family:Karla;-inkscape-font-specification:Karla;fill:#ffffff"
         id="path3520" /><path
         d="m 25.581057,20.996256 c 0.183998,-0.315997 0.463998,-0.473997 0.84,-0.474 0.359997,3e-6 0.667997,0.136003 0.924,0.408 0.271997,0.288003 0.407996,0.664002 0.408,1.128 -4e-6,0.468001 -0.138003,0.846001 -0.414,1.134 -0.256003,0.272 -0.562003,0.408 -0.918,0.408 -0.356002,0 -0.616002,-0.106 -0.78,-0.318 l 0,1.656 -0.708,0 0,-4.338 0.582,0 0.066,0.396 m 0.714,1.962 c 0.084,1e-6 0.169998,-0.018 0.258,-0.054 0.092,-0.036 0.173997,-0.092 0.246,-0.168 0.159997,-0.167999 0.239997,-0.391998 0.24,-0.672 -3e-6,-0.283998 -0.07,-0.505998 -0.21,-0.666 -0.136003,-0.159997 -0.304002,-0.239997 -0.504,-0.24 -0.196002,3e-6 -0.358002,0.058 -0.486,0.174 -0.124002,0.112002 -0.190002,0.274002 -0.198,0.486 l 0,0.522 c -2e-6,0.188001 0.066,0.340001 0.198,0.456 0.123998,0.108001 0.275998,0.162001 0.456,0.162"
         style="font-size:6px;font-weight:bold;font-family:Karla;-inkscape-font-specification:Karla;fill:#ffffff"
         id="path3522" /><path
         d="m 28.847307,20.600256 0.588,2.082 0.558,-1.92 0.642,0 0.558,1.926 0.594,-2.088 0.708,0 -0.96,2.916 -0.696,0 -0.54,-1.746 -0.528,1.746 -0.702,0 -0.966,-2.916 0.744,0"
         style="font-size:6px;font-weight:bold;font-family:Karla;-inkscape-font-specification:Karla;fill:#ffffff"
         id="path3524" /><path
         d="m 35.038182,23.066256 c -0.180003,0.356 -0.456002,0.534 -0.828,0.534 -0.372002,0 -0.684001,-0.142 -0.936,-0.426 -0.260001,-0.295999 -0.390001,-0.671999 -0.39,-1.128 -1e-6,-0.455998 0.123999,-0.825997 0.372,-1.11 0.243999,-0.275997 0.547999,-0.413997 0.912,-0.414 0.363998,3e-6 0.637998,0.146003 0.822,0.438 l 0,-1.56 0.714,0 0,4.116 -0.582,0 -0.084,-0.45 m -0.738,-1.908 c -0.200002,3e-6 -0.368002,0.082 -0.504,0.246 -0.132001,0.160002 -0.198001,0.376002 -0.198,0.648 -1e-6,0.272002 0.068,0.492001 0.204,0.66 0.135998,0.164001 0.307998,0.246001 0.516,0.246 0.171998,1e-6 0.325998,-0.068 0.462,-0.204 0.139997,-0.139999 0.209997,-0.315999 0.21,-0.528 l 0,-0.378 c -0.008,-0.207998 -0.078,-0.377998 -0.21,-0.51 -0.120002,-0.119997 -0.280002,-0.179997 -0.48,-0.18"
         style="font-size:6px;font-weight:bold;font-family:Karla;-inkscape-font-specification:Karla;fill:#ffffff"
         id="path3526" /><path
         d="m 4.480463,27.122256 c 0.4399976,4e-6 0.7819973,0.108004 1.026,0.324 0.2479968,0.212004 0.3719967,0.518003 0.372,0.918 -3.3e-6,0.396003 -0.1240032,0.702002 -0.372,0.918 -0.2440027,0.212002 -0.5860024,0.318002 -1.026,0.318 l -0.66,0 0,1.416 -0.714,0 0,-3.894 1.374,0 m 0,1.86 c 0.2199979,2e-6 0.3859977,-0.058 0.498,-0.174 0.1119975,-0.115997 0.1679974,-0.263997 0.168,-0.444 -2.6e-6,-0.183997 -0.056002,-0.333997 -0.168,-0.45 -0.1120023,-0.119996 -0.2780021,-0.179996 -0.498,-0.18 l -0.66,0 0,1.248 0.66,0"
         style="font-size:6px;font-weight:bold;font-family:Karla;-inkscape-font-specification:Karla;fill:#ffffff"
         id="path3528" /><path
         d="m 7.3129317,28.574256 c 0.1999986,-0.367997 0.4919983,-0.551997 0.876,-0.552 0.3839975,3e-6 0.6659972,0.118003 0.846,0.354 0.1839969,0.236003 0.2759968,0.548002 0.276,0.936 l 0,1.704 -0.708,0 0,-1.704 c -2.5e-6,-0.215998 -0.052002,-0.377998 -0.156,-0.486 -0.1040023,-0.111997 -0.2500021,-0.167997 -0.438,-0.168 -0.1880017,3e-6 -0.3500016,0.084 -0.486,0.252 -0.1320013,0.168002 -0.2020012,0.420002 -0.21,0.756 l 0,1.35 -0.708,0 0,-4.116 0.708,0 0,1.674"
         style="font-size:6px;font-weight:bold;font-family:Karla;-inkscape-font-specification:Karla;fill:#ffffff"
         id="path3530" /><path
         d="m 11.489213,28.022256 c 0.195998,3e-6 0.379998,0.032 0.552,0.096 0.171998,0.06 0.319997,0.154003 0.444,0.282 0.275997,0.280003 0.413997,0.668002 0.414,1.164 -3e-6,0.488001 -0.138003,0.872001 -0.414,1.152 -0.248002,0.256 -0.580002,0.384 -0.996,0.384 -0.416001,0 -0.752001,-0.128 -1.008,-0.384 -0.276,-0.275999 -0.414,-0.659999 -0.414,-1.152 0,-0.499998 0.138,-0.887997 0.414,-1.164 0.251999,-0.251997 0.587999,-0.377997 1.008,-0.378 m 0.702,1.536 c -2e-6,-0.307998 -0.06,-0.537998 -0.18,-0.69 -0.120002,-0.155997 -0.288002,-0.233997 -0.504,-0.234 -0.212002,3e-6 -0.386001,0.078 -0.522,0.234 -0.136001,0.152002 -0.204001,0.382002 -0.204,0.69 -10e-7,0.308001 0.06,0.540001 0.18,0.696 0.123999,0.152001 0.291999,0.228001 0.504,0.228 0.211998,1e-6 0.385998,-0.076 0.522,-0.228 0.135998,-0.155999 0.203998,-0.387999 0.204,-0.696"
         style="font-size:6px;font-weight:bold;font-family:Karla;-inkscape-font-specification:Karla;fill:#ffffff"
         id="path3532" /><path
         d="m 15.77565,28.448256 c 0.1,0.128003 0.173998,0.276003 0.222,0.444 0.052,0.168002 0.078,0.322002 0.078,0.462 -2e-6,0.140002 -0.008,0.266002 -0.024,0.378 l -1.884,0 c 0.008,0.236001 0.066,0.428001 0.174,0.576 0.107999,0.148001 0.271999,0.222001 0.492,0.222 0.291999,10e-7 0.465998,-0.127999 0.522,-0.384 l 0.714,0 c -0.048,0.292001 -0.182002,0.522001 -0.402,0.69 -0.228002,0.176 -0.506001,0.264 -0.834,0.264 -0.384001,0 -0.706,-0.14 -0.966,-0.42 -0.268,-0.291999 -0.402,-0.665999 -0.402,-1.122 0,-0.467998 0.134,-0.843997 0.402,-1.128 0.256,-0.271997 0.577999,-0.407997 0.966,-0.408 0.403998,3e-6 0.717998,0.142003 0.942,0.426 m -0.936,0.138 c -0.200001,3e-6 -0.356001,0.066 -0.468,0.198 -0.112001,0.128002 -0.178001,0.294002 -0.198,0.498 l 1.242,0 c -2e-6,-0.315998 -0.100002,-0.527997 -0.3,-0.636 -0.076,-0.04 -0.168001,-0.06 -0.276,-0.06"
         style="font-size:6px;font-weight:bold;font-family:Karla;-inkscape-font-specification:Karla;fill:#ffffff"
         id="path3534" /><path
         d="m 17.613432,28.604256 c 0.191998,-0.387997 0.499998,-0.581997 0.924,-0.582 0.359997,3e-6 0.629997,0.118003 0.81,0.354 0.183997,0.236003 0.275996,0.548002 0.276,0.936 l 0,1.704 -0.708,0 0,-1.704 c -3e-6,-0.215998 -0.052,-0.377998 -0.156,-0.486 -0.104003,-0.111997 -0.250002,-0.167997 -0.438,-0.168 -0.188002,3e-6 -0.350002,0.084 -0.486,0.252 -0.132002,0.168002 -0.202002,0.420002 -0.21,0.756 l 0,1.35 -0.708,0 0,-2.916 0.618,0 0.078,0.504"
         style="font-size:6px;font-weight:bold;font-family:Karla;-inkscape-font-specification:Karla;fill:#ffffff"
         id="path3536" /><path
         d="m 20.715713,28.094256 0.708,0 0,2.922 -0.708,0 0,-2.922 m -0.084,-0.936 c -1e-6,-0.127996 0.038,-0.227996 0.114,-0.3 0.076,-0.076 0.183999,-0.113995 0.324,-0.114 0.135999,5e-6 0.241999,0.038 0.318,0.114 0.08,0.072 0.119999,0.172004 0.12,0.3 -10e-7,0.128004 -0.04,0.230004 -0.12,0.306 -0.076,0.072 -0.182001,0.108004 -0.318,0.108 -0.140001,4e-6 -0.248001,-0.036 -0.324,-0.108 -0.076,-0.076 -0.114001,-0.177996 -0.114,-0.306"
         style="font-size:6px;font-weight:bold;font-family:Karla;-inkscape-font-specification:Karla;fill:#ffffff"
         id="path3538" /><path
         d="m 25.288463,31.016256 -0.864,0 -0.72,-0.936 -0.672,0.936 -0.87,0 1.134,-1.452 -1.134,-1.47 0.87,0 0.714,0.936 0.678,-0.936 0.864,0 -1.128,1.47 1.128,1.452"
         style="font-size:6px;font-weight:bold;font-family:Karla;-inkscape-font-specification:Karla;fill:#ffffff"
         id="path3540" /><path
         d="m 4.234463,35.522256 c 0.1839981,3e-6 0.347998,0.032 0.492,0.096 0.1479977,0.06 0.2719976,0.140003 0.372,0.24 0.1999973,0.192003 0.3179971,0.434003 0.354,0.726 l -0.714,0.018 c -0.032002,-0.127998 -0.092002,-0.233998 -0.18,-0.318 -0.084002,-0.084 -0.1820018,-0.125997 -0.294,-0.126 -0.1120016,3e-6 -0.2080015,0.018 -0.288,0.054 -0.080001,0.032 -0.1500013,0.084 -0.21,0.156 -0.1360011,0.168002 -0.204001,0.400002 -0.204,0.696 -1e-6,0.296001 0.063999,0.520001 0.192,0.672 0.1279987,0.148001 0.2819985,0.222001 0.462,0.222 0.1839982,1e-6 0.315998,-0.042 0.396,-0.126 0.083998,-0.088 0.1259978,-0.205999 0.126,-0.354 l 0.714,0 c -2.9e-6,0.320001 -0.1060028,0.586001 -0.318,0.798 -0.2160024,0.216 -0.5180021,0.324 -0.906,0.324 -0.3840013,0 -0.706001,-0.14 -0.966,-0.42 -0.2760004,-0.299999 -0.4140003,-0.673999 -0.414,-1.122 -3e-7,-0.471998 0.1379996,-0.849997 0.414,-1.134 0.259999,-0.267997 0.5839987,-0.401997 0.972,-0.402"
         style="font-size:6px;font-weight:bold;font-family:Karla;-inkscape-font-specification:Karla;fill:#ffffff"
         id="path3542" /><path
         d="m 7.7942442,34.544256 c 0.2599977,4e-6 0.4979975,0.044 0.714,0.132 0.2159971,0.084 0.4019969,0.210004 0.558,0.378 0.3279964,0.352003 0.4919962,0.856003 0.492,1.512 -3.8e-6,0.660002 -0.1640036,1.170001 -0.492,1.53 -0.312003,0.336 -0.7380025,0.504 -1.278,0.504 -0.5360015,0 -0.960001,-0.172 -1.272,-0.516 -0.3280004,-0.355999 -0.4920002,-0.861998 -0.492,-1.518 -2e-7,-0.663997 0.1639996,-1.171997 0.492,-1.524 0.307999,-0.331996 0.7339985,-0.497996 1.278,-0.498 m 1.032,2.034 c -3e-6,-0.447997 -0.094003,-0.791997 -0.282,-1.032 -0.1840026,-0.243996 -0.4340023,-0.365996 -0.75,-0.366 -0.3160017,4e-6 -0.5680014,0.122004 -0.756,0.366 -0.1880011,0.240003 -0.282001,0.584003 -0.282,1.032 -1e-6,0.444002 0.093999,0.786001 0.282,1.026 0.1879986,0.236001 0.4399983,0.354001 0.756,0.354 0.3159977,1e-6 0.5659974,-0.117999 0.75,-0.354 0.1879971,-0.239999 0.281997,-0.581998 0.282,-1.026"
         style="font-size:6px;font-weight:bold;font-family:Karla;-inkscape-font-specification:Karla;fill:#ffffff"
         id="path3544" /><path
         d="m 12.447807,35.696256 c -0.064,-0.339997 -0.304003,-0.509996 -0.72,-0.51 -0.204002,4e-6 -0.364002,0.042 -0.48,0.126 -0.112002,0.08 -0.168001,0.178003 -0.168,0.294 -1e-6,0.116003 0.036,0.208003 0.108,0.276 0.076,0.064 0.191998,0.124003 0.348,0.18 l 0.846,0.33 c 0.287997,0.112002 0.509997,0.254002 0.666,0.426 0.155996,0.168002 0.233996,0.380002 0.234,0.636 -4e-6,0.352001 -0.132004,0.632001 -0.396,0.84 -0.264003,0.204 -0.640003,0.306 -1.128,0.306 -0.432002,0 -0.782001,-0.106 -1.05,-0.318 -0.300001,-0.231999 -0.458001,-0.559999 -0.474,-0.984 l 0.702,0 c -1e-6,0.320001 0.165998,0.522001 0.498,0.606 0.1,0.028 0.231998,0.042 0.396,0.042 0.163998,1e-6 0.315997,-0.04 0.456,-0.12 0.139997,-0.084 0.209997,-0.193999 0.21,-0.33 -3e-6,-0.139999 -0.038,-0.245998 -0.114,-0.318 -0.076,-0.076 -0.200003,-0.145998 -0.372,-0.21 l -0.774,-0.306 c -0.300001,-0.115998 -0.530001,-0.251998 -0.69,-0.408 -0.160001,-0.155997 -0.240001,-0.371997 -0.24,-0.648 -10e-7,-0.323996 0.125999,-0.579996 0.378,-0.768 0.255999,-0.195996 0.601998,-0.293996 1.038,-0.294 0.439997,4e-6 0.777997,0.102004 1.014,0.306 0.239997,0.200004 0.377996,0.482004 0.414,0.846 l -0.702,0"
         style="font-size:6px;font-weight:bold;font-family:Karla;-inkscape-font-specification:Karla;fill:#ffffff"
         id="path3546" /><path
         d="m 14.473838,38.468256 c -0.144001,0 -0.262001,-0.044 -0.354,-0.132 -0.092,-0.088 -0.138,-0.199999 -0.138,-0.336 0,-0.135999 0.046,-0.249999 0.138,-0.342 0.092,-0.092 0.209999,-0.137999 0.354,-0.138 0.143999,10e-7 0.263999,0.046 0.36,0.138 0.096,0.092 0.143999,0.206001 0.144,0.342 -1e-6,0.136001 -0.048,0.248001 -0.144,0.336 -0.096,0.088 -0.216001,0.132 -0.36,0.132 m 0,-1.782 c -0.144001,2e-6 -0.262001,-0.044 -0.354,-0.132 -0.092,-0.088 -0.138,-0.199998 -0.138,-0.336 0,-0.135997 0.046,-0.249997 0.138,-0.342 0.092,-0.092 0.209999,-0.137997 0.354,-0.138 0.143999,3e-6 0.263999,0.046 0.36,0.138 0.096,0.092 0.143999,0.206003 0.144,0.342 -1e-6,0.136002 -0.048,0.248002 -0.144,0.336 -0.096,0.088 -0.216001,0.132002 -0.36,0.132"
         style="font-size:6px;font-weight:bold;font-family:Karla;-inkscape-font-specification:Karla;fill:#ffffff"
         id="path3548" /><path
         d="m 16.397025,36.926256 c -0.152,2e-6 -0.28,0.122002 -0.384,0.366 l -0.378,-0.204 c 0.068,-0.259998 0.162,-0.463998 0.282,-0.612 0.124,-0.151997 0.286,-0.227997 0.486,-0.228 0.135999,3e-6 0.313999,0.042 0.534,0.126 0.343999,0.132002 0.563998,0.198002 0.66,0.198 0.163998,2e-6 0.293998,-0.111998 0.39,-0.336 l 0.384,0.246 c -0.160002,0.508002 -0.436002,0.762002 -0.828,0.762 -0.132002,2e-6 -0.336001,-0.056 -0.612,-0.168 -0.148001,-0.052 -0.260001,-0.09 -0.336,-0.114 -0.072,-0.024 -0.138001,-0.036 -0.198,-0.036"
         style="font-size:6px;font-weight:bold;font-family:Karla;-inkscape-font-specification:Karla;fill:#ffffff"
         id="path3550" /><path
         d="m 21.5649,36.458256 c 0.299997,0.104002 0.523997,0.236002 0.672,0.396 0.147997,0.156002 0.221997,0.364002 0.222,0.624 -3e-6,0.284001 -0.116003,0.530001 -0.348,0.738 -0.256003,0.22 -0.614002,0.346 -1.074,0.378 l 0,0.528 -0.504,0 0,-0.54 c -0.416001,-0.04 -0.754001,-0.164 -1.014,-0.372 -0.276,-0.223999 -0.414,-0.527999 -0.414,-0.912 l 0.702,0 c -10e-7,0.192001 0.062,0.338001 0.186,0.438 0.123999,0.100001 0.303999,0.164001 0.54,0.192 l 0,-1.164 -0.3,-0.102 c -0.336001,-0.111998 -0.596,-0.245998 -0.78,-0.402 -0.184,-0.159997 -0.276,-0.381997 -0.276,-0.666 0,-0.283996 0.114,-0.519996 0.342,-0.708 0.231999,-0.191996 0.569999,-0.303996 1.014,-0.336 l 0,-0.456 0.504,0 0,0.462 c 0.387998,0.04 0.683997,0.160004 0.888,0.36 0.203997,0.200004 0.333997,0.460003 0.39,0.78 l -0.702,0 c -0.02,-0.119997 -0.08,-0.225997 -0.18,-0.318 -0.096,-0.096 -0.228002,-0.161996 -0.396,-0.198 l 0,1.092 0.528,0.186 m -0.528,1.482 c 0.215998,-0.02 0.373998,-0.074 0.474,-0.162 0.1,-0.088 0.149998,-0.191999 0.15,-0.312 -2e-6,-0.227998 -0.144002,-0.395998 -0.432,-0.504 l -0.192,-0.072 0,1.05 m -0.504,-2.778 c -0.192001,0.024 -0.338001,0.078 -0.438,0.162 -0.096,0.084 -0.144001,0.182003 -0.144,0.294 -1e-6,0.112003 0.032,0.202003 0.096,0.27 0.064,0.064 0.165999,0.120003 0.306,0.168 l 0.18,0.072 0,-0.966"
         style="font-size:6px;font-weight:bold;font-family:Karla;-inkscape-font-specification:Karla;fill:#ffffff"
         id="path3552" /><path
         d="m 26.043057,35.522256 c 0.183998,3e-6 0.347998,0.032 0.492,0.096 0.147997,0.06 0.271997,0.140003 0.372,0.24 0.199997,0.192003 0.317997,0.434003 0.354,0.726 l -0.714,0.018 c -0.032,-0.127998 -0.092,-0.233998 -0.18,-0.318 -0.084,-0.084 -0.182002,-0.125997 -0.294,-0.126 -0.112002,3e-6 -0.208002,0.018 -0.288,0.054 -0.08,0.032 -0.150002,0.084 -0.21,0.156 -0.136001,0.168002 -0.204001,0.400002 -0.204,0.696 -1e-6,0.296001 0.064,0.520001 0.192,0.672 0.127998,0.148001 0.281998,0.222001 0.462,0.222 0.183998,1e-6 0.315998,-0.042 0.396,-0.126 0.084,-0.088 0.125998,-0.205999 0.126,-0.354 l 0.714,0 c -3e-6,0.320001 -0.106003,0.586001 -0.318,0.798 -0.216003,0.216 -0.518002,0.324 -0.906,0.324 -0.384002,0 -0.706001,-0.14 -0.966,-0.42 -0.276001,-0.299999 -0.414001,-0.673999 -0.414,-1.122 -10e-7,-0.471998 0.137999,-0.849997 0.414,-1.134 0.259999,-0.267997 0.583998,-0.401997 0.972,-0.402"
         style="font-size:6px;font-weight:bold;font-family:Karla;-inkscape-font-specification:Karla;fill:#ffffff"
         id="path3554" /><path
         d="m 30.010838,38.066256 c -0.180002,0.356 -0.456002,0.534 -0.828,0.534 -0.372001,0 -0.684001,-0.142 -0.936,-0.426 -0.26,-0.295999 -0.39,-0.671999 -0.39,-1.128 0,-0.455998 0.124,-0.825997 0.372,-1.11 0.243999,-0.275997 0.547999,-0.413997 0.912,-0.414 0.363998,3e-6 0.637998,0.146003 0.822,0.438 l 0,-1.56 0.714,0 0,4.116 -0.582,0 -0.084,-0.45 m -0.738,-1.908 c -0.200002,3e-6 -0.368001,0.082 -0.504,0.246 -0.132001,0.160002 -0.198001,0.376002 -0.198,0.648 -10e-7,0.272002 0.068,0.492001 0.204,0.66 0.135999,0.164001 0.307998,0.246001 0.516,0.246 0.171998,1e-6 0.325998,-0.068 0.462,-0.204 0.139998,-0.139999 0.209998,-0.315999 0.21,-0.528 l 0,-0.378 c -0.008,-0.207998 -0.078,-0.377998 -0.21,-0.51 -0.120002,-0.119997 -0.280002,-0.179997 -0.48,-0.18"
         style="font-size:6px;font-weight:bold;font-family:Karla;-inkscape-font-specification:Karla;fill:#ffffff"
         id="path3556" /><path
         d="m 34.073963,34.622256 1.716,2.76 0,-2.76 0.708,0 0,3.894 -0.72,0 -1.77,-2.856 0,2.856 -0.708,0 0,-3.894 0.774,0"
         style="font-size:6px;font-weight:bold;font-family:Karla;-inkscape-font-specification:Karla;fill:#ffffff"
         id="path3558" /><path
         d="m 37.990744,34.622256 0.858,1.554 0.9,-1.554 0.834,0 -1.386,2.286 0,1.608 -0.708,0 0,-1.608 -1.338,-2.286 0.84,0"
         style="font-size:6px;font-weight:bold;font-family:Karla;-inkscape-font-specification:Karla;fill:#ffffff"
         id="path3560" /><path
         d="m 42.444338,34.544256 c 0.239998,4e-6 0.447998,0.03 0.624,0.09 0.175997,0.056 0.327997,0.136004 0.456,0.24 0.251997,0.204004 0.415997,0.490003 0.492,0.858 l -0.756,0.138 c -0.064,-0.203997 -0.164003,-0.367997 -0.3,-0.492 -0.132002,-0.127996 -0.298002,-0.191996 -0.498,-0.192 -0.272002,4e-6 -0.492001,0.114004 -0.66,0.342 -0.180001,0.248003 -0.270001,0.592003 -0.27,1.032 -1e-6,0.436002 0.08,0.778002 0.24,1.026 0.159999,0.244001 0.377998,0.366001 0.654,0.366 0.275998,1e-6 0.483998,-0.066 0.624,-0.198 0.139997,-0.135999 0.209997,-0.309999 0.21,-0.522 l 0.762,0 c -4e-6,0.436001 -0.140003,0.774001 -0.42,1.014 -0.276003,0.236 -0.656002,0.354 -1.14,0.354 -0.516001,0 -0.926001,-0.18 -1.23,-0.54 -0.308,-0.367999 -0.462,-0.867998 -0.462,-1.5 0,-0.639997 0.158,-1.139997 0.474,-1.5 0.303999,-0.343996 0.703999,-0.515996 1.2,-0.516"
         style="font-size:6px;font-weight:bold;font-family:Karla;-inkscape-font-specification:Karla;fill:#ffffff"
         id="path3562" /></g></g><g
     id="g6313"
     transform="translate(0,-12.5)" /><g
     id="g6315"
     transform="translate(0,-12.5)" /><g
     id="g6317"
     transform="translate(0,-12.5)" /><g
     id="g6319"
     transform="translate(0,-12.5)" /><g
     id="g6321"
     transform="translate(0,-12.5)" /><g
     id="g6323"
     transform="translate(0,-12.5)" /><g
     id="g6325"
     transform="translate(0,-12.5)" /><g
     id="g6327"
     transform="translate(0,-12.5)" /><g
     id="g6329"
     transform="translate(0,-12.5)" /><g
     id="g6331"
     transform="translate(0,-12.5)" /><g
     id="g6333"
     transform="translate(0,-12.5)" /><g
     id="g6335"
     transform="translate(0,-12.5)" /><g
     id="g6337"
     transform="translate(0,-12.5)" /><g
     id="g6339"
     transform="translate(0,-12.5)" /><g
     id="g6341"
     transform="translate(0,-12.5)" /></svg>