<?xml version="1.0" encoding="UTF-8" standalone="no"?>
<!-- Generator: Adobe Illustrator 18.0.0, SVG Export Plug-In . SVG Version: 6.00 Build 0)  -->

<svg
   xmlns:dc="http://purl.org/dc/elements/1.1/"
   xmlns:cc="http://creativecommons.org/ns#"
   xmlns:rdf="http://www.w3.org/1999/02/22-rdf-syntax-ns#"
   xmlns:svg="http://www.w3.org/2000/svg"
   xmlns="http://www.w3.org/2000/svg"
   xmlns:sodipodi="http://sodipodi.sourceforge.net/DTD/sodipodi-0.dtd"
   xmlns:inkscape="http://www.inkscape.org/namespaces/inkscape"
   version="1.1"
   id="Capa_1"
   x="0px"
   y="0px"
   viewBox="0 0 45 43"
   xml:space="preserve"
   inkscape:version="0.48.4 r9939"
   width="100%"
   height="100%"
   sodipodi:docname="chat.svg"><metadata
     id="metadata6347"><rdf:RDF><cc:Work
         rdf:about=""><dc:format>image/svg+xml</dc:format><dc:type
           rdf:resource="http://purl.org/dc/dcmitype/StillImage" /><dc:title /></cc:Work></rdf:RDF></metadata><defs
     id="defs6345" /><sodipodi:namedview
     pagecolor="#ffffff"
     bordercolor="#666666"
     borderopacity="1"
     objecttolerance="10"
     gridtolerance="10"
     guidetolerance="10"
     inkscape:pageopacity="0"
     inkscape:pageshadow="2"
     inkscape:window-width="2560"
     inkscape:window-height="1605"
     id="namedview6343"
     showgrid="false"
     fit-margin-top="0"
     fit-margin-left="0"
     fit-margin-right="0"
     fit-margin-bottom="0"
     inkscape:zoom="11.508772"
     inkscape:cx="51.663503"
     inkscape:cy="27.675305"
     inkscape:window-x="0"
     inkscape:window-y="73"
     inkscape:window-maximized="1"
     inkscape:current-layer="g6301" /><g
     id="g6301"
     transform="translate(0,-12.5)"><path
       style="fill:#45b29a;fill-opacity:1"
       d="M 1.653,12.5 C 0.74,12.5 0,13.24 0,14.153 v 33.347 8 l 8,-8 H 43.347 C 44.26,47.5 45,46.76 45,45.847 V 14.153 C 45,13.24 44.26,12.5 43.347,12.5 H 1.653 z"
       id="path6303"
       inkscape:connector-curvature="0" /><g
       style="font-size:6.8005805px;font-style:normal;font-variant:normal;font-weight:500;font-stretch:normal;line-height:125%;letter-spacing:0px;word-spacing:0px;fill:#ffffff;fill-opacity:1;stroke:none;font-family:Pixway;-inkscape-font-specification:Pixway Medium"
       id="text6408"
       transform="matrix(0.91205441,0,0,0.91205441,2.0927212,2.2137889)"><path
         d="m 3.886463,19.622256 1.716,2.76 0,-2.76 0.708,0 0,3.894 -0.72,0 -1.77,-2.856 0,2.856 -0.708,0 0,-3.894 0.774,0"
         style="font-size:6px;font-weight:bold;fill:#ffffff;font-family:Karla;-inkscape-font-specification:Karla"
         id="path3674"
         inkscape:connector-curvature="0" /><path
         d="m 8.5712442,20.522256 c 0.1959981,3e-6 0.379998,0.032 0.552,0.096 0.1719976,0.06 0.3199975,0.154003 0.444,0.282 0.2759971,0.280003 0.4139969,0.668002 0.414,1.164 -3.1e-6,0.488001 -0.1380029,0.872001 -0.414,1.152 -0.2480024,0.256 -0.5800021,0.384 -0.996,0.384 -0.4160012,0 -0.7520009,-0.128 -1.008,-0.384 -0.2760004,-0.275999 -0.4140002,-0.659999 -0.414,-1.152 -2e-7,-0.499998 0.1379996,-0.887997 0.414,-1.164 0.2519991,-0.251997 0.5879988,-0.377997 1.008,-0.378 m 0.702,1.536 c -2.4e-6,-0.307998 -0.060002,-0.537998 -0.18,-0.69 -0.1200021,-0.155997 -0.2880019,-0.233997 -0.504,-0.234 -0.2120015,3e-6 -0.3860013,0.078 -0.522,0.234 -0.136001,0.152002 -0.204001,0.382002 -0.204,0.69 -10e-7,0.308001 0.059999,0.540001 0.18,0.696 0.1239987,0.152001 0.2919986,0.228001 0.504,0.228 0.2119982,1e-6 0.385998,-0.076 0.522,-0.228 0.1359977,-0.155999 0.2039976,-0.387999 0.204,-0.696"
         style="font-size:6px;font-weight:bold;fill:#ffffff;font-family:Karla;-inkscape-font-specification:Karla"
         id="path3676"
         inkscape:connector-curvature="0" /><path
         d="m 11.081682,20.600256 0.588,2.082 0.558,-1.92 0.642,0 0.558,1.926 0.594,-2.088 0.708,0 -0.96,2.916 -0.696,0 -0.54,-1.746 -0.528,1.746 -0.702,0 -0.966,-2.916 0.744,0"
         style="font-size:6px;font-weight:bold;fill:#ffffff;font-family:Karla;-inkscape-font-specification:Karla"
         id="path3678"
         inkscape:connector-curvature="0" /><path
         d="m 17.151994,20.600256 0.588,2.082 0.558,-1.92 0.642,0 0.558,1.926 0.594,-2.088 0.708,0 -0.96,2.916 -0.696,0 -0.54,-1.746 -0.528,1.746 -0.702,0 -0.966,-2.916 0.744,0"
         style="font-size:6px;font-weight:bold;fill:#ffffff;font-family:Karla;-inkscape-font-specification:Karla"
         id="path3680"
         inkscape:connector-curvature="0" /><path
         d="m 21.500869,20.594256 0.708,0 0,2.922 -0.708,0 0,-2.922 m -0.084,-0.936 c 0,-0.127996 0.038,-0.227996 0.114,-0.3 0.076,-0.076 0.183999,-0.113995 0.324,-0.114 0.135999,5e-6 0.241999,0.038 0.318,0.114 0.08,0.072 0.119999,0.172004 0.12,0.3 -1e-6,0.128004 -0.04,0.230004 -0.12,0.306 -0.076,0.072 -0.182001,0.108004 -0.318,0.108 -0.140001,4e-6 -0.248,-0.036 -0.324,-0.108 -0.076,-0.076 -0.114,-0.177996 -0.114,-0.306"
         style="font-size:6px;font-weight:bold;fill:#ffffff;font-family:Karla;-inkscape-font-specification:Karla"
         id="path3682"
         inkscape:connector-curvature="0" /><path
         d="m 25.053619,23.444256 c -0.264002,0.104 -0.472001,0.156 -0.624,0.156 -0.152001,0 -0.286001,-0.018 -0.402,-0.054 -0.112001,-0.036 -0.212001,-0.09 -0.3,-0.162 -0.184,-0.163999 -0.276,-0.389999 -0.276,-0.678 l 0,-1.632 -0.408,0 0,-0.474 0.408,0 0,-0.768 0.708,0 0,0.768 0.792,0 0,0.474 -0.792,0 0,1.608 c -1e-6,0.240001 0.113999,0.360001 0.342,0.36 0.115998,1e-6 0.265998,-0.032 0.45,-0.096 l 0.102,0.498"
         style="font-size:6px;font-weight:bold;fill:#ffffff;font-family:Karla;-inkscape-font-specification:Karla"
         id="path3684"
         inkscape:connector-curvature="0" /><path
         d="m 26.484807,21.074256 c 0.199998,-0.367997 0.491998,-0.551997 0.876,-0.552 0.383997,3e-6 0.665997,0.118003 0.846,0.354 0.183997,0.236003 0.275996,0.548002 0.276,0.936 l 0,1.704 -0.708,0 0,-1.704 c -3e-6,-0.215998 -0.052,-0.377998 -0.156,-0.486 -0.104003,-0.111997 -0.250002,-0.167997 -0.438,-0.168 -0.188002,3e-6 -0.350002,0.084 -0.486,0.252 -0.132002,0.168002 -0.202002,0.420002 -0.21,0.756 l 0,1.35 -0.708,0 0,-4.116 0.708,0 0,1.674"
         style="font-size:6px;font-weight:bold;fill:#ffffff;font-family:Karla;-inkscape-font-specification:Karla"
         id="path3686"
         inkscape:connector-curvature="0" /><path
         d="m 30.732525,19.916256 c 0.3,-0.044 0.564,-0.149996 0.792,-0.318 l 0.534,0 0,3.918 -0.708,0 0,-3.072 c -0.204,0.100003 -0.41,0.150003 -0.618,0.15 l 0,-0.678"
         style="font-size:6px;font-weight:bold;fill:#ffffff;font-family:Karla;-inkscape-font-specification:Karla"
         id="path3688"
         inkscape:connector-curvature="0" /><path
         d="m 34.521057,19.544256 c 0.239998,4e-6 0.457997,0.042 0.654,0.126 0.199997,0.08 0.369997,0.204004 0.51,0.372 0.303996,0.356003 0.455996,0.866003 0.456,1.53 -4e-6,0.664002 -0.152004,1.174001 -0.456,1.53 -0.280003,0.332 -0.666003,0.498 -1.158,0.498 -0.496002,0 -0.886001,-0.166 -1.17,-0.498 -0.300001,-0.347999 -0.450001,-0.857998 -0.45,-1.53 -1e-6,-0.671997 0.149999,-1.181997 0.45,-1.53 0.283999,-0.331996 0.671998,-0.497996 1.164,-0.498 m 0.888,2.028 c -3e-6,-0.447997 -0.078,-0.789997 -0.234,-1.026 -0.152003,-0.239996 -0.370002,-0.359996 -0.654,-0.36 -0.280002,4e-6 -0.498002,0.120004 -0.654,0.36 -0.152001,0.236003 -0.228001,0.578003 -0.228,1.026 -1e-6,0.448002 0.076,0.790001 0.228,1.026 0.155998,0.232001 0.373998,0.348001 0.654,0.348 0.283998,10e-7 0.501997,-0.115999 0.654,-0.348 0.155997,-0.235999 0.233997,-0.577998 0.234,-1.026"
         style="font-size:6px;font-weight:bold;fill:#ffffff;font-family:Karla;-inkscape-font-specification:Karla"
         id="path3690"
         inkscape:connector-curvature="0" /><path
         d="m 38.317932,19.544256 c 0.239998,4e-6 0.457997,0.042 0.654,0.126 0.199997,0.08 0.369997,0.204004 0.51,0.372 0.303996,0.356003 0.455996,0.866003 0.456,1.53 -4e-6,0.664002 -0.152004,1.174001 -0.456,1.53 -0.280003,0.332 -0.666003,0.498 -1.158,0.498 -0.496002,0 -0.886001,-0.166 -1.17,-0.498 -0.300001,-0.347999 -0.450001,-0.857998 -0.45,-1.53 -1e-6,-0.671997 0.149999,-1.181997 0.45,-1.53 0.283999,-0.331996 0.671998,-0.497996 1.164,-0.498 m 0.888,2.028 c -3e-6,-0.447997 -0.078,-0.789997 -0.234,-1.026 -0.152003,-0.239996 -0.370002,-0.359996 -0.654,-0.36 -0.280002,4e-6 -0.498002,0.120004 -0.654,0.36 -0.152001,0.236003 -0.228001,0.578003 -0.228,1.026 -1e-6,0.448002 0.076,0.790001 0.228,1.026 0.155998,0.232001 0.373998,0.348001 0.654,0.348 0.283998,10e-7 0.501997,-0.115999 0.654,-0.348 0.155997,-0.235999 0.233997,-0.577998 0.234,-1.026"
         style="font-size:6px;font-weight:bold;fill:#ffffff;font-family:Karla;-inkscape-font-specification:Karla"
         id="path3692"
         inkscape:connector-curvature="0" /><path
         d="m 41.406807,19.544256 c 0.107998,4e-6 0.211998,0.02 0.312,0.06 0.1,0.036 0.187998,0.092 0.264,0.168 0.163998,0.156004 0.245998,0.382004 0.246,0.678 -2e-6,0.292003 -0.082,0.520003 -0.246,0.684 -0.152002,0.152003 -0.346002,0.228002 -0.582,0.228 -0.228001,2e-6 -0.418001,-0.076 -0.57,-0.228 -0.164001,-0.163997 -0.246001,-0.391997 -0.246,-0.684 -10e-7,-0.295996 0.082,-0.521996 0.246,-0.678 0.155999,-0.151996 0.347999,-0.227996 0.576,-0.228 m 0.288,0.906 c -2e-6,-0.303996 -0.098,-0.455996 -0.294,-0.456 -0.192001,4e-6 -0.288001,0.152004 -0.288,0.456 -10e-7,0.308003 0.096,0.462003 0.288,0.462 0.195998,3e-6 0.293998,-0.153997 0.294,-0.462 m 1.8,-0.828 0.714,0 -2.634,3.894 -0.72,0 2.64,-3.894 m 0.162,2.154 c 0.227996,2e-6 0.419996,0.076 0.576,0.228 0.163996,0.156002 0.245995,0.382001 0.246,0.678 -5e-6,0.296001 -0.082,0.526001 -0.246,0.69 -0.152004,0.152 -0.344004,0.228 -0.576,0.228 -0.232003,0 -0.424003,-0.076 -0.576,-0.228 -0.164003,-0.163999 -0.246003,-0.393999 -0.246,-0.69 -3e-6,-0.295999 0.082,-0.521998 0.246,-0.678 0.155997,-0.151998 0.347997,-0.227998 0.576,-0.228 m 0,0.45 c -0.192004,2e-6 -0.288003,0.154001 -0.288,0.462 -3e-6,0.304001 0.096,0.456001 0.288,0.456 0.084,1e-6 0.153996,-0.034 0.21,-0.102 0.056,-0.072 0.084,-0.189999 0.084,-0.354 -4e-6,-0.167999 -0.028,-0.285999 -0.084,-0.354 -0.056,-0.072 -0.126004,-0.107998 -0.21,-0.108"
         style="font-size:6px;font-weight:bold;fill:#ffffff;font-family:Karla;-inkscape-font-specification:Karla"
         id="path3694"
         inkscape:connector-curvature="0" /><path
         d="m 5.716463,28.652256 c 0.1879967,-0.419997 0.5179963,-0.629997 0.99,-0.63 0.3479955,3e-6 0.6179952,0.118003 0.81,0.354 0.1839949,0.224003 0.2759948,0.536002 0.276,0.936 l 0,1.704 -0.714,0 0,-1.704 c -4.5e-6,-0.215998 -0.052004,-0.377998 -0.156,-0.486 -0.1040043,-0.111997 -0.2500041,-0.167997 -0.438,-0.168 -0.1880037,3e-6 -0.3420036,0.082 -0.462,0.246 -0.1200033,0.164002 -0.1840033,0.412002 -0.192,0.744 l 0,1.368 -0.708,0 0,-1.704 c -2.6e-6,-0.215998 -0.052002,-0.377998 -0.156,-0.486 -0.1040023,-0.111997 -0.2500022,-0.167997 -0.438,-0.168 -0.1880018,3e-6 -0.3500016,0.084 -0.486,0.252 -0.1320014,0.168002 -0.2020013,0.420002 -0.21,0.756 l 0,1.35 -0.708,0 0,-2.916 0.618,0 0.078,0.504 c 0.1919985,-0.387997 0.4999982,-0.581997 0.924,-0.582 0.2439976,3e-6 0.4459974,0.056 0.606,0.168 0.163997,0.112003 0.2859969,0.266003 0.366,0.462"
         style="font-size:6px;font-weight:bold;fill:#ffffff;font-family:Karla;-inkscape-font-specification:Karla"
         id="path3696"
         inkscape:connector-curvature="0" /><path
         d="m 9.9657755,28.022256 c 0.1959985,3e-6 0.3799975,0.032 0.5519995,0.096 0.171998,0.06 0.319998,0.154003 0.444,0.282 0.275998,0.280003 0.413997,0.668002 0.414,1.164 -3e-6,0.488001 -0.138002,0.872001 -0.414,1.152 -0.248002,0.256 -0.580002,0.384 -0.9959995,0.384 -0.4160013,0 -0.752001,-0.128 -1.008,-0.384 -0.2760004,-0.275999 -0.4140003,-0.659999 -0.414,-1.152 -3e-7,-0.499998 0.1379996,-0.887997 0.414,-1.164 0.251999,-0.251997 0.5879987,-0.377997 1.008,-0.378 m 0.7019995,1.536 c -2e-6,-0.307998 -0.06,-0.537998 -0.18,-0.69 -0.120002,-0.155997 -0.288001,-0.233997 -0.5039995,-0.234 -0.2120015,3e-6 -0.3860013,0.078 -0.522,0.234 -0.1360011,0.152002 -0.204001,0.382002 -0.204,0.69 -10e-7,0.308001 0.059999,0.540001 0.18,0.696 0.1239987,0.152001 0.2919985,0.228001 0.504,0.228 0.2119985,1e-6 0.3859975,-0.076 0.5219995,-0.228 0.135998,-0.155999 0.203998,-0.387999 0.204,-0.696"
         style="font-size:6px;font-weight:bold;fill:#ffffff;font-family:Karla;-inkscape-font-specification:Karla"
         id="path3698"
         inkscape:connector-curvature="0" /><path
         d="m 12.926213,28.676256 c 0.175999,-0.419997 0.439998,-0.629997 0.792,-0.63 0.068,3e-6 0.153998,0.014 0.258,0.042 l -0.012,0.708 c -0.112002,-0.024 -0.222002,-0.036 -0.33,-0.036 -0.472002,3e-6 -0.708001,0.326002 -0.708,0.978 l 0,1.278 -0.708,0 0,-2.922 0.708,0 0,0.582"
         style="font-size:6px;font-weight:bold;fill:#ffffff;font-family:Karla;-inkscape-font-specification:Karla"
         id="path3700"
         inkscape:connector-curvature="0" /><path
         d="m 16.748307,28.448256 c 0.1,0.128003 0.173997,0.276003 0.222,0.444 0.052,0.168002 0.078,0.322002 0.078,0.462 -3e-6,0.140002 -0.008,0.266002 -0.024,0.378 l -1.884,0 c 0.008,0.236001 0.066,0.428001 0.174,0.576 0.107998,0.148001 0.271998,0.222001 0.492,0.222 0.291998,10e-7 0.465998,-0.127999 0.522,-0.384 l 0.714,0 c -0.048,0.292001 -0.182003,0.522001 -0.402,0.69 -0.228003,0.176 -0.506002,0.264 -0.834,0.264 -0.384002,0 -0.706001,-0.14 -0.966,-0.42 -0.268001,-0.291999 -0.402001,-0.665999 -0.402,-1.122 -10e-7,-0.467998 0.133999,-0.843997 0.402,-1.128 0.255999,-0.271997 0.577998,-0.407997 0.966,-0.408 0.403998,3e-6 0.717997,0.142003 0.942,0.426 m -0.936,0.138 c -0.200002,3e-6 -0.356002,0.066 -0.468,0.198 -0.112001,0.128002 -0.178001,0.294002 -0.198,0.498 l 1.242,0 c -2e-6,-0.315998 -0.100002,-0.527997 -0.3,-0.636 -0.076,-0.04 -0.168002,-0.06 -0.276,-0.06"
         style="font-size:6px;font-weight:bold;fill:#ffffff;font-family:Karla;-inkscape-font-specification:Karla"
         id="path3702"
         inkscape:connector-curvature="0" /><path
         d="m 21.861525,28.442256 c 0.247997,0.280003 0.371997,0.648002 0.372,1.104 -3e-6,0.456001 -0.130003,0.832001 -0.39,1.128 -0.252002,0.284 -0.566002,0.426 -0.942,0.426 -0.180001,0 -0.346001,-0.048 -0.498,-0.144 -0.148001,-0.096 -0.266001,-0.243999 -0.354,-0.444 l -0.174,0.504 -0.462,0 0,-4.116 0.708,0 0,1.566 c 0.183999,-0.295997 0.457999,-0.443997 0.822,-0.444 0.367998,3e-6 0.673998,0.140003 0.918,0.42 m -1.74,0.936 0,0.384 c 0.008,0.204001 0.082,0.372001 0.222,0.504 0.131999,0.128001 0.291999,0.192001 0.48,0.192 0.191998,1e-6 0.355998,-0.082 0.492,-0.246 0.135998,-0.167999 0.203998,-0.387998 0.204,-0.66 -2e-6,-0.271998 -0.068,-0.487998 -0.204,-0.648 -0.132002,-0.163997 -0.298002,-0.245997 -0.498,-0.246 -0.200001,3e-6 -0.366001,0.066 -0.498,0.198 -0.132001,0.132002 -0.198001,0.306002 -0.198,0.522"
         style="font-size:6px;font-weight:bold;fill:#ffffff;font-family:Karla;-inkscape-font-specification:Karla"
         id="path3704"
         inkscape:connector-curvature="0" /><path
         d="m 25.127213,28.448256 c 0.1,0.128003 0.173997,0.276003 0.222,0.444 0.052,0.168002 0.078,0.322002 0.078,0.462 -3e-6,0.140002 -0.008,0.266002 -0.024,0.378 l -1.884,0 c 0.008,0.236001 0.066,0.428001 0.174,0.576 0.107999,0.148001 0.271999,0.222001 0.492,0.222 0.291998,10e-7 0.465998,-0.127999 0.522,-0.384 l 0.714,0 c -0.048,0.292001 -0.182003,0.522001 -0.402,0.69 -0.228002,0.176 -0.506002,0.264 -0.834,0.264 -0.384001,0 -0.706001,-0.14 -0.966,-0.42 -0.268,-0.291999 -0.402,-0.665999 -0.402,-1.122 0,-0.467998 0.134,-0.843997 0.402,-1.128 0.255999,-0.271997 0.577999,-0.407997 0.966,-0.408 0.403998,3e-6 0.717998,0.142003 0.942,0.426 m -0.936,0.138 c -0.200001,3e-6 -0.356001,0.066 -0.468,0.198 -0.112001,0.128002 -0.178001,0.294002 -0.198,0.498 l 1.242,0 c -2e-6,-0.315998 -0.100002,-0.527997 -0.3,-0.636 -0.076,-0.04 -0.168002,-0.06 -0.276,-0.06"
         style="font-size:6px;font-weight:bold;fill:#ffffff;font-family:Karla;-inkscape-font-specification:Karla"
         id="path3706"
         inkscape:connector-curvature="0" /><path
         d="m 27.228994,29.312256 c 0.231998,2e-6 0.499998,0.038 0.804,0.114 l 0,-0.288 c -2e-6,-0.203998 -0.042,-0.353997 -0.126,-0.45 -0.08,-0.1 -0.214002,-0.149997 -0.402,-0.15 -0.184001,3e-6 -0.326001,0.038 -0.426,0.114 -0.100001,0.072 -0.150001,0.176003 -0.15,0.312 l -0.774,0 c 0,-0.331997 0.116,-0.571997 0.348,-0.72 0.235999,-0.147997 0.563999,-0.221997 0.984,-0.222 0.599998,3e-6 0.987997,0.210003 1.164,0.63 0.06,0.144003 0.09,0.314002 0.09,0.51 l 0,1.854 -0.618,0 -0.054,-0.39 c -0.188002,0.316 -0.476002,0.474 -0.864,0.474 -0.376001,0 -0.668001,-0.092 -0.876,-0.276 -0.192,-0.175999 -0.288,-0.397999 -0.288,-0.666 0,-0.271999 0.106,-0.479998 0.318,-0.624 0.211999,-0.147998 0.501999,-0.221998 0.87,-0.222 m 0.804,0.564 c -0.236002,-0.064 -0.456002,-0.096 -0.66,-0.096 -0.384001,2e-6 -0.576001,0.128001 -0.576,0.384 -1e-6,0.108001 0.044,0.202001 0.132,0.282 0.088,0.076 0.227999,0.114001 0.42,0.114 0.195998,1e-6 0.355998,-0.064 0.48,-0.192 0.127998,-0.131999 0.195998,-0.295999 0.204,-0.492"
         style="font-size:6px;font-weight:bold;fill:#ffffff;font-family:Karla;-inkscape-font-specification:Karla"
         id="path3708"
         inkscape:connector-curvature="0" /><path
         d="m 30.4809,28.676256 c 0.175999,-0.419997 0.439999,-0.629997 0.792,-0.63 0.068,3e-6 0.153998,0.014 0.258,0.042 l -0.012,0.708 c -0.112002,-0.024 -0.222002,-0.036 -0.33,-0.036 -0.472001,3e-6 -0.708001,0.326002 -0.708,0.978 l 0,1.278 -0.708,0 0,-2.922 0.708,0 0,0.582"
         style="font-size:6px;font-weight:bold;fill:#ffffff;font-family:Karla;-inkscape-font-specification:Karla"
         id="path3710"
         inkscape:connector-curvature="0" /><path
         d="m 34.170994,30.566256 c -0.180002,0.356 -0.456002,0.534 -0.828,0.534 -0.372001,0 -0.684001,-0.142 -0.936,-0.426 -0.26,-0.295999 -0.39,-0.671999 -0.39,-1.128 0,-0.455998 0.124,-0.825997 0.372,-1.11 0.243999,-0.275997 0.547999,-0.413997 0.912,-0.414 0.363998,3e-6 0.637998,0.146003 0.822,0.438 l 0,-1.56 0.714,0 0,4.116 -0.582,0 -0.084,-0.45 m -0.738,-1.908 c -0.200001,3e-6 -0.368001,0.082 -0.504,0.246 -0.132001,0.160002 -0.198001,0.376002 -0.198,0.648 -1e-6,0.272002 0.068,0.492001 0.204,0.66 0.135999,0.164001 0.307999,0.246001 0.516,0.246 0.171998,1e-6 0.325998,-0.068 0.462,-0.204 0.139998,-0.139999 0.209998,-0.315999 0.21,-0.528 l 0,-0.378 c -0.008,-0.207998 -0.078,-0.377998 -0.21,-0.51 -0.120002,-0.119997 -0.280002,-0.179997 -0.48,-0.18"
         style="font-size:6px;font-weight:bold;fill:#ffffff;font-family:Karla;-inkscape-font-specification:Karla"
         id="path3712"
         inkscape:connector-curvature="0" /></g></g><g
     id="g6313"
     transform="translate(0,-12.5)" /><g
     id="g6315"
     transform="translate(0,-12.5)" /><g
     id="g6317"
     transform="translate(0,-12.5)" /><g
     id="g6319"
     transform="translate(0,-12.5)" /><g
     id="g6321"
     transform="translate(0,-12.5)" /><g
     id="g6323"
     transform="translate(0,-12.5)" /><g
     id="g6325"
     transform="translate(0,-12.5)" /><g
     id="g6327"
     transform="translate(0,-12.5)" /><g
     id="g6329"
     transform="translate(0,-12.5)" /><g
     id="g6331"
     transform="translate(0,-12.5)" /><g
     id="g6333"
     transform="translate(0,-12.5)" /><g
     id="g6335"
     transform="translate(0,-12.5)" /><g
     id="g6337"
     transform="translate(0,-12.5)" /><g
     id="g6339"
     transform="translate(0,-12.5)" /><g
     id="g6341"
     transform="translate(0,-12.5)" /></svg>