<?xml version="1.0" encoding="UTF-8" standalone="no"?>
<svg
   xmlns:dc="http://purl.org/dc/elements/1.1/"
   xmlns:cc="http://creativecommons.org/ns#"
   xmlns:rdf="http://www.w3.org/1999/02/22-rdf-syntax-ns#"
   xmlns:svg="http://www.w3.org/2000/svg"
   xmlns="http://www.w3.org/2000/svg"
   xmlns:sodipodi="http://sodipodi.sourceforge.net/DTD/sodipodi-0.dtd"
   xmlns:inkscape="http://www.inkscape.org/namespaces/inkscape"
   enable-background="new 0 0 512 512"
   height="166.511"
   id="Calque_1"
   version="1.1"
   viewBox="0 0 229.79799 166.51101"
   width="229.79799"
   xml:space="preserve"
   inkscape:version="0.48.4 r9939"
   sodipodi:docname="cloudC.svg"><metadata
     id="metadata4071"><rdf:RDF><cc:Work
         rdf:about=""><dc:format>image/svg+xml</dc:format><dc:type
           rdf:resource="http://purl.org/dc/dcmitype/StillImage" /><dc:title></dc:title></cc:Work></rdf:RDF></metadata><defs
     id="defs4069"><clipPath
       id="oval"><circle
         sodipodi:ry="141"
         sodipodi:rx="141"
         sodipodi:cy="141"
         sodipodi:cx="141"
         cx="141"
         cy="141"
         r="141"
         id="circle3145" /></clipPath></defs><sodipodi:namedview
     pagecolor="#ffffff"
     bordercolor="#666666"
     borderopacity="1"
     objecttolerance="10"
     gridtolerance="10"
     guidetolerance="10"
     inkscape:pageopacity="0"
     inkscape:pageshadow="2"
     inkscape:window-width="1366"
     inkscape:window-height="710"
     id="namedview4067"
     showgrid="false"
     fit-margin-top="0"
     fit-margin-left="0"
     fit-margin-right="0"
     fit-margin-bottom="0"
     inkscape:zoom="2.2412413"
     inkscape:cx="221.43386"
     inkscape:cy="72.216067"
     inkscape:window-x="0"
     inkscape:window-y="29"
     inkscape:window-maximized="1"
     inkscape:current-layer="g4047"
     units="in"
     inkscape:snap-nodes="false" /><g
     id="g4047"
     transform="translate(-2.3100095,-96.571999)"><path
       d="m 210.136,172.826 c 0.096,-1.39 0.22,-2.774 0.22,-4.185 0,-39.8 -32.27,-72.069001 -72.056,-72.069001 -17.787,0 -34.032,6.470001 -46.601,17.140001 -3.001,-0.496 -6.03,-0.819 -9.155,-0.819 -30.796,0 -55.742,24.966 -55.742,55.749 0,0.867 0.083,1.714 0.11,2.567 -14.689,8.529 -24.602,24.403 -24.602,42.608 0,27.205 22.068,49.266 49.258,49.266 H 182.85 c 27.203,0 49.258,-22.061 49.258,-49.266 0,-17.105 -8.729,-32.167 -21.972,-40.991 z"
       id="path4049"
       style="fill:#cccccc"
       inkscape:connector-curvature="0" /></g><g
     id="g4055"
     transform="translate(-2.3100095,-96.571999)" /><g
     id="g4057"
     transform="translate(-2.3100095,-96.571999)" /><g
     id="g4059"
     transform="translate(-2.3100095,-96.571999)" /><g
     id="g4061"
     transform="translate(-2.3100095,-96.571999)" /><g
     id="g4063"
     transform="translate(-2.3100095,-96.571999)" /><g
     id="g4065"
     transform="translate(-2.3100095,-96.571999)" /></svg>