<?xml version="1.0" encoding="UTF-8" standalone="no"?>
<!-- Generator: Adobe Illustrator 16.0.0, SVG Export Plug-In . SVG Version: 6.00 Build 0)  -->

<svg
   xmlns:dc="http://purl.org/dc/elements/1.1/"
   xmlns:cc="http://creativecommons.org/ns#"
   xmlns:rdf="http://www.w3.org/1999/02/22-rdf-syntax-ns#"
   xmlns:svg="http://www.w3.org/2000/svg"
   xmlns="http://www.w3.org/2000/svg"
   xmlns:sodipodi="http://sodipodi.sourceforge.net/DTD/sodipodi-0.dtd"
   xmlns:inkscape="http://www.inkscape.org/namespaces/inkscape"
   version="1.1"
   id="Layer_1"
   x="0px"
   y="0px"
   width="505.47601"
   height="338.35199"
   viewBox="0 0 505.47601 338.35199"
   enable-background="new 0 0 512 512"
   xml:space="preserve"
   inkscape:version="0.48.4 r9939"
   sodipodi:docname="cloudB.svg"><metadata
     id="metadata9"><rdf:RDF><cc:Work
         rdf:about=""><dc:format>image/svg+xml</dc:format><dc:type
           rdf:resource="http://purl.org/dc/dcmitype/StillImage" /></cc:Work></rdf:RDF></metadata><defs
     id="defs7" /><sodipodi:namedview
     pagecolor="#ffffff"
     bordercolor="#666666"
     borderopacity="1"
     objecttolerance="10"
     gridtolerance="10"
     guidetolerance="10"
     inkscape:pageopacity="0"
     inkscape:pageshadow="2"
     inkscape:window-width="640"
     inkscape:window-height="480"
     id="namedview5"
     showgrid="false"
     fit-margin-top="0"
     fit-margin-left="0"
     fit-margin-right="0"
     fit-margin-bottom="0"
     inkscape:zoom="0.56176758"
     inkscape:cx="252.738"
     inkscape:cy="101.344"
     inkscape:window-x="0"
     inkscape:window-y="29"
     inkscape:window-maximized="0"
     inkscape:current-layer="Layer_1" /><path
     d="M 438.691,123.36 C 434.244,54.488 376.982,0 306.986,0 247.505,0 197.22,39.346 180.722,93.429 c -9.244,-3.5 -19.259,-5.431 -29.729,-5.431 -42.84,0 -78.164,32.08 -83.322,73.523 -0.309,-0.004 -0.614,-0.023 -0.924,-0.023 C 29.884,161.498 0,191.381 0,228.245 c 0,36.864 29.883,66.746 66.747,66.746 4.386,0 8.669,-0.436 12.819,-1.243 20.151,27.069 52.394,44.604 88.734,44.604 31.229,0 59.429,-12.952 79.533,-33.772 15.071,15.091 35.901,24.428 58.913,24.428 31.43,0 58.783,-17.42 72.955,-43.127 11.676,5.824 24.844,9.106 38.777,9.106 48.047,0 86.998,-38.949 86.998,-86.996 0,-41.088 -28.486,-75.518 -66.785,-84.631 z"
     id="path3"
     style="fill:#ffffff"
     inkscape:connector-curvature="0" /></svg>