<?xml version="1.0" encoding="UTF-8" standalone="no"?>
<svg
   xmlns:dc="http://purl.org/dc/elements/1.1/"
   xmlns:cc="http://creativecommons.org/ns#"
   xmlns:rdf="http://www.w3.org/1999/02/22-rdf-syntax-ns#"
   xmlns:svg="http://www.w3.org/2000/svg"
   xmlns="http://www.w3.org/2000/svg"
   xmlns:sodipodi="http://sodipodi.sourceforge.net/DTD/sodipodi-0.dtd"
   xmlns:inkscape="http://www.inkscape.org/namespaces/inkscape"
   enable-background="new 0 0 512 512"
   height="239.937"
   id="Calque_1"
   version="1.1"
   viewBox="0 0 383.836 239.937"
   width="383.836"
   xml:space="preserve"
   inkscape:version="0.48.4 r9939"
   sodipodi:docname="cloudD.svg"><metadata
     id="metadata4071"><rdf:RDF><cc:Work
         rdf:about=""><dc:format>image/svg+xml</dc:format><dc:type
           rdf:resource="http://purl.org/dc/dcmitype/StillImage" /><dc:title></dc:title></cc:Work></rdf:RDF></metadata><defs
     id="defs4069"><clipPath
       id="oval"><circle
         sodipodi:ry="141"
         sodipodi:rx="141"
         sodipodi:cy="141"
         sodipodi:cx="141"
         cx="141"
         cy="141"
         r="141"
         id="circle3145" /></clipPath></defs><sodipodi:namedview
     pagecolor="#ffffff"
     bordercolor="#666666"
     borderopacity="1"
     objecttolerance="10"
     gridtolerance="10"
     guidetolerance="10"
     inkscape:pageopacity="0"
     inkscape:pageshadow="2"
     inkscape:window-width="1366"
     inkscape:window-height="710"
     id="namedview4067"
     showgrid="false"
     fit-margin-top="0"
     fit-margin-left="0"
     fit-margin-right="0"
     fit-margin-bottom="0"
     inkscape:zoom="2.2412413"
     inkscape:cx="221.43386"
     inkscape:cy="124.36148"
     inkscape:window-x="0"
     inkscape:window-y="29"
     inkscape:window-maximized="1"
     inkscape:current-layer="g4047"
     units="in"
     inkscape:snap-nodes="false" /><g
     id="g4047"
     transform="translate(-124.85401,-54.031997)"><path
       d="m 454.559,185.678 h -9.444 c 0.027,-0.758 0.109,-1.501 0.109,-2.279 0,-40.157 -32.544,-72.709 -72.702,-72.709 -8.315,0 -16.286,1.466 -23.721,4.027 -16.603,-35.801001 -52.782,-60.685003 -94.854,-60.685003 -57.793,0 -104.643,46.849003 -104.643,104.642003 0,11.488 1.9,22.509 5.328,32.848 -17.649,8.922 -29.778,27.17 -29.778,48.301 0,29.902 24.257,54.146 54.146,54.146 h 275.559 c 29.888,0 54.131,-24.244 54.131,-54.146 -10e-4,-29.901 -24.244,-54.145 -54.131,-54.145 z"
       id="path4053"
       style="fill:#cccccc"
       inkscape:connector-curvature="0" /></g><g
     id="g4055"
     transform="translate(-124.85401,-54.031997)" /><g
     id="g4057"
     transform="translate(-124.85401,-54.031997)" /><g
     id="g4059"
     transform="translate(-124.85401,-54.031997)" /><g
     id="g4061"
     transform="translate(-124.85401,-54.031997)" /><g
     id="g4063"
     transform="translate(-124.85401,-54.031997)" /><g
     id="g4065"
     transform="translate(-124.85401,-54.031997)" /></svg>