<?xml version="1.0" encoding="UTF-8" standalone="no"?>
<svg
   xmlns:dc="http://purl.org/dc/elements/1.1/"
   xmlns:cc="http://creativecommons.org/ns#"
   xmlns:rdf="http://www.w3.org/1999/02/22-rdf-syntax-ns#"
   xmlns:svg="http://www.w3.org/2000/svg"
   xmlns="http://www.w3.org/2000/svg"
   xmlns:sodipodi="http://sodipodi.sourceforge.net/DTD/sodipodi-0.dtd"
   xmlns:inkscape="http://www.inkscape.org/namespaces/inkscape"
   enable-background="new 0 0 512 512"
   height="298.98239"
   id="Calque_1"
   version="1.1"
   viewBox="0 0 506.37997 298.9824"
   width="506.37997"
   xml:space="preserve"
   inkscape:version="0.48.4 r9939"
   sodipodi:docname="clouds.svg"><metadata
     id="metadata4071"><rdf:RDF><cc:Work
         rdf:about=""><dc:format>image/svg+xml</dc:format><dc:type
           rdf:resource="http://purl.org/dc/dcmitype/StillImage" /><dc:title /></cc:Work></rdf:RDF></metadata><defs
     id="defs4069"><clipPath
       id="oval"><circle
         sodipodi:ry="141"
         sodipodi:rx="141"
         sodipodi:cy="141"
         sodipodi:cx="141"
         cx="141"
         cy="141"
         r="141"
         id="circle3145" /></clipPath></defs><sodipodi:namedview
     pagecolor="#ffffff"
     bordercolor="#666666"
     borderopacity="1"
     objecttolerance="10"
     gridtolerance="10"
     guidetolerance="10"
     inkscape:pageopacity="0"
     inkscape:pageshadow="2"
     inkscape:window-width="1366"
     inkscape:window-height="710"
     id="namedview4067"
     showgrid="false"
     fit-margin-top="0"
     fit-margin-left="0"
     fit-margin-right="0"
     fit-margin-bottom="0"
     inkscape:zoom="5.9883105"
     inkscape:cx="435.34868"
     inkscape:cy="9.7351893"
     inkscape:window-x="0"
     inkscape:window-y="29"
     inkscape:window-maximized="1"
     inkscape:current-layer="page1"
     units="in"
     inkscape:snap-nodes="false" /><g
     id="g4047"
     transform="translate(-2.3100118,-54.031997)"><path
       d="m 210.136,172.826 c 0.096,-1.39 0.22,-2.774 0.22,-4.185 0,-39.8 -32.27,-72.069001 -72.056,-72.069001 -17.787,0 -34.032,6.470001 -46.601,17.140001 -3.001,-0.496 -6.03,-0.819 -9.155,-0.819 -30.796,0 -55.742,24.966 -55.742,55.749 0,0.867 0.083,1.714 0.11,2.567 -14.689,8.529 -24.602,24.403 -24.602,42.608 0,27.205 22.068,49.266 49.258,49.266 H 182.85 c 27.203,0 49.258,-22.061 49.258,-49.266 0,-17.105 -8.729,-32.167 -21.972,-40.991 z"
       id="path4049"
       style="fill:#cccccc"
       inkscape:connector-curvature="0" /><path
       d="m 232.108,213.816 c 0,-17.104 -8.729,-32.166 -21.972,-40.99 0.096,-1.39 0.22,-2.774 0.22,-4.185 0,-31.492 -20.237,-58.199 -48.391,-68.008 -9.789,13.788 -16.396,30.136 -18.544,48.108 -1.363,11.399 -0.771,22.578 1.39,33.247 -18.571,6.76 -32.792,23.438 -35.298,44.412 -1.625,13.436 1.886,26.281 8.893,36.682 h 64.443 c 27.204,0 49.259,-22.061 49.259,-49.266 z"
       id="path4051"
       style="opacity:0.72000002;fill:#999999"
       inkscape:connector-curvature="0" /><g
       transform="matrix(2.6827431,0,0,2.6827431,-745.10718,99.721731)"
       id="page1"><rect
         y="67.917404"
         x="290.86264"
         height="18.996298"
         width="166.84224"
         id="rect4892"
         style="fill:#515b64;fill-opacity:1;stroke:#515b64;stroke-width:15.00370407;stroke-linejoin:round;stroke-miterlimit:2.5;stroke-opacity:1;stroke-dasharray:none" /><rect
         y="69.012756"
         x="333.31216"
         height="17"
         width="79.63485"
         id="rect4894"
         style="fill:#3c444b;fill-opacity:1;stroke:none" /><path
         transform="translate(260.21739,-30.589328)"
         d="m 165.80977,107.94612 c 0,2.01846 -1.63628,3.65474 -3.65474,3.65474 -2.01846,0 -3.65474,-1.63628 -3.65474,-3.65474 0,-2.01846 1.63628,-3.65474 3.65474,-3.65474 2.01846,0 3.65474,1.63628 3.65474,3.65474 z"
         sodipodi:ry="3.6547396"
         sodipodi:rx="3.6547396"
         sodipodi:cy="107.94612"
         sodipodi:cx="162.15503"
         id="path4900"
         style="fill:#b61111;fill-opacity:1;stroke:none"
         sodipodi:type="arc" /><path
         sodipodi:type="arc"
         style="fill:#4abd18;fill-opacity:1;stroke:none"
         id="path4920"
         sodipodi:cx="162.15503"
         sodipodi:cy="107.94612"
         sodipodi:rx="3.6547396"
         sodipodi:ry="3.6547396"
         d="m 165.80977,107.94612 c 0,2.01846 -1.63628,3.65474 -3.65474,3.65474 -2.01846,0 -3.65474,-1.63628 -3.65474,-3.65474 0,-2.01846 1.63628,-3.65474 3.65474,-3.65474 2.01846,0 3.65474,1.63628 3.65474,3.65474 z"
         transform="translate(285.60821,-30.589328)" /><path
         transform="translate(272.52809,-30.589328)"
         d="m 165.80977,107.94612 c 0,2.01846 -1.63628,3.65474 -3.65474,3.65474 -2.01846,0 -3.65474,-1.63628 -3.65474,-3.65474 0,-2.01846 1.63628,-3.65474 3.65474,-3.65474 2.01846,0 3.65474,1.63628 3.65474,3.65474 z"
         sodipodi:ry="3.6547396"
         sodipodi:rx="3.6547396"
         sodipodi:cy="107.94612"
         sodipodi:cx="162.15503"
         id="path4922"
         style="fill:#e2b000;fill-opacity:1;stroke:none"
         sodipodi:type="arc" /><rect
         y="68.700829"
         x="293.3024"
         height="17.696634"
         width="3.4623849"
         id="rect4926"
         style="fill:#3c444b;fill-opacity:1;stroke:none" /><rect
         style="fill:#3c444b;fill-opacity:1;stroke:none"
         id="rect4928"
         width="3.4623849"
         height="17.696634"
         x="320.61676"
         y="68.700829" /><rect
         y="68.700829"
         x="314.07672"
         height="17.696634"
         width="3.4623849"
         id="rect4930"
         style="fill:#3c444b;fill-opacity:1;stroke:none" /><rect
         style="fill:#3c444b;fill-opacity:1;stroke:none"
         id="rect4932"
         width="3.4623849"
         height="17.696634"
         x="306.76724"
         y="68.700829" /><rect
         y="68.700829"
         x="300.22717"
         height="17.696634"
         width="3.4623849"
         id="rect4934"
         style="fill:#3c444b;fill-opacity:1;stroke:none" /></g><path
       d="m 454.559,185.678 h -9.444 c 0.027,-0.758 0.109,-1.501 0.109,-2.279 0,-40.157 -32.544,-72.709 -72.702,-72.709 -8.315,0 -16.286,1.466 -23.721,4.027 -16.603,-35.801001 -52.782,-60.685003 -94.854,-60.685003 -57.793,0 -104.643,46.849003 -104.643,104.642003 0,11.488 1.9,22.509 5.328,32.848 -17.649,8.922 -29.778,27.17 -29.778,48.301 0,29.902 24.257,54.146 54.146,54.146 h 275.559 c 29.888,0 54.131,-24.244 54.131,-54.146 -10e-4,-29.901 -24.244,-54.145 -54.131,-54.145 z"
       id="path4053"
       style="fill:#ececec"
       inkscape:connector-curvature="0" /></g><g
     id="g4055"
     transform="translate(-2.3100118,-54.031997)" /><g
     id="g4057"
     transform="translate(-2.3100118,-54.031997)" /><g
     id="g4059"
     transform="translate(-2.3100118,-54.031997)" /><g
     id="g4061"
     transform="translate(-2.3100118,-54.031997)" /><g
     id="g4063"
     transform="translate(-2.3100118,-54.031997)" /><g
     id="g4065"
     transform="translate(-2.3100118,-54.031997)" /></svg>