<?xml version="1.0" encoding="UTF-8" standalone="no"?>
<!-- Generator: Adobe Illustrator 16.0.4, SVG Export Plug-In . SVG Version: 6.00 Build 0)  -->

<svg
   xmlns:dc="http://purl.org/dc/elements/1.1/"
   xmlns:cc="http://creativecommons.org/ns#"
   xmlns:rdf="http://www.w3.org/1999/02/22-rdf-syntax-ns#"
   xmlns:svg="http://www.w3.org/2000/svg"
   xmlns="http://www.w3.org/2000/svg"
   xmlns:sodipodi="http://sodipodi.sourceforge.net/DTD/sodipodi-0.dtd"
   xmlns:inkscape="http://www.inkscape.org/namespaces/inkscape"
   version="1.1"
   id="Layer_1"
   x="0px"
   y="0px"
   width="495.23895"
   height="531.01355"
   viewBox="85.5 210.272 495.23894 531.01355"
   enable-background="new 85.5 210.272 437.29 491.728"
   xml:space="preserve"
   inkscape:version="0.48.4 r9939"
   sodipodi:docname="css.svg"><metadata
     id="metadata15"><rdf:RDF><cc:Work
         rdf:about=""><dc:format>image/svg+xml</dc:format><dc:type
           rdf:resource="http://purl.org/dc/dcmitype/StillImage" /></cc:Work></rdf:RDF></metadata><defs
     id="defs13" /><sodipodi:namedview
     pagecolor="#ffffff"
     bordercolor="#666666"
     borderopacity="1"
     objecttolerance="10"
     gridtolerance="10"
     guidetolerance="10"
     inkscape:pageopacity="0"
     inkscape:pageshadow="2"
     inkscape:window-width="640"
     inkscape:window-height="480"
     id="namedview11"
     showgrid="false"
     fit-margin-top="0"
     fit-margin-left="0"
     fit-margin-right="0"
     fit-margin-bottom="0"
     inkscape:zoom="0.58492704"
     inkscape:cx="220.3466"
     inkscape:cy="305.8024"
     inkscape:window-x="0"
     inkscape:window-y="29"
     inkscape:window-maximized="0"
     inkscape:current-layer="Layer_1" /><title
     id="title3">CSS3 Logo</title><polygon
     points="305.735,702 128.668,652.845 89.21,210.272 522.79,210.272 483.29,652.775 "
     id="polygon5"
     transform="matrix(0.96592583,0.25881905,-0.25881905,0.96592583,130.18497,-15.924404)"
     style="fill:#1572b6" /><polygon
     points="306,664.375 449.474,624.599 483.229,246.459 306,246.459 "
     id="polygon7"
     transform="matrix(0.96592583,0.25881905,-0.25881905,0.96592583,130.18497,-15.924404)"
     style="fill:#33a9dc" /><path
     d="m 216.22716,311.05553 -14.47199,52.82017 215.31356,57.6931 -9.233,34.14892 -215.45652,-57.7314 -14.33,52.85822 215.31356,57.6931 -16.44937,60.25782 -88.89656,6.97971 -73.0892,-50.38366 7.07149,-26.14773 -52.89893,-14.17422 -17.25178,63.41471 120.88181,83.41791 146.90181,-11.6655 26.0413,-95.38312 5.26961,-19.12168 33.49424,-122.80762 -268.21003,-71.86873 0,0 z"
     id="path9"
     inkscape:connector-curvature="0"
     style="fill:#ffffff" /></svg>