<?xml version="1.0" encoding="UTF-8" standalone="no"?>
<svg
   xmlns:dc="http://purl.org/dc/elements/1.1/"
   xmlns:cc="http://creativecommons.org/ns#"
   xmlns:rdf="http://www.w3.org/1999/02/22-rdf-syntax-ns#"
   xmlns:svg="http://www.w3.org/2000/svg"
   xmlns="http://www.w3.org/2000/svg"
   xmlns:sodipodi="http://sodipodi.sourceforge.net/DTD/sodipodi-0.dtd"
   xmlns:inkscape="http://www.inkscape.org/namespaces/inkscape"
   version="1.1"
   x="0px"
   y="0px"
   width="511.19998"
   height="414.89999"
   viewBox="0 0 511.19999 414.89999"
   xml:space="preserve"
   id="svg2"
   inkscape:version="0.48.4 r9939"
   sodipodi:docname="google__x2B_.svg"><metadata
     id="metadata11"><rdf:RDF><cc:Work
         rdf:about=""><dc:format>image/svg+xml</dc:format><dc:type
           rdf:resource="http://purl.org/dc/dcmitype/StillImage" /><dc:title></dc:title></cc:Work></rdf:RDF></metadata><defs
     id="defs9" /><sodipodi:namedview
     pagecolor="#ffffff"
     bordercolor="#666666"
     borderopacity="1"
     objecttolerance="10"
     gridtolerance="10"
     guidetolerance="10"
     inkscape:pageopacity="0"
     inkscape:pageshadow="2"
     inkscape:window-width="738"
     inkscape:window-height="480"
     id="namedview7"
     showgrid="false"
     units="in"
     fit-margin-top="0"
     fit-margin-left="0"
     fit-margin-right="0"
     fit-margin-bottom="0"
     inkscape:zoom="0.37813129"
     inkscape:cx="632.13077"
     inkscape:cy="207.45"
     inkscape:window-x="0"
     inkscape:window-y="29"
     inkscape:window-maximized="0"
     inkscape:current-layer="svg2" /><g
     id="7935ec95c421cee6d86eb22ecd120bc6"
     transform="matrix(1.0064359,0,0,0.8119358,-2.0470906,-0.40597011)"
     style="fill:#666666;fill-opacity:1"><path
       style="display:inline;fill:#666666;fill-opacity:1"
       d="m 245.271,24.703 c 4.217,2.607 8.945,6.438 14.209,11.453 5.053,5.24 10.018,11.677 14.871,19.312 4.616,7.211 8.746,15.719 12.338,25.538 2.945,9.818 4.417,21.271 4.417,34.37 -0.399,24.003 -5.701,43.216 -15.906,57.612 -5.003,6.986 -10.292,13.424 -15.894,19.325 -6.201,5.901 -12.788,11.889 -19.787,18.002 -4.017,4.142 -7.723,8.833 -11.104,14.085 -4.017,5.452 -6,11.789 -6,18.976 0,6.998 2.046,12.774 6.15,17.354 3.48,4.379 6.887,8.184 10.155,11.465 l 22.768,18.651 c 14.147,11.577 26.561,24.34 37.228,38.313 10.055,14.172 15.27,32.735 15.693,55.653 0,32.512 -14.371,61.317 -43.078,86.418 -29.791,25.962 -72.757,39.398 -128.91,40.271 C 95.413,511.052 60.319,501.034 37.14,481.435 13.736,463.133 2.034,441.239 2.034,415.764 c 0,-12.426 3.805,-26.262 11.428,-41.507 7.373,-15.258 20.759,-28.656 40.109,-40.184 21.72,-12.426 44.588,-20.71 68.491,-24.852 23.678,-3.468 43.353,-5.439 59.022,-5.876 -4.841,-6.35 -9.157,-13.161 -12.938,-20.41 -4.416,-7.023 -6.637,-15.457 -6.637,-25.338 0,-5.938 0.848,-10.866 2.532,-14.821 1.472,-4.166 2.857,-8.009 4.104,-11.502 -7.623,0.873 -14.821,1.31 -21.57,1.31 -35.717,-0.437 -62.952,-11.677 -81.69,-33.721 -19.599,-20.51 -29.405,-44.4 -29.405,-71.685 0,-32.96 13.885,-62.852 41.656,-89.7 C 96.224,21.784 116.06,11.517 136.645,6.713 156.994,2.571 176.082,0.5 193.884,0.5 h 134.225 l -41.457,24.203 h -41.381 z m 25.913,386.331 c 0,-17.029 -5.553,-31.875 -16.668,-44.525 -11.752,-12.002 -30.116,-26.735 -55.117,-44.201 -4.279,-0.437 -9.307,-0.661 -15.07,-0.661 -3.418,-0.449 -12.164,0 -26.286,1.322 -13.898,1.946 -28.095,5.115 -42.629,9.481 -3.418,1.322 -8.234,3.269 -14.421,5.914 -6.201,2.819 -12.5,6.861 -18.913,12.101 -6.201,5.452 -11.428,12.227 -15.707,20.311 -4.915,8.509 -7.385,18.764 -7.385,30.777 0,23.566 10.691,42.979 32.075,58.273 20.298,15.282 48.068,23.13 83.324,23.579 31.625,-0.449 55.778,-7.423 72.446,-20.959 16.253,-13.324 24.351,-30.453 24.351,-51.412 z M 177.628,214.307 c 17.653,-0.661 32.387,-6.999 44.151,-19.025 5.676,-8.533 9.319,-17.279 10.954,-26.261 0.985,-8.958 1.484,-16.493 1.484,-22.618 0,-26.46 -6.774,-53.146 -20.323,-80.056 -6.35,-12.9 -14.684,-23.392 -25.063,-31.476 -10.567,-7.647 -22.718,-11.702 -36.503,-12.139 -18.165,0.437 -33.297,7.76 -45.349,21.982 -10.167,14.87 -15.033,31.488 -14.583,49.852 0,24.277 7.099,49.528 21.296,75.777 6.886,12.251 15.769,22.63 26.635,31.164 10.866,8.533 23.317,12.8 37.301,12.8 z M 509.965,73.794 H 439.529 V 3.369 H 405.408 V 73.794 H 334.97 v 34.121 h 70.438 v 70.437 h 34.121 v -70.437 h 70.436 V 73.794 z"
       id="path5"
       inkscape:connector-curvature="0" /></g></svg>