<?xml version="1.0" encoding="UTF-8" standalone="no"?>
<svg
   xmlns:dc="http://purl.org/dc/elements/1.1/"
   xmlns:cc="http://creativecommons.org/ns#"
   xmlns:rdf="http://www.w3.org/1999/02/22-rdf-syntax-ns#"
   xmlns:svg="http://www.w3.org/2000/svg"
   xmlns="http://www.w3.org/2000/svg"
   xmlns:sodipodi="http://sodipodi.sourceforge.net/DTD/sodipodi-0.dtd"
   xmlns:inkscape="http://www.inkscape.org/namespaces/inkscape"
   height="30"
   viewBox="0 0 120 30"
   width="120"
   id="svg3035"
   version="1.1"
   inkscape:version="0.48.4 r9939"
   sodipodi:docname="hangup.svg"
   style="fill:#000000">
  <metadata
     id="metadata3045">
    <rdf:RDF>
      <cc:Work
         rdf:about="">
        <dc:format>image/svg+xml</dc:format>
        <dc:type
           rdf:resource="http://purl.org/dc/dcmitype/StillImage" />
        <dc:title></dc:title>
      </cc:Work>
    </rdf:RDF>
  </metadata>
  <defs
     id="defs3043" />
  <sodipodi:namedview
     pagecolor="#ffffff"
     bordercolor="#666666"
     borderopacity="1"
     objecttolerance="10"
     gridtolerance="10"
     guidetolerance="10"
     inkscape:pageopacity="0"
     inkscape:pageshadow="2"
     inkscape:window-width="2560"
     inkscape:window-height="1605"
     id="namedview3041"
     showgrid="false"
     fit-margin-top="0"
     fit-margin-left="10"
     fit-margin-right="10"
     fit-margin-bottom="0"
     inkscape:zoom="10"
     inkscape:cx="56.249999"
     inkscape:cy="19.000007"
     inkscape:window-x="0"
     inkscape:window-y="73"
     inkscape:window-maximized="1"
     inkscape:current-layer="svg3035" />
  <path
     sodipodi:type="arc"
     style="fill:#f44336;fill-opacity:1;stroke:none"
     id="path3047"
     sodipodi:cx="-60.900002"
     sodipodi:cy="-20.1"
     sodipodi:rx="14"
     sodipodi:ry="14"
     d="m -46.900002,-20.1 a 14,14 0 1 1 -28,0 14,14 0 1 1 28,0 z"
     transform="matrix(1.0714286,0,0,1.0714286,125.25,36.535716)" />
  <path
     d="M 48,2.9999997 H 72.000001 V 27.000001 H 48 z"
     id="path3037"
     inkscape:connector-curvature="0"
     style="fill:none" />
  <path
     d="m 60.000001,12.000001 c -1.6,0 -3.15,0.25 -4.6,0.72 v 3.1 c 0,0.39 -0.23,0.74 -0.56,0.9 -0.98,0.49 -1.87,1.12 -2.66,1.85 -0.18,0.18 -0.43,0.28 -0.700001,0.28 -0.28,0 -0.53,-0.11 -0.71,-0.29 l -2.48,-2.48 c -0.18,-0.17 -0.29,-0.42 -0.29,-0.7 0,-0.28 0.11,-0.53 0.29,-0.71 3.050001,-2.89 7.170001,-4.67 11.710001,-4.67 4.54,0 8.66,1.78 11.71,4.67 0.18,0.18 0.29,0.43 0.29,0.71 0,0.28 -0.11,0.53 -0.29,0.71 l -2.48,2.48 c -0.18,0.18 -0.43,0.29 -0.71,0.29 -0.27,0 -0.52,-0.11 -0.7,-0.28 -0.79,-0.74 -1.69,-1.36 -2.67,-1.85 -0.33,-0.16 -0.56,-0.5 -0.56,-0.9 v -3.1 c -1.44,-0.48 -2.99,-0.73 -4.59,-0.73 z"
     id="path3039"
     inkscape:connector-curvature="0"
     style="fill:#ffffff" />
  <path
     style="fill:none"
     inkscape:connector-curvature="0"
     d="M 48,2.9999997 H 72 V 27 H 48 z m 0,0 H 72 V 27 H 48 z"
     id="path3915" />
  <path
     transform="matrix(1.0714286,0,0,1.0714286,80.250004,36.535716)"
     d="m -46.900002,-20.1 a 14,14 0 1 1 -28,0 14,14 0 1 1 28,0 z"
     sodipodi:ry="14"
     sodipodi:rx="14"
     sodipodi:cy="-20.1"
     sodipodi:cx="-60.900002"
     id="path3946"
     style="fill:#bfbfbf;fill-opacity:1;stroke:none"
     sodipodi:type="arc" />
  <path
     id="path3948"
     d="m 22.000004,14 h -1.7 c 0,0.74 -0.16,1.43 -0.43,2.05 l 1.23,1.23 c 0.56,-0.98 0.9,-2.09 0.9,-3.28 z m -4.02,0.17 c 0,-0.06 0.02,-0.11 0.02,-0.17 V 7.9999997 c 0,-1.66 -1.34,-3 -3,-3 -1.66,0 -3,1.34 -3,3 v 0.18 l 5.98,5.9900003 z M 7.2700038,5.9999997 l -1.27,1.27 L 12.010004,13.28 V 14 c 0,1.66 1.33,3 2.99,3 0.22,0 0.44,-0.03 0.65,-0.08 l 1.66,1.66 c -0.71,0.33 -1.5,0.52 -2.31,0.52 -2.76,0 -5.3000002,-2.1 -5.3000002,-5.1 h -1.7 c 0,3.41 2.7200002,6.23 6.0000002,6.72 V 24 h 2 v -3.28 c 0.91,-0.13 1.77,-0.45 2.54,-0.9 l 4.19,4.18 1.27,-1.27 L 7.2700038,5.9999997 z"
     inkscape:connector-curvature="0"
     style="fill:#ffffff" />
  <path
     style="fill:none"
     inkscape:connector-curvature="0"
     d="M 48,2.9999997 H 72 V 27 H 48 z m 0,0 H 72 V 27 H 48 z"
     id="path4006" />
  <path
     transform="matrix(1.0714286,0,0,1.0714286,170.25,36.535716)"
     d="m -46.900002,-20.1 a 14,14 0 1 1 -28,0 14,14 0 1 1 28,0 z"
     sodipodi:ry="14"
     sodipodi:rx="14"
     sodipodi:cy="-20.1"
     sodipodi:cx="-60.900002"
     id="path4037"
     style="fill:#bfbfbf;fill-opacity:1;stroke:none"
     sodipodi:type="arc" />
  <path
     id="path4039"
     d="M 114,9.4999997 110,13.5 V 9.9999997 c 0,-0.55 -0.44999,-1 -0.99999,-1 h -6.18 L 114,20.18 V 9.4999997 z m -17.729994,-4.5 -1.27,1.27 2.73,2.73 h -0.73 c -0.55,0 -1,0.45 -1,1 V 20 c 0,0.55 0.45,1 1,1 h 12.000004 c 0.21,0 0.39,-0.08 0.54,-0.18 L 112.73,24 114,22.73 96.270006,4.9999997 z"
     inkscape:connector-curvature="0"
     style="fill:#ffffff" />
</svg>
