<?xml version="1.0" encoding="UTF-8" standalone="no"?>
<!-- Generator: Adobe Illustrator 15.1.0, SVG Export Plug-In . SVG Version: 6.00 Build 0)  -->

<svg
   xmlns:dc="http://purl.org/dc/elements/1.1/"
   xmlns:cc="http://creativecommons.org/ns#"
   xmlns:rdf="http://www.w3.org/1999/02/22-rdf-syntax-ns#"
   xmlns:svg="http://www.w3.org/2000/svg"
   xmlns="http://www.w3.org/2000/svg"
   xmlns:sodipodi="http://sodipodi.sourceforge.net/DTD/sodipodi-0.dtd"
   xmlns:inkscape="http://www.inkscape.org/namespaces/inkscape"
   version="1.0"
   x="0px"
   y="0px"
   width="146.37512"
   height="146.37033"
   viewBox="0 0 146.37512 146.37033"
   enable-background="new 0 0 540 122.523"
   xml:space="preserve"
   id="svg2"
   inkscape:version="0.48.4 r9939"
   sodipodi:docname="html2.svg"><metadata
     id="metadata38"><rdf:RDF><cc:Work
         rdf:about=""><dc:format>image/svg+xml</dc:format><dc:type
           rdf:resource="http://purl.org/dc/dcmitype/StillImage" /></cc:Work></rdf:RDF></metadata><defs
     id="defs36" /><sodipodi:namedview
     pagecolor="#ffffff"
     bordercolor="#666666"
     borderopacity="1"
     objecttolerance="10"
     gridtolerance="10"
     guidetolerance="10"
     inkscape:pageopacity="0"
     inkscape:pageshadow="2"
     inkscape:window-width="1366"
     inkscape:window-height="710"
     id="namedview34"
     showgrid="false"
     fit-margin-top="0"
     fit-margin-left="0"
     fit-margin-right="0"
     fit-margin-bottom="0"
     inkscape:zoom="2.0127377"
     inkscape:cx="168.94557"
     inkscape:cy="73.185167"
     inkscape:window-x="0"
     inkscape:window-y="29"
     inkscape:window-maximized="1"
     inkscape:current-layer="g6" /><g
     id="Layer_1"
     transform="translate(11.924058,11.923665)" /><g
     id="Layer_2"
     transform="translate(11.924058,11.923665)"><g
       id="g6"><path
         sodipodi:type="arc"
         style="color:#000000;fill:#eeeeee;fill-opacity:1;fill-rule:nonzero;stroke:none;stroke-width:5;marker:none;visibility:visible;display:inline;overflow:visible;enable-background:accumulate"
         id="path3031"
         sodipodi:cx="7.9493718"
         sodipodi:cy="17.193829"
         sodipodi:rx="80.487389"
         sodipodi:ry="80.487389"
         d="m 88.43676,17.193829 c 0,44.451957 -36.035431,80.487388 -80.4873882,80.487388 -44.4519568,0 -80.4873888,-36.035431 -80.4873888,-80.487388 0,-44.451958 36.035432,-80.487389 80.4873888,-80.487389 44.4519572,0 80.4873882,36.035431 80.4873882,80.487389 z"
         transform="matrix(0.90930466,0,0,0.90927497,54.035099,45.627584)" /><path
         d="m 24.386392,108.07362 -8.088272,-92.248062 88.97104,0 -8.088269,92.248062 -36.495886,10.42804"
         id="path6"
         inkscape:connector-curvature="0"
         style="fill:#e34f26" /><path
         d="m 60.882276,110.48009 29.393982,-8.22211 6.904633,-79.01247 -36.298615,0"
         id="path8"
         inkscape:connector-curvature="0"
         style="fill:#ef652a" /><path
         d="m 60.882276,57.537722 -14.795622,0 -0.986385,-11.631275 15.782007,0 0,-11.230202 -0.197271,0 -27.815781,7e-6 0.197273,3.008089 2.761842,31.284123 25.053937,0 z m 0,29.479275 -0.197271,0 -12.428333,-3.409169 -0.789097,-9.024267 -5.918254,0 -5.129148,0 1.38092,17.847994 22.883912,6.417259 0.197271,0 z"
         id="path10"
         inkscape:connector-curvature="0"
         style="fill:#ebebeb" /><path
         d="m 60.685005,57.537722 0,11.430742 13.809253,0 -1.380929,14.639364 -12.428324,3.409169 0,11.831817 22.883902,-6.417259 0.197281,-2.005388 2.56457,-29.880356 0.394545,-3.008089 -3.156396,0 z m 0,-22.861477 0,7.018879 0,4.211323 0,0 27.026683,0 0,0 0,0 0.197271,-2.406475 0.591825,-5.815638 0.197273,-3.008082 z"
         id="path12"
         inkscape:connector-curvature="0"
         style="fill:#ffffff" /></g></g></svg>