<?xml version="1.0" encoding="UTF-8" standalone="no"?>
<svg
   xmlns:dc="http://purl.org/dc/elements/1.1/"
   xmlns:cc="http://creativecommons.org/ns#"
   xmlns:rdf="http://www.w3.org/1999/02/22-rdf-syntax-ns#"
   xmlns:svg="http://www.w3.org/2000/svg"
   xmlns="http://www.w3.org/2000/svg"
   xmlns:sodipodi="http://sodipodi.sourceforge.net/DTD/sodipodi-0.dtd"
   xmlns:inkscape="http://www.inkscape.org/namespaces/inkscape"
   viewBox="0 0 515.08635 553.04713"
   id="svg2"
   version="1.1"
   inkscape:version="0.48.4 r9939"
   width="100%"
   height="100%"
   sodipodi:docname="html.svg">
  <metadata
     id="metadata18">
    <rdf:RDF>
      <cc:Work
         rdf:about="">
        <dc:format>image/svg+xml</dc:format>
        <dc:type
           rdf:resource="http://purl.org/dc/dcmitype/StillImage" />
      </cc:Work>
    </rdf:RDF>
  </metadata>
  <defs
     id="defs16" />
  <sodipodi:namedview
     pagecolor="#ffffff"
     bordercolor="#666666"
     borderopacity="1"
     objecttolerance="10"
     gridtolerance="10"
     guidetolerance="10"
     inkscape:pageopacity="0"
     inkscape:pageshadow="2"
     inkscape:window-width="1366"
     inkscape:window-height="710"
     id="namedview14"
     showgrid="false"
     fit-margin-top="0"
     fit-margin-left="0"
     fit-margin-right="0"
     fit-margin-bottom="0"
     inkscape:zoom="0.97589111"
     inkscape:cx="284.57395"
     inkscape:cy="288.3946"
     inkscape:window-x="0"
     inkscape:window-y="29"
     inkscape:window-maximized="1"
     inkscape:current-layer="svg2" />
  <title
     id="title4">HTML5 Logo Badge</title>
  <path
     d="M 158.65972,550.44169 0,116.72739 435.63255,0 l 79.4538,454.93746 -165.23769,98.10967"
     id="path6"
     inkscape:connector-curvature="0"
     style="fill:#e34f26" />
  <path
     d="M 340.46183,514.15128 473.77319,435.98428 405.60589,46.350836 227.87554,93.973541"
     id="path8"
     inkscape:connector-curvature="0"
     style="fill:#ef652a" />
  <path
     d="m 272.1336,259.14686 -72.44444,19.41143 -19.84113,-54.7296 77.27406,-20.70553 -14.49386,-54.09185 -0.96593,0.25882 -136.19554,36.49349 4.84821,14.23007 53.89873,147.06096 122.67258,-32.87002 z m 38.0464,141.9911 -0.96593,0.25882 -65.25325,-0.11514 -15.51056,-42.43139 -28.97777,7.76457 -25.11407,6.7293 29.79637,84.15566 120.32961,0.88662 0.96592,-0.25882 z"
     id="path10"
     inkscape:connector-curvature="0"
     style="fill:#ebebeb" />
  <path
     d="m 271.16767,259.40568 14.75269,55.05777 67.61481,-18.11733 12.13231,72.32432 -56.45341,32.72634 15.27033,56.98962 103.76518,-60.93264 -1.62226,-9.91807 -26.007,-147.2876 -1.95044,-15.00652 -15.45481,4.1411 z m -29.50537,-110.11555 9.05867,33.80741 5.4352,20.28444 0,0 132.33184,-35.45821 0,0 0,0 -2.13991,-11.84993 -4.60797,-28.78831 -2.91636,-14.7477 z"
     id="path12"
     inkscape:connector-curvature="0"
     style="fill:#ffffff" />
</svg>
