<?xml version="1.0" encoding="UTF-8" standalone="no"?>
<svg
   xmlns:dc="http://purl.org/dc/elements/1.1/"
   xmlns:cc="http://creativecommons.org/ns#"
   xmlns:rdf="http://www.w3.org/1999/02/22-rdf-syntax-ns#"
   xmlns:svg="http://www.w3.org/2000/svg"
   xmlns="http://www.w3.org/2000/svg"
   xmlns:sodipodi="http://sodipodi.sourceforge.net/DTD/sodipodi-0.dtd"
   xmlns:inkscape="http://www.inkscape.org/namespaces/inkscape"
   version="1.1"
   x="0px"
   y="0px"
   preserveAspectRatio="xMidYMid meet"
   width="70.84375"
   height="83.360039"
   viewBox="0 0 70.84375 83.360039"
   enable-background="new 0 0 284 284"
   xml:space="preserve"
   id="svg3140"
   inkscape:version="0.48.4 r9939"
   sodipodi:docname="terminal.svg"><metadata
     id="metadata3207"><rdf:RDF><cc:Work
         rdf:about=""><dc:format>image/svg+xml</dc:format><dc:type
           rdf:resource="http://purl.org/dc/dcmitype/StillImage" /><dc:title></dc:title></cc:Work></rdf:RDF></metadata><defs
     id="defs3205"><clipPath
       id="oval"><circle
         id="circle3145"
         r="141"
         cy="141"
         cx="141"
         sodipodi:cx="141"
         sodipodi:cy="141"
         sodipodi:rx="141"
         sodipodi:ry="141" /></clipPath></defs><sodipodi:namedview
     pagecolor="#ffffff"
     bordercolor="#666666"
     borderopacity="1"
     objecttolerance="10"
     gridtolerance="10"
     guidetolerance="10"
     inkscape:pageopacity="0"
     inkscape:pageshadow="2"
     inkscape:window-width="1366"
     inkscape:window-height="710"
     id="namedview3203"
     showgrid="false"
     inkscape:zoom="2.5993644"
     inkscape:cx="17.587108"
     inkscape:cy="33.817673"
     inkscape:window-x="0"
     inkscape:window-y="29"
     inkscape:window-maximized="1"
     inkscape:current-layer="page1"
     fit-margin-top="0"
     fit-margin-left="0"
     fit-margin-right="0"
     fit-margin-bottom="0"
     units="in" /><g
     id="page1"
     transform="translate(-334.65625,-26.25)"><path
       sodipodi:type="arc"
       style="fill:#b3b3b3;stroke:#999999;stroke-width:0;stroke-miterlimit:4;stroke-dasharray:none"
       id="path4549"
       sodipodi:cx="113.16475"
       sodipodi:cy="69.187141"
       sodipodi:rx="9.7931032"
       sodipodi:ry="9.7931032"
       d="m 122.95785,69.187141 c 0,5.408582 -4.38452,9.793104 -9.7931,9.793104 -5.40858,0 -9.7931,-4.384522 -9.7931,-9.793104 0,-5.408581 4.38452,-9.793103 9.7931,-9.793103 5.40858,0 9.7931,4.384522 9.7931,9.793103 z"
       transform="translate(257.1875,-9.8437476)" /><rect
       style="fill:#b3b3b3;fill-opacity:1;stroke:#999999;stroke-width:0;stroke-miterlimit:4;stroke-dasharray:none"
       id="rect4551"
       width="7.616858"
       height="33.7318"
       x="366.54382"
       y="65.872131" /><path
       sodipodi:type="star"
       style="fill:#b3b3b3;fill-opacity:1;stroke:#999999;stroke-width:0;stroke-miterlimit:4;stroke-dasharray:none"
       id="path4553"
       sodipodi:sides="3"
       sodipodi:cx="107.72414"
       sodipodi:cy="129.03389"
       sodipodi:r1="11.216111"
       sodipodi:r2="5.6080561"
       sodipodi:arg1="0.52359878"
       sodipodi:arg2="1.5707963"
       inkscape:flatsided="false"
       inkscape:rounded="0"
       inkscape:randomized="0"
       d="m 117.43757,134.64195 -9.71343,0 -9.713441,0 4.856721,-8.41209 4.85672,-8.41208 4.85672,8.41208 z"
       transform="translate(262.62811,-25.077464)"
       inkscape:transform-center-y="-2.8040275" /><path
       style="fill:none;stroke:#b3b3b3;stroke-width:5;stroke-miterlimit:4;stroke-dasharray:none"
       d="m 357.91324,76.934474 c -4.99779,-3.718649 -8.23532,-9.670717 -8.23532,-16.37895 0,-11.267878 9.13442,-20.402298 20.4023,-20.402298 11.26788,0 20.4023,9.13442 20.4023,20.402298 l 0,0 c 0,6.706177 -3.23554,12.656653 -8.23072,16.375531"
       id="path4569"
       inkscape:connector-curvature="0" /><path
       inkscape:connector-curvature="0"
       id="path4571"
       d="m 351.26542,86.982784 c -7.7285,-5.750453 -12.73495,-14.954625 -12.73495,-25.328117 0,-17.424446 14.1253,-31.549751 31.54975,-31.549751 17.42445,0 31.54975,14.125305 31.54975,31.549751 l 0,0 c 0,10.370313 -5.00338,19.572023 -12.72783,25.32283"
       style="fill:none;stroke:#b3b3b3;stroke-width:7.73191118;stroke-miterlimit:4;stroke-dasharray:none" /></g></svg>