<?xml version="1.0" encoding="UTF-8" standalone="no"?>
<!-- Created with Inkscape (http://www.inkscape.org/) -->

<svg
   xmlns:dc="http://purl.org/dc/elements/1.1/"
   xmlns:cc="http://creativecommons.org/ns#"
   xmlns:rdf="http://www.w3.org/1999/02/22-rdf-syntax-ns#"
   xmlns:svg="http://www.w3.org/2000/svg"
   xmlns="http://www.w3.org/2000/svg"
   xmlns:sodipodi="http://sodipodi.sourceforge.net/DTD/sodipodi-0.dtd"
   xmlns:inkscape="http://www.inkscape.org/namespaces/inkscape"
   width="336.13696"
   height="1052.3623"
   id="svg6878"
   version="1.1"
   inkscape:version="0.48.4 r9939"
   sodipodi:docname="post.svg">
  <defs
     id="defs6880" />
  <sodipodi:namedview
     id="base"
     pagecolor="#ffffff"
     bordercolor="#666666"
     borderopacity="1.0"
     inkscape:pageopacity="0.0"
     inkscape:pageshadow="2"
     inkscape:zoom="1.979899"
     inkscape:cx="-3.5798615"
     inkscape:cy="459.39097"
     inkscape:document-units="px"
     inkscape:current-layer="layer1"
     showgrid="false"
     fit-margin-top="0"
     fit-margin-left="0"
     fit-margin-right="0"
     fit-margin-bottom="0"
     inkscape:window-width="2560"
     inkscape:window-height="1605"
     inkscape:window-x="0"
     inkscape:window-y="73"
     inkscape:window-maximized="1" />
  <metadata
     id="metadata6883">
    <rdf:RDF>
      <cc:Work
         rdf:about="">
        <dc:format>image/svg+xml</dc:format>
        <dc:type
           rdf:resource="http://purl.org/dc/dcmitype/StillImage" />
        <dc:title></dc:title>
      </cc:Work>
    </rdf:RDF>
  </metadata>
  <g
     inkscape:label="Layer 1"
     inkscape:groupmode="layer"
     id="layer1"
     transform="translate(-203.97875,-2.5678411e-5)">
    <rect
       style="fill:#eeeeee;fill-opacity:1;stroke:none"
       id="rect6886"
       width="177.14285"
       height="1005.7144"
       x="283.47583"
       y="46.647888" />
    <path
       sodipodi:type="star"
       style="fill:#eeeeee;fill-opacity:1;stroke:none"
       id="path6888"
       sodipodi:sides="3"
       sodipodi:cx="-380"
       sodipodi:cy="459.50504"
       sodipodi:r1="48.906406"
       sodipodi:r2="24.453203"
       sodipodi:arg1="-1.5707963"
       sodipodi:arg2="-0.52359878"
       inkscape:flatsided="false"
       inkscape:rounded="0"
       inkscape:randomized="0"
       d="m -380,410.59863 21.1771,36.6798 21.17709,36.67981 -42.35419,0 -42.35419,0 21.17709,-36.67981 z"
       inkscape:transform-center-y="-48.517146"
       transform="matrix(3.9681665,0,0,3.9681665,1879.9505,-868.06469)" />
    <path
       transform="matrix(3.9681665,0,0,-3.9681665,1879.9505,1920.4269)"
       inkscape:transform-center-y="48.517137"
       d="m -380,410.59863 21.1771,36.6798 21.17709,36.67981 -42.35419,0 -42.35419,0 21.17709,-36.67981 z"
       inkscape:randomized="0"
       inkscape:rounded="0"
       inkscape:flatsided="false"
       sodipodi:arg2="-0.52359878"
       sodipodi:arg1="-1.5707963"
       sodipodi:r2="24.453203"
       sodipodi:r1="48.906406"
       sodipodi:cy="459.50504"
       sodipodi:cx="-380"
       sodipodi:sides="3"
       id="path6890"
       style="fill:#eeeeee;fill-opacity:1;stroke:none"
       sodipodi:type="star" />
    <rect
       style="fill:#424242;fill-opacity:1;stroke:none"
       id="rect7465"
       width="125.71429"
       height="125.71429"
       x="309.19009"
       y="463.32404" />
    <g
       style="font-size:13.92648602000000047px;font-style:normal;font-variant:normal;font-weight:500;font-stretch:normal;text-align:center;line-height:125%;letter-spacing:0px;word-spacing:0px;text-anchor:middle;fill:#ffffff;fill-opacity:1;stroke:none;font-family:karla;-inkscape-font-specification:karla"
       id="text7467">
      <path
         d="m 328.503,501.59398 c 1.02126,2e-5 1.90637,0.12768 2.65531,0.38298 0.74893,0.23831 1.39573,0.57874 1.94043,1.02128 1.07232,0.86809 1.77019,2.08511 2.09361,3.65106 l -3.21702,0.58723 c -0.27235,-0.86807 -0.69788,-1.56594 -1.27659,-2.09362 -0.56171,-0.54466 -1.26809,-0.817 -2.11915,-0.81702 -1.15745,2e-5 -2.09362,0.48512 -2.80851,1.45532 -0.76596,1.05533 -1.14893,2.51916 -1.14893,4.39149 0,1.85532 0.34042,3.31064 1.02128,4.36595 0.68084,1.0383 1.6085,1.55745 2.78297,1.55745 1.17446,0 2.05956,-0.28085 2.65532,-0.84256 0.59573,-0.57872 0.8936,-1.31914 0.89361,-2.22127 l 3.24255,0 c -10e-6,1.85532 -0.59575,3.29362 -1.78723,4.31489 -1.17448,1.00425 -2.7915,1.50638 -4.85106,1.50638 -2.19575,0 -3.94042,-0.76596 -5.23403,-2.29787 -1.31064,-1.56595 -1.96596,-3.69361 -1.96596,-6.38297 0,-2.72339 0.67234,-4.85105 2.01702,-6.38298 1.29361,-1.46381 2.99573,-2.19572 5.10638,-2.19574"
         style="font-size:25.53189087000000157px;fill:#ffffff"
         id="path7478" />
      <path
         d="m 345.11827,501.59398 c 1.10638,2e-5 2.11914,0.18725 3.0383,0.5617 0.91913,0.35747 1.71062,0.89364 2.37446,1.60851 1.39573,1.49789 2.0936,3.64256 2.09362,6.43404 -2e-5,2.80851 -0.69789,4.97872 -2.09362,6.51063 -1.32767,1.42979 -3.14043,2.14468 -5.43829,2.14468 -2.28085,0 -4.08511,-0.73191 -5.41276,-2.19574 -1.39574,-1.51489 -2.09362,-3.66808 -2.09361,-6.45957 -10e-6,-2.82552 0.69787,-4.98722 2.09361,-6.4851 1.31063,-1.41275 3.1234,-2.11913 5.43829,-2.11915 m 4.39149,8.65531 c -1e-5,-1.90637 -0.40001,-3.37019 -1.2,-4.39148 -0.78299,-1.03829 -1.84682,-1.55743 -3.19149,-1.55745 -1.34468,2e-5 -2.41702,0.51916 -3.21701,1.55745 -0.80001,1.02129 -1.20001,2.48511 -1.2,4.39148 -10e-6,1.88937 0.39999,3.34469 1.2,4.36596 0.79999,1.00425 1.87233,1.50638 3.21701,1.50638 1.34467,0 2.4085,-0.50213 3.19149,-1.50638 0.79999,-1.02127 1.19999,-2.47659 1.2,-4.36596"
         style="font-size:25.53189087000000157px;fill:#ffffff"
         id="path7480" />
      <path
         d="m 359.45683,501.9259 7.30212,11.74467 0,-11.74467 3.01276,0 0,16.57019 -3.06383,0 -7.5319,-12.15318 0,12.15318 -3.01277,0 0,-16.57019 3.29362,0"
         style="font-size:25.53189087000000157px;fill:#ffffff"
         id="path7482" />
      <path
         d="m 377.758,501.9259 7.30213,11.74467 0,-11.74467 3.01276,0 0,16.57019 -3.06383,0 -7.53191,-12.15318 0,12.15318 -3.01276,0 0,-16.57019 3.29361,0"
         style="font-size:25.53189087000000157px;fill:#ffffff"
         id="path7484" />
      <path
         d="m 399.17407,501.59398 c 1.10638,2e-5 2.11914,0.18725 3.0383,0.5617 0.91913,0.35747 1.71062,0.89364 2.37446,1.60851 1.39573,1.49789 2.0936,3.64256 2.09362,6.43404 -2e-5,2.80851 -0.69789,4.97872 -2.09362,6.51063 -1.32767,1.42979 -3.14043,2.14468 -5.43829,2.14468 -2.28085,0 -4.08511,-0.73191 -5.41276,-2.19574 -1.39574,-1.51489 -2.09362,-3.66808 -2.09361,-6.45957 -1e-5,-2.82552 0.69787,-4.98722 2.09361,-6.4851 1.31063,-1.41275 3.1234,-2.11913 5.43829,-2.11915 m 4.39149,8.65531 c -1e-5,-1.90637 -0.40001,-3.37019 -1.2,-4.39148 -0.78299,-1.03829 -1.84682,-1.55743 -3.19149,-1.55745 -1.34468,2e-5 -2.41702,0.51916 -3.21702,1.55745 -0.8,1.02129 -1.2,2.48511 -1.19999,4.39148 -1e-5,1.88937 0.39999,3.34469 1.19999,4.36596 0.8,1.00425 1.87234,1.50638 3.21702,1.50638 1.34467,0 2.4085,-0.50213 3.19149,-1.50638 0.79999,-1.02127 1.19999,-2.47659 1.2,-4.36596"
         style="font-size:25.53189087000000157px;fill:#ffffff"
         id="path7486" />
      <path
         d="m 422.57645,507.00674 c -2e-5,1.17448 -0.33193,2.17873 -0.99574,3.01277 -0.66385,0.83405 -1.61704,1.41277 -2.85958,1.73616 l 4.44255,6.74042 -3.93191,0 -3.65106,-6.45956 -2.29787,0 0,6.45956 -3.01276,0 0,-16.57019 6.12765,0 c 1.95744,10e-6 3.48084,0.4681 4.57021,1.40425 1.07233,0.90214 1.60849,2.12767 1.60851,3.67659 m -6.45957,3.01277 c 1.10637,0 1.94041,-0.2468 2.50213,-0.74043 0.56169,-0.51063 0.84254,-1.17446 0.84255,-1.99149 -1e-5,-0.83403 -0.25533,-1.49785 -0.76596,-1.99148 -0.51065,-0.51063 -1.2766,-0.76595 -2.29787,-0.76596 l -3.11489,0 0,5.48936 2.83404,0"
         style="font-size:25.53189087000000157px;fill:#ffffff"
         id="path7488" />
      <path
         d="m 332.26696,547.78117 c -0.71491,1.99149 -2.08512,2.98723 -4.11064,2.98723 -2.0766,0 -3.78723,-0.78297 -5.13191,-2.34893 -1.39574,-1.61702 -2.09361,-3.6851 -2.09361,-6.20425 0,-2.65531 0.74893,-4.78296 2.2468,-6.38297 1.44681,-1.54892 3.31063,-2.32339 5.59149,-2.3234 1.54892,10e-6 2.84254,0.34044 3.88084,1.02127 1.05531,0.66385 1.88084,1.71916 2.4766,3.16596 l -3.08936,0.71489 c -0.90214,-1.4468 -2.04256,-2.1702 -3.42127,-2.17021 -1.25958,10e-6 -2.30639,0.53618 -3.14043,1.60851 -0.86809,1.08937 -1.30213,2.54469 -1.30212,4.36595 -1e-5,1.71915 0.39148,3.1149 1.17446,4.18723 0.76595,1.05532 1.78723,1.58298 3.06383,1.58298 1.08935,0 1.98297,-0.34894 2.68085,-1.04681 0.71488,-0.71489 1.07233,-1.69361 1.07234,-2.93617 l 0,-0.10212 -3.72766,-0.0766 0,-1.94042 6.61276,0 0,8.52765 -2.45106,0 -0.33191,-2.62979"
         style="font-size:25.53189087000000157px;fill:#ffffff"
         id="path7490" />
      <path
         d="m 342.16655,533.84076 0,10.31488 c -10e-6,1.36171 0.34042,2.34043 1.02127,2.93617 0.69787,0.59575 1.59148,0.89362 2.68085,0.89362 1.08935,0 1.97446,-0.29787 2.65532,-0.89362 0.69786,-0.59574 1.04679,-1.57446 1.04681,-2.93617 l 0,-10.31488 3.01276,0 0,10.31488 c -2e-5,2.11064 -0.58725,3.74468 -1.7617,4.90213 -1.17448,1.14042 -2.82554,1.71063 -4.95319,1.71063 -2.12766,0 -3.77872,-0.57021 -4.95318,-1.71063 -1.17447,-1.15745 -1.76171,-2.79149 -1.7617,-4.90213 l 0,-10.31488 3.01276,0"
         style="font-size:25.53189087000000157px;fill:#ffffff"
         id="path7492" />
      <path
         d="m 354.79087,533.84076 13.27659,0 0,2.60425 -5.13191,0 0,13.96595 -3.01277,0 0,-13.96595 -5.13191,0 0,-2.60425"
         style="font-size:25.53189087000000157px;fill:#ffffff"
         id="path7494" />
      <path
         d="m 374.89085,533.84076 4.54468,9.85531 4.54468,-9.85531 4.16169,0 0,16.5702 -3.03829,0 0,-12.58722 -4.69787,10.77445 -1.96595,0 -4.85106,-11.1319 0,12.94467 -3.01277,0 0,-16.5702 4.31489,0"
         style="font-size:25.53189087000000157px;fill:#ffffff"
         id="path7496" />
      <path
         d="m 396.69629,533.84076 3.77872,0 5.43829,16.5702 -3.19149,0 -1.14893,-3.57447 -6.15319,0 -1.17447,3.57447 -3.19148,0 5.64255,-16.5702 m -0.51064,10.72339 4.6468,0 -2.29787,-7.12339 -2.34893,7.12339"
         style="font-size:25.53189087000000157px;fill:#ffffff"
         id="path7498" />
      <path
         d="m 412.11635,533.84076 7.30212,11.74467 0,-11.74467 3.01277,0 0,16.5702 -3.06383,0 -7.53191,-12.15318 0,12.15318 -3.01276,0 0,-16.5702 3.29361,0"
         style="font-size:25.53189087000000157px;fill:#ffffff"
         id="path7500" />
    </g>
  </g>
</svg>
