<?xml version="1.0" encoding="UTF-8" standalone="no"?>
<svg
   xmlns:dc="http://purl.org/dc/elements/1.1/"
   xmlns:cc="http://creativecommons.org/ns#"
   xmlns:rdf="http://www.w3.org/1999/02/22-rdf-syntax-ns#"
   xmlns:svg="http://www.w3.org/2000/svg"
   xmlns="http://www.w3.org/2000/svg"
   xmlns:sodipodi="http://sodipodi.sourceforge.net/DTD/sodipodi-0.dtd"
   xmlns:inkscape="http://www.inkscape.org/namespaces/inkscape"
   version="1.1"
   x="0px"
   y="0px"
   preserveAspectRatio="xMidYMid meet"
   width="181.84375"
   height="34"
   viewBox="0 0 181.84375 34.000001"
   enable-background="new 0 0 284 284"
   xml:space="preserve"
   id="svg3140"
   inkscape:version="0.48.4 r9939"
   sodipodi:docname="files.svg"><metadata
     id="metadata3207"><rdf:RDF><cc:Work
         rdf:about=""><dc:format>image/svg+xml</dc:format><dc:type
           rdf:resource="http://purl.org/dc/dcmitype/StillImage" /><dc:title></dc:title></cc:Work></rdf:RDF></metadata><defs
     id="defs3205"><clipPath
       id="oval"><circle
         id="circle3145"
         r="141"
         cy="141"
         cx="141"
         sodipodi:cx="141"
         sodipodi:cy="141"
         sodipodi:rx="141"
         sodipodi:ry="141" /></clipPath></defs><sodipodi:namedview
     pagecolor="#ffffff"
     bordercolor="#666666"
     borderopacity="1"
     objecttolerance="10"
     gridtolerance="10"
     guidetolerance="10"
     inkscape:pageopacity="0"
     inkscape:pageshadow="2"
     inkscape:window-width="1366"
     inkscape:window-height="710"
     id="namedview3203"
     showgrid="false"
     inkscape:zoom="2.5993644"
     inkscape:cx="79.519936"
     inkscape:cy="-20.403873"
     inkscape:window-x="0"
     inkscape:window-y="29"
     inkscape:window-maximized="1"
     inkscape:current-layer="page1"
     fit-margin-top="0"
     fit-margin-left="0"
     fit-margin-right="0"
     fit-margin-bottom="0"
     units="in" /><g
     id="page1"
     transform="translate(-283.375,-60.40625)"><rect
       style="fill:#515b64;fill-opacity:1;stroke:#515b64;stroke-width:15.00370407;stroke-linejoin:round;stroke-miterlimit:2.5;stroke-opacity:1;stroke-dasharray:none"
       id="rect4892"
       width="166.84224"
       height="18.996298"
       x="290.86264"
       y="67.917404" /><rect
       style="fill:#3c444b;fill-opacity:1;stroke:none"
       id="rect4894"
       width="79.63485"
       height="17"
       x="333.31216"
       y="69.012756" /><path
       sodipodi:type="arc"
       style="fill:#b61111;fill-opacity:1;stroke:none"
       id="path4900"
       sodipodi:cx="162.15503"
       sodipodi:cy="107.94612"
       sodipodi:rx="3.6547396"
       sodipodi:ry="3.6547396"
       d="m 165.80977,107.94612 c 0,2.01846 -1.63628,3.65474 -3.65474,3.65474 -2.01846,0 -3.65474,-1.63628 -3.65474,-3.65474 0,-2.01846 1.63628,-3.65474 3.65474,-3.65474 2.01846,0 3.65474,1.63628 3.65474,3.65474 z"
       transform="translate(260.21739,-30.589328)" /><path
       transform="translate(285.60821,-30.589328)"
       d="m 165.80977,107.94612 c 0,2.01846 -1.63628,3.65474 -3.65474,3.65474 -2.01846,0 -3.65474,-1.63628 -3.65474,-3.65474 0,-2.01846 1.63628,-3.65474 3.65474,-3.65474 2.01846,0 3.65474,1.63628 3.65474,3.65474 z"
       sodipodi:ry="3.6547396"
       sodipodi:rx="3.6547396"
       sodipodi:cy="107.94612"
       sodipodi:cx="162.15503"
       id="path4920"
       style="fill:#4abd18;fill-opacity:1;stroke:none"
       sodipodi:type="arc" /><path
       sodipodi:type="arc"
       style="fill:#e2b000;fill-opacity:1;stroke:none"
       id="path4922"
       sodipodi:cx="162.15503"
       sodipodi:cy="107.94612"
       sodipodi:rx="3.6547396"
       sodipodi:ry="3.6547396"
       d="m 165.80977,107.94612 c 0,2.01846 -1.63628,3.65474 -3.65474,3.65474 -2.01846,0 -3.65474,-1.63628 -3.65474,-3.65474 0,-2.01846 1.63628,-3.65474 3.65474,-3.65474 2.01846,0 3.65474,1.63628 3.65474,3.65474 z"
       transform="translate(272.52809,-30.589328)" /><rect
       style="fill:#3c444b;fill-opacity:1;stroke:none"
       id="rect4926"
       width="3.4623849"
       height="17.696634"
       x="293.3024"
       y="68.700829" /><rect
       y="68.700829"
       x="320.61676"
       height="17.696634"
       width="3.4623849"
       id="rect4928"
       style="fill:#3c444b;fill-opacity:1;stroke:none" /><rect
       style="fill:#3c444b;fill-opacity:1;stroke:none"
       id="rect4930"
       width="3.4623849"
       height="17.696634"
       x="314.07672"
       y="68.700829" /><rect
       y="68.700829"
       x="306.76724"
       height="17.696634"
       width="3.4623849"
       id="rect4932"
       style="fill:#3c444b;fill-opacity:1;stroke:none" /><rect
       style="fill:#3c444b;fill-opacity:1;stroke:none"
       id="rect4934"
       width="3.4623849"
       height="17.696634"
       x="300.22717"
       y="68.700829" /></g></svg>