<?xml version="1.0" encoding="UTF-8" standalone="no"?>
<!-- Generator: Adobe Illustrator 16.0.0, SVG Export Plug-In . SVG Version: 6.00 Build 0)  -->

<svg
   xmlns:dc="http://purl.org/dc/elements/1.1/"
   xmlns:cc="http://creativecommons.org/ns#"
   xmlns:rdf="http://www.w3.org/1999/02/22-rdf-syntax-ns#"
   xmlns:svg="http://www.w3.org/2000/svg"
   xmlns="http://www.w3.org/2000/svg"
   xmlns:sodipodi="http://sodipodi.sourceforge.net/DTD/sodipodi-0.dtd"
   xmlns:inkscape="http://www.inkscape.org/namespaces/inkscape"
   version="1.1"
   id="Capa_1"
   x="0px"
   y="0px"
   width="512"
   height="353.59317"
   viewBox="0 0 30.932 21.362"
   xml:space="preserve"
   inkscape:version="0.48.4 r9939"
   sodipodi:docname="shipA.svg"><metadata
     id="metadata4147"><rdf:RDF><cc:Work
         rdf:about=""><dc:format>image/svg+xml</dc:format><dc:type
           rdf:resource="http://purl.org/dc/dcmitype/StillImage" /></cc:Work></rdf:RDF></metadata><defs
     id="defs4145" /><sodipodi:namedview
     pagecolor="#ffffff"
     bordercolor="#666666"
     borderopacity="1"
     objecttolerance="10"
     gridtolerance="10"
     guidetolerance="10"
     inkscape:pageopacity="0"
     inkscape:pageshadow="2"
     inkscape:window-width="705"
     inkscape:window-height="481"
     id="namedview4143"
     showgrid="false"
     fit-margin-top="0"
     fit-margin-left="0"
     fit-margin-right="0"
     fit-margin-bottom="0"
     inkscape:zoom="0.4609375"
     inkscape:cx="256"
     inkscape:cy="176.79659"
     inkscape:window-x="0"
     inkscape:window-y="73"
     inkscape:window-maximized="0"
     inkscape:current-layer="Capa_1" /><g
     id="g4073"
     transform="matrix(-1,0,0,1,30.932,-4.785)"><g
       id="g4075"><g
         id="g4077"><path
           d="m 19.382,17.562 -0.005,1.053 v 0.012 H 0.532 v 1.725 c 0,0 2.318,5.694 2.332,5.795 0.729,-0.66 2.291,-1.679 4.262,-0.649 0.892,0.465 1.96,0.463 2.849,-0.009 0.83,-0.44 1.987,-0.693 3.333,0.01 0.893,0.466 1.959,0.462 2.849,-0.01 0.83,-0.44 1.988,-0.692 3.333,0.011 0.893,0.466 1.957,0.462 2.848,-0.011 0.998,-0.528 2.47,-0.785 4.174,0.563 l 4.42,-8.489 h -11.55 l 0,-10e-4 z"
           id="path4079"
           inkscape:connector-curvature="0"
           style="fill:#767676" /></g><g
         id="g4081"><path
           d="M 1.596,18.094 H 6.92 v -6.92 L 8.244,10.109 H 4.258 V 8.564 H 5.635 V 7.943 H 4.258 V 4.785 H 3.726 V 7.944 H 2.35 v 0.621 h 1.376 v 1.544 H 0 v 1.065 h 1.597 l -10e-4,6.92 0,0 z m 2.631,-6.153 h 1.732 v 1.59 H 4.227 v -1.59 z m 0,2.548 h 1.732 v 1.589 H 4.227 v -1.589 z"
           id="path4083"
           inkscape:connector-curvature="0"
           style="fill:#767676" /></g><g
         id="g4085"><rect
           x="7.8520002"
           y="13.531"
           width="10.958"
           height="4.5630002"
           id="rect4087"
           style="fill:#767676" /></g><g
         id="g4089"><rect
           x="19.379999"
           y="12.431"
           width="10.959"
           height="4.5630002"
           id="rect4091"
           style="fill:#767676" /></g><g
         id="g4093"><rect
           x="14.867"
           y="8.3999996"
           width="3.9460001"
           height="4.5630002"
           id="rect4095"
           style="fill:#767676" /></g><g
         id="g4097"><rect
           x="10.175"
           y="10.404"
           width="3.9460001"
           height="2.5599999"
           id="rect4099"
           style="fill:#767676" /></g><g
         id="g4101"><rect
           x="10.175"
           y="7.276"
           width="3.9460001"
           height="2.5599999"
           id="rect4103"
           style="fill:#767676" /></g><g
         id="g4105"><rect
           x="19.379999"
           y="6.1760001"
           width="3.944"
           height="2.5599999"
           id="rect4107"
           style="fill:#767676" /></g><g
         id="g4109"><rect
           x="19.379999"
           y="9.3039999"
           width="8.4160004"
           height="2.5599999"
           id="rect4111"
           style="fill:#767676" /></g></g></g><g
     id="g4113"
     transform="matrix(-1,0,0,1,30.932,-4.785)" /><g
     id="g4115"
     transform="matrix(-1,0,0,1,30.932,-4.785)" /><g
     id="g4117"
     transform="matrix(-1,0,0,1,30.932,-4.785)" /><g
     id="g4119"
     transform="matrix(-1,0,0,1,30.932,-4.785)" /><g
     id="g4121"
     transform="matrix(-1,0,0,1,30.932,-4.785)" /><g
     id="g4123"
     transform="matrix(-1,0,0,1,30.932,-4.785)" /><g
     id="g4125"
     transform="matrix(-1,0,0,1,30.932,-4.785)" /><g
     id="g4127"
     transform="matrix(-1,0,0,1,30.932,-4.785)" /><g
     id="g4129"
     transform="matrix(-1,0,0,1,30.932,-4.785)" /><g
     id="g4131"
     transform="matrix(-1,0,0,1,30.932,-4.785)" /><g
     id="g4133"
     transform="matrix(-1,0,0,1,30.932,-4.785)" /><g
     id="g4135"
     transform="matrix(-1,0,0,1,30.932,-4.785)" /><g
     id="g4137"
     transform="matrix(-1,0,0,1,30.932,-4.785)" /><g
     id="g4139"
     transform="matrix(-1,0,0,1,30.932,-4.785)" /><g
     id="g4141"
     transform="matrix(-1,0,0,1,30.932,-4.785)" /></svg>