<?xml version="1.0" encoding="UTF-8" standalone="no"?>
<!-- Generator: Adobe Illustrator 19.0.0, SVG Export Plug-In . SVG Version: 6.00 Build 0)  -->

<svg
   xmlns:dc="http://purl.org/dc/elements/1.1/"
   xmlns:cc="http://creativecommons.org/ns#"
   xmlns:rdf="http://www.w3.org/1999/02/22-rdf-syntax-ns#"
   xmlns:svg="http://www.w3.org/2000/svg"
   xmlns="http://www.w3.org/2000/svg"
   xmlns:sodipodi="http://sodipodi.sourceforge.net/DTD/sodipodi-0.dtd"
   xmlns:inkscape="http://www.inkscape.org/namespaces/inkscape"
   version="1.1"
   id="Capa_1"
   x="0px"
   y="0px"
   viewBox="0 0 1394.5682 230"
   xml:space="preserve"
   inkscape:version="0.48.4 r9939"
   width="100%"
   height="100%"
   sodipodi:docname="subway.svg"><metadata
     id="metadata6277"><rdf:RDF><cc:Work
         rdf:about=""><dc:format>image/svg+xml</dc:format><dc:type
           rdf:resource="http://purl.org/dc/dcmitype/StillImage" /></cc:Work></rdf:RDF></metadata><defs
     id="defs6275" /><sodipodi:namedview
     pagecolor="#ffffff"
     bordercolor="#666666"
     borderopacity="1"
     objecttolerance="10"
     gridtolerance="10"
     guidetolerance="10"
     inkscape:pageopacity="0"
     inkscape:pageshadow="2"
     inkscape:window-width="2560"
     inkscape:window-height="1605"
     id="namedview6273"
     showgrid="false"
     inkscape:zoom="0.53636364"
     inkscape:cx="1299.8035"
     inkscape:cy="69.666313"
     inkscape:window-x="0"
     inkscape:window-y="73"
     inkscape:window-maximized="1"
     inkscape:current-layer="XMLID_1757_"
     fit-margin-top="0"
     fit-margin-left="0"
     fit-margin-right="0"
     fit-margin-bottom="0" /><g
     id="XMLID_1757_"
     transform="matrix(-1,0,0,1,440,-105)"><rect
       id="XMLID_1758_"
       y="275"
       style="fill:#dedde0"
       width="1197.7238"
       height="30"
       x="-856.71613" /><polygon
       id="XMLID_1759_"
       style="fill:#dedde0"
       points="0,105 0,145 70,145 140,145 210,145 210,105 "
       transform="matrix(5.6869117,0,0,1,-855.55084,0)" /><polygon
       id="XMLID_1760_"
       style="fill:#dedde0"
       points="0,215 0,245 210,245 210,215 140,215 70,215 "
       transform="matrix(5.6838518,0,0,1,-853.91949,0)" /><polygon
       id="XMLID_1761_"
       style="fill:#cdcdd0"
       points="280,145 280,145.002 340.001,145.002 410.001,215.002 280,215.002 280,215 210,215 210,245 440,245 300,105 210,105 210,145 "
       transform="matrix(0.44473102,0,0,1,244.31835,0)" /><rect
       id="XMLID_1762_"
       x="337.71185"
       y="275"
       style="fill:#cdcdd0"
       width="102.28813"
       height="30" /><polygon
       id="XMLID_1763_"
       style="fill:#565659"
       points="340.001,145.002 280,145.002 280,215 280,215.002 410.001,215.002 "
       transform="matrix(0.44473102,0,0,1,244.31835,0)" /><rect
       id="XMLID_1764_"
       y="245"
       style="fill:#ff5023"
       width="212.96625"
       height="30"
       x="127.71186" /><rect
       id="XMLID_1765_"
       x="337.71185"
       y="245"
       style="fill:#bf3c1a"
       width="102.28813"
       height="30" /><polygon
       id="XMLID_1766_"
       style="fill:#565659"
       points="0,305 0,335 440,335 440,305 210,305 "
       transform="matrix(3.1694727,0,0,1,-954.56799,0)" /><rect
       id="XMLID_1767_"
       y="145"
       style="fill:#acabb1"
       width="70"
       height="70"
       x="127.71186" /><rect
       id="XMLID_1768_"
       x="267.71185"
       y="145"
       style="fill:#acabb1"
       width="71.977501"
       height="70" /><rect
       id="XMLID_1769_"
       x="197.71187"
       y="145"
       style="fill:#ffffff"
       width="70"
       height="70" /><polygon
       id="XMLID_1770_"
       style="fill:#ffffff"
       points="210,145 210,215 280,215 280,145.002 280,145 "
       transform="matrix(0.44473102,0,0,1,244.31835,0)" /><rect
       height="70"
       width="70"
       style="fill:#ffffff"
       y="145"
       x="57.711861"
       id="rect6283" /><rect
       x="-12.288138"
       height="70"
       width="70"
       style="fill:#acabb1"
       y="145"
       id="rect6285" /><rect
       id="rect6287"
       x="-82.288139"
       y="145"
       style="fill:#ffffff"
       width="70"
       height="70" /><rect
       id="rect6289"
       y="145"
       style="fill:#acabb1"
       width="70"
       height="70"
       x="-152.28813" /><rect
       height="70"
       width="70"
       style="fill:#ffffff"
       y="145"
       x="-222.28813"
       id="rect6293" /><rect
       x="-292.28815"
       height="70"
       width="70"
       style="fill:#acabb1"
       y="145"
       id="rect6295" /><rect
       id="rect6297"
       x="-362.28815"
       y="145"
       style="fill:#ffffff"
       width="70"
       height="70" /><rect
       id="rect6299"
       y="145"
       style="fill:#acabb1"
       width="70"
       height="70"
       x="-432.28815" /><rect
       height="70"
       width="70"
       style="fill:#ffffff"
       y="145"
       x="-502.38812"
       id="rect6301" /><rect
       x="-572.28815"
       height="70"
       width="70"
       style="fill:#acabb1"
       y="145"
       id="rect6303" /><rect
       id="rect6305"
       x="-642.28815"
       y="145"
       style="fill:#ffffff"
       width="70"
       height="70" /><rect
       id="rect6307"
       y="145"
       style="fill:#acabb1"
       width="70"
       height="70"
       x="-712.28815" /><rect
       height="70"
       width="70"
       style="fill:#ffffff"
       y="145"
       x="-782.28815"
       id="rect6311" /><rect
       x="-712.28815"
       height="70"
       width="70"
       style="fill:#acabb1"
       y="145"
       id="rect6313" /><rect
       height="30"
       width="210"
       style="fill:#bf3c1a"
       y="245"
       x="-82.288139"
       id="rect6317" /><rect
       x="-292.28815"
       height="30"
       width="210"
       style="fill:#ff5023"
       y="245"
       id="rect6319" /><rect
       id="rect6321"
       x="-502.28815"
       y="245"
       style="fill:#bf3c1a"
       width="210"
       height="30" /><rect
       id="rect6323"
       y="245"
       style="fill:#ff5023"
       width="210"
       height="30"
       x="-712.28815" /><rect
       height="30"
       width="143.26271"
       style="fill:#bf3c1a"
       y="245"
       x="-855.55084"
       id="rect6325" /><rect
       id="rect6327"
       y="145"
       style="fill:#ffffff;fill-opacity:1"
       width="70"
       height="70"
       x="-782.28802" /><rect
       x="-852.28802"
       height="70"
       width="70"
       style="fill:#acabb1;fill-opacity:1"
       y="145"
       id="rect6329" /><g
       id="g6852"
       transform="matrix(0.75,0,0,0.75,46.702193,111.4722)"><path
         transform="matrix(-0.70561182,0,0,0.70561182,383.72244,-29.188624)"
         d="m -28.673779,68.229622 c 0,15.654067 -12.690128,28.344196 -28.344196,28.344196 -15.654067,0 -28.344196,-12.690129 -28.344196,-28.344196 0,-15.654067 12.690129,-28.344196 28.344196,-28.344196 15.654068,0 28.344196,12.690129 28.344196,28.344196 z"
         sodipodi:ry="28.344196"
         sodipodi:rx="28.344196"
         sodipodi:cy="68.229622"
         sodipodi:cx="-57.017975"
         id="path6335"
         style="fill:#ffbb00;fill-opacity:1;stroke:none"
         sodipodi:type="arc" /><g
         id="text6331"
         style="font-size:10px;font-style:normal;font-variant:normal;font-weight:bold;font-stretch:normal;text-align:start;line-height:125%;letter-spacing:0px;word-spacing:0px;writing-mode:lr-tb;text-anchor:start;fill:#ffffff;fill-opacity:1;stroke:none;font-family:Montserrat;-inkscape-font-specification:Montserrat Bold"
         transform="scale(-0.9350134,1.0695034)"><path
           id="path6846"
           style="line-height:125%;letter-spacing:1.5px;fill:#ffffff;font-family:Montserrat;-inkscape-font-specification:Montserrat Bold"
           d="m -467.17161,18.248182 1.24,-4.02 1.63,0 1.23,4.02 1.39,-4.02 1.69,0 -2.44,6.99 -1.16,0 -1.53,-4.86 -1.52,4.86 -1.16,0 -2.44,-6.99 1.69,0 1.38,4.02"
           inkscape:connector-curvature="0" /><path
           id="path6848"
           style="line-height:125%;letter-spacing:1.5px;fill:#ffffff;font-family:Montserrat;-inkscape-font-specification:Montserrat Bold"
           d="m -455.4763,18.248182 1.24,-4.02 1.63,0 1.23,4.02 1.39,-4.02 1.69,0 -2.44,6.99 -1.16,0 -1.53,-4.86 -1.52,4.86 -1.16,0 -2.44,-6.99 1.69,0 1.38,4.02"
           inkscape:connector-curvature="0" /><path
           id="path6850"
           style="line-height:125%;letter-spacing:1.5px;fill:#ffffff;font-family:Montserrat;-inkscape-font-specification:Montserrat Bold"
           d="m -443.78098,18.248182 1.24,-4.02 1.63,0 1.23,4.02 1.39,-4.02 1.69,0 -2.44,6.99 -1.16,0 -1.53,-4.86 -1.52,4.86 -1.16,0 -2.44,-6.99 1.69,0 1.38,4.02"
           inkscape:connector-curvature="0" /></g></g><polygon
       transform="matrix(0.44472719,0,0,1,-976.80367,0)"
       points="280,215 280,145.002 280,145 210,145 210,215 "
       style="fill:#ffffff"
       id="polygon7427" /><polygon
       transform="matrix(-0.44473102,0,0,1,-758.88654,0)"
       points="340.001,145.002 410.001,215.002 280,215.002 280,215 210,215 210,245 440,245 300,105 210,105 210,145 280,145 280,145.002 "
       style="fill:#cdcdd0"
       id="polygon7441" /><rect
       height="30"
       width="102.28813"
       style="fill:#cdcdd0"
       y="275"
       x="-954.56818"
       id="rect7443" /><polygon
       transform="matrix(-0.44473102,0,0,1,-758.88637,0)"
       points="410.001,215.002 340.001,145.002 280,145.002 280,215 280,215.002 "
       style="fill:#565659"
       id="polygon7445" /><rect
       height="30"
       width="102.28813"
       style="fill:#bf3c1a"
       y="245"
       x="-954.56818"
       id="rect7447" /><g
       transform="matrix(0.75,0,0,0.75,-1197.5344,111.4722)"
       id="g7451"><path
         sodipodi:type="arc"
         style="fill:#ffbb00;fill-opacity:1;stroke:none"
         id="path7453"
         sodipodi:cx="-57.017975"
         sodipodi:cy="68.229622"
         sodipodi:rx="28.344196"
         sodipodi:ry="28.344196"
         d="m -28.673779,68.229622 c 0,15.654067 -12.690128,28.344196 -28.344196,28.344196 -15.654067,0 -28.344196,-12.690129 -28.344196,-28.344196 0,-15.654067 12.690129,-28.344196 28.344196,-28.344196 15.654068,0 28.344196,12.690129 28.344196,28.344196 z"
         transform="matrix(-0.70561182,0,0,0.70561182,383.72244,-29.188624)" /><g
         transform="scale(-0.9350134,1.0695034)"
         style="font-size:10px;font-style:normal;font-variant:normal;font-weight:bold;font-stretch:normal;text-align:start;line-height:125%;letter-spacing:0px;word-spacing:0px;writing-mode:lr-tb;text-anchor:start;fill:#ffffff;fill-opacity:1;stroke:none;font-family:Montserrat;-inkscape-font-specification:Montserrat Bold"
         id="g7455"><path
           inkscape:connector-curvature="0"
           d="m -467.17161,18.248182 1.24,-4.02 1.63,0 1.23,4.02 1.39,-4.02 1.69,0 -2.44,6.99 -1.16,0 -1.53,-4.86 -1.52,4.86 -1.16,0 -2.44,-6.99 1.69,0 1.38,4.02"
           style="line-height:125%;letter-spacing:1.5px;fill:#ffffff;font-family:Montserrat;-inkscape-font-specification:Montserrat Bold"
           id="path7457" /><path
           inkscape:connector-curvature="0"
           d="m -455.4763,18.248182 1.24,-4.02 1.63,0 1.23,4.02 1.39,-4.02 1.69,0 -2.44,6.99 -1.16,0 -1.53,-4.86 -1.52,4.86 -1.16,0 -2.44,-6.99 1.69,0 1.38,4.02"
           style="line-height:125%;letter-spacing:1.5px;fill:#ffffff;font-family:Montserrat;-inkscape-font-specification:Montserrat Bold"
           id="path7459" /><path
           inkscape:connector-curvature="0"
           d="m -443.78098,18.248182 1.24,-4.02 1.63,0 1.23,4.02 1.39,-4.02 1.69,0 -2.44,6.99 -1.16,0 -1.53,-4.86 -1.52,4.86 -1.16,0 -2.44,-6.99 1.69,0 1.38,4.02"
           style="line-height:125%;letter-spacing:1.5px;fill:#ffffff;font-family:Montserrat;-inkscape-font-specification:Montserrat Bold"
           id="path7461" /></g></g></g><g
     id="g6243"
     transform="matrix(-1,0,0,1,440,-105)" /><g
     id="g6245"
     transform="matrix(-1,0,0,1,440,-105)" /><g
     id="g6247"
     transform="matrix(-1,0,0,1,440,-105)" /><g
     id="g6249"
     transform="matrix(-1,0,0,1,440,-105)" /><g
     id="g6251"
     transform="matrix(-1,0,0,1,440,-105)" /><g
     id="g6253"
     transform="matrix(-1,0,0,1,440,-105)" /><g
     id="g6255"
     transform="matrix(-1,0,0,1,440,-105)" /><g
     id="g6257"
     transform="matrix(-1,0,0,1,440,-105)" /><g
     id="g6259"
     transform="matrix(-1,0,0,1,440,-105)" /><g
     id="g6261"
     transform="matrix(-1,0,0,1,440,-105)" /><g
     id="g6263"
     transform="matrix(-1,0,0,1,440,-105)" /><g
     id="g6265"
     transform="matrix(-1,0,0,1,440,-105)" /><g
     id="g6267"
     transform="matrix(-1,0,0,1,440,-105)" /><g
     id="g6269"
     transform="matrix(-1,0,0,1,440,-105)" /><g
     id="g6271"
     transform="matrix(-1,0,0,1,440,-105)" /></svg>