<?xml version="1.0" encoding="UTF-8" standalone="no"?>
<!-- Created with Inkscape (http://www.inkscape.org/) -->

<svg
   xmlns:dc="http://purl.org/dc/elements/1.1/"
   xmlns:cc="http://creativecommons.org/ns#"
   xmlns:rdf="http://www.w3.org/1999/02/22-rdf-syntax-ns#"
   xmlns:svg="http://www.w3.org/2000/svg"
   xmlns="http://www.w3.org/2000/svg"
   xmlns:sodipodi="http://sodipodi.sourceforge.net/DTD/sodipodi-0.dtd"
   xmlns:inkscape="http://www.inkscape.org/namespaces/inkscape"
   width="700"
   height="416.55301"
   id="svg7502"
   version="1.1"
   inkscape:version="0.48.4 r9939"
   sodipodi:docname="subway-sign.svg">
  <defs
     id="defs7504" />
  <sodipodi:namedview
     id="base"
     pagecolor="#ffffff"
     bordercolor="#666666"
     borderopacity="1.0"
     inkscape:pageopacity="0.0"
     inkscape:pageshadow="2"
     inkscape:zoom="1.3742857"
     inkscape:cx="350"
     inkscape:cy="167"
     inkscape:document-units="px"
     inkscape:current-layer="layer1"
     showgrid="false"
     fit-margin-top="0"
     fit-margin-left="0"
     fit-margin-right="0"
     fit-margin-bottom="0"
     inkscape:window-width="2560"
     inkscape:window-height="1605"
     inkscape:window-x="0"
     inkscape:window-y="73"
     inkscape:window-maximized="1" />
  <metadata
     id="metadata7507">
    <rdf:RDF>
      <cc:Work
         rdf:about="">
        <dc:format>image/svg+xml</dc:format>
        <dc:type
           rdf:resource="http://purl.org/dc/dcmitype/StillImage" />
        <dc:title></dc:title>
      </cc:Work>
    </rdf:RDF>
  </metadata>
  <g
     inkscape:label="Layer 1"
     inkscape:groupmode="layer"
     id="layer1"
     transform="translate(-32.702354,-99.609001)">
    <rect
       style="fill:#eeeeee;fill-opacity:1;stroke:none"
       id="rect7510"
       width="700"
       height="290"
       x="32.702354"
       y="226.16202" />
    <g
       transform="matrix(-3.1743661,0,0,3.1743661,1491.978,310.9919)"
       id="g7451">
      <path
         sodipodi:type="arc"
         style="fill:#ffbb00;fill-opacity:1;stroke:none"
         id="path7453"
         sodipodi:cx="-57.017975"
         sodipodi:cy="68.229622"
         sodipodi:rx="28.344196"
         sodipodi:ry="28.344196"
         d="m -28.673779,68.229622 c 0,15.654067 -12.690128,28.344196 -28.344196,28.344196 -15.654067,0 -28.344196,-12.690129 -28.344196,-28.344196 0,-15.654067 12.690129,-28.344196 28.344196,-28.344196 15.654068,0 28.344196,12.690129 28.344196,28.344196 z"
         transform="matrix(-0.70561182,0,0,0.70561182,383.72244,-29.188624)" />
      <g
         transform="scale(-0.9350134,1.0695034)"
         style="font-size:10px;font-style:normal;font-variant:normal;font-weight:bold;font-stretch:normal;text-align:start;line-height:125%;letter-spacing:0px;word-spacing:0px;writing-mode:lr-tb;text-anchor:start;fill:#ffffff;fill-opacity:1;stroke:none;font-family:Montserrat;-inkscape-font-specification:Montserrat Bold"
         id="g7455">
        <path
           inkscape:connector-curvature="0"
           d="m -467.17161,18.248182 1.24,-4.02 1.63,0 1.23,4.02 1.39,-4.02 1.69,0 -2.44,6.99 -1.16,0 -1.53,-4.86 -1.52,4.86 -1.16,0 -2.44,-6.99 1.69,0 1.38,4.02"
           style="line-height:125%;letter-spacing:1.5px;fill:#ffffff;font-family:Montserrat;-inkscape-font-specification:Montserrat Bold"
           id="path7457" />
        <path
           inkscape:connector-curvature="0"
           d="m -455.4763,18.248182 1.24,-4.02 1.63,0 1.23,4.02 1.39,-4.02 1.69,0 -2.44,6.99 -1.16,0 -1.53,-4.86 -1.52,4.86 -1.16,0 -2.44,-6.99 1.69,0 1.38,4.02"
           style="line-height:125%;letter-spacing:1.5px;fill:#ffffff;font-family:Montserrat;-inkscape-font-specification:Montserrat Bold"
           id="path7459" />
        <path
           inkscape:connector-curvature="0"
           d="m -443.78098,18.248182 1.24,-4.02 1.63,0 1.23,4.02 1.39,-4.02 1.69,0 -2.44,6.99 -1.16,0 -1.53,-4.86 -1.52,4.86 -1.16,0 -2.44,-6.99 1.69,0 1.38,4.02"
           style="line-height:125%;letter-spacing:1.5px;fill:#ffffff;font-family:Montserrat;-inkscape-font-specification:Montserrat Bold"
           id="path7461" />
      </g>
    </g>
    <rect
       style="fill:#eeeeee;fill-opacity:1;stroke:none"
       id="rect7545"
       width="25"
       height="239.66736"
       x="82.702354"
       y="71.958275" />
    <g
       style="font-size:12px;font-style:normal;font-variant:normal;font-weight:500;font-stretch:normal;line-height:125%;letter-spacing:0px;word-spacing:0px;fill:#373a3c;fill-opacity:1;stroke:none;font-family:karla;-inkscape-font-specification:karla"
       id="text7549"
       transform="translate(0,-68)">
      <path
         d="m 254.76683,386.63403 29.12,0 0,5.712 -11.256,0 0,30.632 -6.608,0 0,-30.632 -11.256,0 0,-5.712"
         style="font-size:56px;fill:#373a3c;fill-opacity:1"
         id="path7603"
         inkscape:connector-curvature="0" />
      <path
         d="m 294.94421,395.03403 c 1.82931,3e-5 3.54664,0.29869 5.152,0.896 1.60531,0.56002 2.98664,1.43736 4.144,2.632 2.57597,2.61335 3.86397,6.23468 3.864,10.864 -3e-5,4.55467 -1.28803,8.13867 -3.864,10.752 -2.31469,2.38933 -5.41336,3.584 -9.296,3.584 -3.88268,0 -7.01868,-1.19467 -9.408,-3.584 -2.57601,-2.576 -3.86401,-6.15999 -3.864,-10.752 -1e-5,-4.66665 1.28799,-8.28798 3.864,-10.864 2.35199,-2.35198 5.48798,-3.52797 9.408,-3.528 m 6.552,14.336 c -3e-5,-2.87465 -0.56002,-5.02132 -1.68,-6.44 -1.12002,-1.45598 -2.68802,-2.18398 -4.704,-2.184 -1.97868,2e-5 -3.60268,0.72802 -4.872,2.184 -1.26935,1.41868 -1.90401,3.56535 -1.904,6.44 -10e-6,2.87467 0.55999,5.04001 1.68,6.496 1.15732,1.41867 2.72532,2.128 4.704,2.128 1.97865,0 3.60264,-0.70933 4.872,-2.128 1.26931,-1.45599 1.90397,-3.62133 1.904,-6.496"
         style="font-size:56px;fill:#373a3c;fill-opacity:1"
         id="path7605"
         inkscape:connector-curvature="0" />
      <path
         d="m 351.18571,386.24203 0,23.016 6.328,0 0,5.656 -6.328,0 0,8.064 -6.552,0 0,-8.064 -18.424,0 0,-4.984 18.592,-23.688 6.384,0 m -17.136,23.688 10.92,0 0,-13.888 -10.92,13.888"
         style="font-size:56px;fill:#373a3c;fill-opacity:1"
         id="path7607"
         inkscape:connector-curvature="0" />
      <path
         d="m 376.03308,385.90603 c 2.23998,3e-5 4.27465,0.39203 6.104,1.176 1.86664,0.7467 3.45331,1.90403 4.76,3.472 2.8373,3.32269 4.25597,8.08269 4.256,14.28 -3e-5,6.19734 -1.4187,10.95734 -4.256,14.28 -2.61336,3.09866 -6.21602,4.648 -10.808,4.648 -4.62934,0 -8.26934,-1.54934 -10.92,-4.648 -2.8,-3.248 -4.2,-8.00799 -4.2,-14.28 0,-6.27198 1.4,-11.03197 4.2,-14.28 2.65066,-3.09863 6.27199,-4.64797 10.864,-4.648 m 8.288,18.928 c -2e-5,-4.18131 -0.72802,-7.37331 -2.184,-9.576 -1.41869,-2.23997 -3.45335,-3.35997 -6.104,-3.36 -2.61335,3e-5 -4.64801,1.12003 -6.104,3.36 -1.41867,2.20269 -2.12801,5.39469 -2.128,9.576 -1e-5,4.18134 0.70933,7.37334 2.128,9.576 1.45599,2.16534 3.49065,3.248 6.104,3.248 2.65065,0 4.68531,-1.08266 6.104,-3.248 1.45598,-2.20266 2.18398,-5.39466 2.184,-9.576"
         style="font-size:56px;fill:#373a3c;fill-opacity:1"
         id="path7609"
         inkscape:connector-curvature="0" />
      <path
         d="m 419.98258,386.24203 0,23.016 6.328,0 0,5.656 -6.328,0 0,8.064 -6.552,0 0,-8.064 -18.424,0 0,-4.984 18.592,-23.688 6.384,0 m -17.136,23.688 10.92,0 0,-13.888 -10.92,13.888"
         style="font-size:56px;fill:#373a3c;fill-opacity:1"
         id="path7611"
         inkscape:connector-curvature="0" />
      <path
         d="m 446.56071,386.63403 6.608,0 0,36.344 -6.608,0 0,-36.344"
         style="font-size:56px;fill:#373a3c;fill-opacity:1"
         id="path7613"
         inkscape:connector-curvature="0" />
      <path
         d="m 467.31921,414.69003 c 0.0747,2.576 1.95999,3.864 5.656,3.864 1.41865,0 2.57598,-0.29866 3.472,-0.896 0.93331,-0.63466 1.39998,-1.36266 1.4,-2.184 -2e-5,-0.82133 -0.28002,-1.45599 -0.84,-1.904 -0.56002,-0.44799 -1.43735,-0.85866 -2.632,-1.232 l -5.936,-2.128 c -4.40534,-1.53066 -6.60801,-4.03199 -6.608,-7.504 -10e-6,-2.31465 1.02666,-4.16264 3.08,-5.544 2.09065,-1.41864 4.87199,-2.12797 8.344,-2.128 3.50931,3e-5 6.19731,0.76536 8.064,2.296 1.90397,1.53069 2.8933,3.45335 2.968,5.768 l -6.216,0 c -0.0747,-0.89598 -0.50402,-1.60531 -1.288,-2.128 -0.78402,-0.52265 -1.90402,-0.78398 -3.36,-0.784 -1.45602,2e-5 -2.59468,0.29869 -3.416,0.896 -0.78401,0.56002 -1.17601,1.21335 -1.176,1.96 -10e-6,1.30668 1.10132,2.27735 3.304,2.912 l 6.44,2.408 c 2.12797,0.70934 3.75197,1.62401 4.872,2.744 1.1573,1.08267 1.73597,2.50134 1.736,4.256 -3e-5,2.24 -1.06403,4.18133 -3.192,5.824 -2.20269,1.71733 -5.11469,2.576 -8.736,2.576 -3.62135,0 -6.53334,-0.784 -8.736,-2.352 -2.20267,-1.60533 -3.32267,-3.84533 -3.36,-6.72 l 6.16,0"
         style="font-size:56px;fill:#373a3c;fill-opacity:1"
         id="path7615"
         inkscape:connector-curvature="0" />
      <path
         d="m 493.15446,384.56203 6.608,0 0,38.416 -6.608,0 0,-38.416"
         style="font-size:56px;fill:#373a3c;fill-opacity:1"
         id="path7617"
         inkscape:connector-curvature="0" />
      <path
         d="m 519.17696,407.07403 c 2.16531,1e-5 4.66664,0.35468 7.504,1.064 l 0,-2.688 c -2e-5,-1.90398 -0.39202,-3.30398 -1.176,-4.2 -0.74669,-0.93331 -1.99735,-1.39998 -3.752,-1.4 -1.71735,2e-5 -3.04268,0.35469 -3.976,1.064 -0.93335,0.67202 -1.40001,1.64268 -1.4,2.912 l -7.224,0 c -1e-5,-3.09865 1.08266,-5.33864 3.248,-6.72 2.20265,-1.38131 5.26398,-2.07197 9.184,-2.072 5.59997,3e-5 9.2213,1.96002 10.864,5.88 0.55997,1.34402 0.83997,2.93068 0.84,4.76 l 0,17.304 -5.768,0 -0.504,-3.64 c -1.75469,2.94933 -4.44269,4.424 -8.064,4.424 -3.50935,0 -6.23468,-0.85867 -8.176,-2.576 -1.79201,-1.64267 -2.68801,-3.71466 -2.688,-6.216 -10e-6,-2.53866 0.98933,-4.47999 2.968,-5.824 1.97866,-1.38132 4.68532,-2.07199 8.12,-2.072 m 7.504,5.264 c -2.20269,-0.59732 -4.25602,-0.89599 -6.16,-0.896 -3.58402,1e-5 -5.37601,1.19467 -5.376,3.584 -10e-6,1.008 0.41065,1.88534 1.232,2.632 0.82132,0.70934 2.12798,1.064 3.92,1.064 1.82931,0 3.32264,-0.59733 4.48,-1.792 1.19464,-1.232 1.82931,-2.76266 1.904,-4.592"
         style="font-size:56px;fill:#373a3c;fill-opacity:1"
         id="path7619"
         inkscape:connector-curvature="0" />
      <path
         d="m 549.41608,400.46603 c 1.79199,-3.62131 4.66665,-5.43197 8.624,-5.432 3.35998,3e-5 5.87998,1.10136 7.56,3.304 1.71731,2.20269 2.57597,5.11468 2.576,8.736 l 0,15.904 -6.608,0 0,-15.904 c -2e-5,-2.01598 -0.48535,-3.52798 -1.456,-4.536 -0.97069,-1.04531 -2.33335,-1.56798 -4.088,-1.568 -1.75468,2e-5 -3.26668,0.78402 -4.536,2.352 -1.23201,1.56802 -1.88534,3.92001 -1.96,7.056 l 0,12.6 -6.608,0 0,-27.216 5.768,0 0.728,4.704"
         style="font-size:56px;fill:#373a3c;fill-opacity:1"
         id="path7621"
         inkscape:connector-curvature="0" />
      <path
         d="m 595.56271,418.77803 c -1.68002,3.32266 -4.25602,4.984 -7.728,4.984 -3.47201,0 -6.38401,-1.32534 -8.736,-3.976 -2.42667,-2.76266 -3.64001,-6.27199 -3.64,-10.528 -10e-6,-4.25598 1.15733,-7.70931 3.472,-10.36 2.27732,-2.57598 5.11465,-3.86397 8.512,-3.864 3.39731,3e-5 5.95464,1.36269 7.672,4.088 l 0,-14.56 6.664,0 0,38.416 -5.432,0 -0.784,-4.2 m -6.888,-17.808 c -1.86668,2e-5 -3.43468,0.76535 -4.704,2.296 -1.23201,1.49335 -1.84801,3.50935 -1.848,6.048 -10e-6,2.53868 0.63465,4.59201 1.904,6.16 1.26932,1.53067 2.87465,2.296 4.816,2.296 1.60531,0 3.04264,-0.63466 4.312,-1.904 1.30664,-1.30666 1.95997,-2.94933 1.96,-4.928 l 0,-3.528 c -0.0747,-1.94132 -0.72802,-3.52798 -1.96,-4.76 -1.12002,-1.11998 -2.61335,-1.67998 -4.48,-1.68"
         style="font-size:56px;fill:#373a3c;fill-opacity:1"
         id="path7623"
         inkscape:connector-curvature="0" />
      <path
         d="m 262.71883,465.76203 6.216,20.664 6.272,-20.664 7.616,0 -10.136,27.216 -7.448,0 -10.136,-27.216 7.616,0"
         style="font-size:56px;fill:#373a3c;fill-opacity:1"
         id="path7625"
         inkscape:connector-curvature="0" />
      <path
         d="m 289.29258,465.70603 6.608,0 0,27.272 -6.608,0 0,-27.272 m -0.784,-8.736 c 0,-1.19463 0.35466,-2.12796 1.064,-2.8 0.70933,-0.7093 1.71733,-1.06396 3.024,-1.064 1.26932,4e-5 2.25866,0.3547 2.968,1.064 0.74666,0.67204 1.11999,1.60537 1.12,2.8 -10e-6,1.1947 -0.37334,2.1467 -1.12,2.856 -0.70934,0.67203 -1.69868,1.00803 -2.968,1.008 -1.30667,3e-5 -2.31467,-0.33597 -3.024,-1.008 -0.70934,-0.7093 -1.064,-1.6613 -1.064,-2.856"
         style="font-size:56px;fill:#373a3c;fill-opacity:1"
         id="path7627"
         inkscape:connector-curvature="0" />
      <path
         d="m 316.06758,477.07403 c 2.16532,1e-5 4.66665,0.35468 7.504,1.064 l 0,-2.688 c -2e-5,-1.90398 -0.39202,-3.30398 -1.176,-4.2 -0.74668,-0.93331 -1.99735,-1.39998 -3.752,-1.4 -1.71735,2e-5 -3.04268,0.35469 -3.976,1.064 -0.93334,0.67202 -1.40001,1.64268 -1.4,2.912 l -7.224,0 c 0,-3.09865 1.08266,-5.33864 3.248,-6.72 2.20266,-1.38131 5.26399,-2.07197 9.184,-2.072 5.59998,3e-5 9.22131,1.96002 10.864,5.88 0.55997,1.34402 0.83997,2.93068 0.84,4.76 l 0,17.304 -5.768,0 -0.504,-3.64 c -1.75469,2.94933 -4.44268,4.424 -8.064,4.424 -3.50934,0 -6.23467,-0.85867 -8.176,-2.576 -1.792,-1.64267 -2.688,-3.71466 -2.688,-6.216 0,-2.53866 0.98933,-4.47999 2.968,-5.824 1.97866,-1.38132 4.68532,-2.07199 8.12,-2.072 m 7.504,5.264 c -2.20268,-0.59732 -4.25602,-0.89599 -6.16,-0.896 -3.58401,1e-5 -5.37601,1.19467 -5.376,3.584 -10e-6,1.008 0.41066,1.88534 1.232,2.632 0.82132,0.70934 2.12799,1.064 3.92,1.064 1.82932,0 3.32265,-0.59733 4.48,-1.792 1.19465,-1.232 1.82931,-2.76266 1.904,-4.592"
         style="font-size:56px;fill:#373a3c;fill-opacity:1"
         id="path7629"
         inkscape:connector-curvature="0" />
      <path
         d="m 354.02946,454.56203 6.608,0 0,38.416 -6.608,0 0,-38.416"
         style="font-size:56px;fill:#373a3c;fill-opacity:1"
         id="path7631"
         inkscape:connector-curvature="0" />
      <path
         d="m 381.78796,465.03403 c 1.82931,3e-5 3.54664,0.29869 5.152,0.896 1.60531,0.56002 2.98664,1.43736 4.144,2.632 2.57597,2.61335 3.86397,6.23468 3.864,10.864 -3e-5,4.55467 -1.28803,8.13867 -3.864,10.752 -2.31469,2.38933 -5.41336,3.584 -9.296,3.584 -3.88268,0 -7.01868,-1.19467 -9.408,-3.584 -2.57601,-2.576 -3.86401,-6.15999 -3.864,-10.752 -1e-5,-4.66665 1.28799,-8.28798 3.864,-10.864 2.35199,-2.35198 5.48798,-3.52797 9.408,-3.528 m 6.552,14.336 c -3e-5,-2.87465 -0.56002,-5.02132 -1.68,-6.44 -1.12002,-1.45598 -2.68802,-2.18398 -4.704,-2.184 -1.97868,2e-5 -3.60268,0.72802 -4.872,2.184 -1.26935,1.41868 -1.90401,3.56535 -1.904,6.44 -10e-6,2.87467 0.55999,5.04001 1.68,6.496 1.15732,1.41867 2.72532,2.128 4.704,2.128 1.97865,0 3.60264,-0.70933 4.872,-2.128 1.26931,-1.45599 1.90397,-3.62133 1.904,-6.496"
         style="font-size:56px;fill:#373a3c;fill-opacity:1"
         id="path7633"
         inkscape:connector-curvature="0" />
      <path
         d="m 406.50671,484.69003 c 0.0747,2.576 1.95999,3.864 5.656,3.864 1.41865,0 2.57598,-0.29866 3.472,-0.896 0.93331,-0.63466 1.39998,-1.36266 1.4,-2.184 -2e-5,-0.82133 -0.28002,-1.45599 -0.84,-1.904 -0.56002,-0.44799 -1.43735,-0.85866 -2.632,-1.232 l -5.936,-2.128 c -4.40534,-1.53066 -6.60801,-4.03199 -6.608,-7.504 -10e-6,-2.31465 1.02666,-4.16264 3.08,-5.544 2.09065,-1.41864 4.87199,-2.12797 8.344,-2.128 3.50931,3e-5 6.19731,0.76536 8.064,2.296 1.90397,1.53069 2.8933,3.45335 2.968,5.768 l -6.216,0 c -0.0747,-0.89598 -0.50402,-1.60531 -1.288,-2.128 -0.78402,-0.52265 -1.90402,-0.78398 -3.36,-0.784 -1.45602,2e-5 -2.59468,0.29869 -3.416,0.896 -0.78401,0.56002 -1.17601,1.21335 -1.176,1.96 -10e-6,1.30668 1.10132,2.27735 3.304,2.912 l 6.44,2.408 c 2.12797,0.70934 3.75197,1.62401 4.872,2.744 1.1573,1.08267 1.73597,2.50134 1.736,4.256 -3e-5,2.24 -1.06403,4.18133 -3.192,5.824 -2.20269,1.71733 -5.11469,2.576 -8.736,2.576 -3.62135,0 -6.53334,-0.784 -8.736,-2.352 -2.20267,-1.60533 -3.32267,-3.84533 -3.36,-6.72 l 6.16,0"
         style="font-size:56px;fill:#373a3c;fill-opacity:1"
         id="path7635"
         inkscape:connector-curvature="0" />
      <path
         d="m 447.68596,492.30603 c -2.46402,0.97066 -4.40535,1.456 -5.824,1.456 -1.41868,0 -2.66935,-0.168 -3.752,-0.504 -1.04535,-0.336 -1.97868,-0.84 -2.8,-1.512 -1.71734,-1.53067 -2.57601,-3.64 -2.576,-6.328 l 0,-15.232 -3.808,0 0,-4.424 3.808,0 0,-7.168 6.608,0 0,7.168 7.392,0 0,4.424 -7.392,0 0,15.008 c -2e-5,2.24 1.06398,3.36 3.192,3.36 1.08265,0 2.48265,-0.29866 4.2,-0.896 l 0.952,4.648"
         style="font-size:56px;fill:#373a3c;fill-opacity:1"
         id="path7637"
         inkscape:connector-curvature="0" />
      <path
         d="m 483.99846,492.30603 c -2.46402,0.97066 -4.40535,1.456 -5.824,1.456 -1.41868,0 -2.66935,-0.168 -3.752,-0.504 -1.04535,-0.336 -1.97868,-0.84 -2.8,-1.512 -1.71734,-1.53067 -2.57601,-3.64 -2.576,-6.328 l 0,-15.232 -3.808,0 0,-4.424 3.808,0 0,-7.168 6.608,0 0,7.168 7.392,0 0,4.424 -7.392,0 0,15.008 c -2e-5,2.24 1.06398,3.36 3.192,3.36 1.08265,0 2.48265,-0.29866 4.2,-0.896 l 0.952,4.648"
         style="font-size:56px;fill:#373a3c;fill-opacity:1"
         id="path7639"
         inkscape:connector-curvature="0" />
      <path
         d="m 497.35621,471.13803 c 1.64265,-3.91998 4.10665,-5.87997 7.392,-5.88 0.63464,3e-5 1.43731,0.13069 2.408,0.392 l -0.112,6.608 c -1.04536,-0.22398 -2.07202,-0.33598 -3.08,-0.336 -4.40535,2e-5 -6.60801,3.04268 -6.608,9.128 l 0,11.928 -6.608,0 0,-27.272 6.608,0 0,5.432"
         style="font-size:56px;fill:#373a3c;fill-opacity:1"
         id="path7641"
         inkscape:connector-curvature="0" />
      <path
         d="m 523.00508,477.07403 c 2.16532,1e-5 4.66665,0.35468 7.504,1.064 l 0,-2.688 c -2e-5,-1.90398 -0.39202,-3.30398 -1.176,-4.2 -0.74668,-0.93331 -1.99735,-1.39998 -3.752,-1.4 -1.71735,2e-5 -3.04268,0.35469 -3.976,1.064 -0.93334,0.67202 -1.40001,1.64268 -1.4,2.912 l -7.224,0 c 0,-3.09865 1.08266,-5.33864 3.248,-6.72 2.20266,-1.38131 5.26399,-2.07197 9.184,-2.072 5.59998,3e-5 9.22131,1.96002 10.864,5.88 0.55997,1.34402 0.83997,2.93068 0.84,4.76 l 0,17.304 -5.768,0 -0.504,-3.64 c -1.75469,2.94933 -4.44268,4.424 -8.064,4.424 -3.50934,0 -6.23467,-0.85867 -8.176,-2.576 -1.792,-1.64267 -2.688,-3.71466 -2.688,-6.216 0,-2.53866 0.98933,-4.47999 2.968,-5.824 1.97866,-1.38132 4.68532,-2.07199 8.12,-2.072 m 7.504,5.264 c -2.20268,-0.59732 -4.25602,-0.89599 -6.16,-0.896 -3.58401,1e-5 -5.37601,1.19467 -5.376,3.584 -10e-6,1.008 0.41066,1.88534 1.232,2.632 0.82132,0.70934 2.12799,1.064 3.92,1.064 1.82932,0 3.32265,-0.59733 4.48,-1.792 1.19465,-1.232 1.82931,-2.76266 1.904,-4.592"
         style="font-size:56px;fill:#373a3c;fill-opacity:1"
         id="path7643"
         inkscape:connector-curvature="0" />
      <path
         d="m 557.10821,465.03403 c 1.71731,3e-5 3.24798,0.29869 4.592,0.896 1.38131,0.56002 2.53864,1.30669 3.472,2.24 1.86664,1.79202 2.96797,4.05068 3.304,6.776 l -6.664,0.168 c -0.29869,-1.19465 -0.85869,-2.18398 -1.68,-2.968 -0.78402,-0.78398 -1.69869,-1.17598 -2.744,-1.176 -1.04535,2e-5 -1.94135,0.16802 -2.688,0.504 -0.74668,0.29869 -1.40001,0.78402 -1.96,1.456 -1.26935,1.56802 -1.90401,3.73335 -1.904,6.496 -1e-5,2.76267 0.59732,4.85334 1.792,6.272 1.19465,1.38134 2.63198,2.072 4.312,2.072 1.71731,0 2.94931,-0.392 3.696,-1.176 0.78398,-0.82133 1.17598,-1.92266 1.176,-3.304 l 6.664,0 c -3e-5,2.98667 -0.98936,5.46933 -2.968,7.448 -2.01603,2.016 -4.83469,3.024 -8.456,3.024 -3.58402,0 -6.58935,-1.30667 -9.016,-3.92 -2.57601,-2.8 -3.86401,-6.29066 -3.864,-10.472 -10e-6,-4.40532 1.28799,-7.93331 3.864,-10.584 2.42665,-2.50131 5.45065,-3.75197 9.072,-3.752"
         style="font-size:56px;fill:#373a3c;fill-opacity:1"
         id="path7645"
         inkscape:connector-curvature="0" />
      <path
         d="m 586.02083,479.70603 -3.024,2.52 0,10.752 -6.608,0 0,-38.416 6.608,0 0,20.776 10.752,-9.576 8.96,0 -12.04,10.08 12.712,17.136 -8.064,0 -9.296,-13.272"
         style="font-size:56px;fill:#373a3c;fill-opacity:1"
         id="path7647"
         inkscape:connector-curvature="0" />
    </g>
    <rect
       y="71.958275"
       x="657.70233"
       height="239.66736"
       width="25"
       id="rect8176"
       style="fill:#eeeeee;fill-opacity:1;stroke:none" />
  </g>
</svg>
