<?xml version="1.0" encoding="UTF-8" standalone="no"?>
<svg
   xmlns:dc="http://purl.org/dc/elements/1.1/"
   xmlns:cc="http://creativecommons.org/ns#"
   xmlns:rdf="http://www.w3.org/1999/02/22-rdf-syntax-ns#"
   xmlns:svg="http://www.w3.org/2000/svg"
   xmlns="http://www.w3.org/2000/svg"
   xmlns:sodipodi="http://sodipodi.sourceforge.net/DTD/sodipodi-0.dtd"
   xmlns:inkscape="http://www.inkscape.org/namespaces/inkscape"
   version="1.1"
   x="0px"
   y="0px"
   width="510.99799"
   height="415.27399"
   viewBox="0 0 510.99799 415.27399"
   xml:space="preserve"
   id="svg2"
   inkscape:version="0.48.4 r9939"
   sodipodi:docname="twitter.svg"><metadata
     id="metadata11"><rdf:RDF><cc:Work
         rdf:about=""><dc:format>image/svg+xml</dc:format><dc:type
           rdf:resource="http://purl.org/dc/dcmitype/StillImage" /></cc:Work></rdf:RDF></metadata><defs
     id="defs9" /><sodipodi:namedview
     pagecolor="#ffffff"
     bordercolor="#666666"
     borderopacity="1"
     objecttolerance="10"
     gridtolerance="10"
     guidetolerance="10"
     inkscape:pageopacity="0"
     inkscape:pageshadow="2"
     inkscape:window-width="1366"
     inkscape:window-height="710"
     id="namedview7"
     showgrid="false"
     inkscape:zoom="1.1893673"
     inkscape:cx="255.499"
     inkscape:cy="207.63554"
     inkscape:window-x="0"
     inkscape:window-y="29"
     inkscape:window-maximized="1"
     inkscape:current-layer="svg2"
     fit-margin-top="0"
     fit-margin-left="0"
     fit-margin-right="0"
     fit-margin-bottom="0"
     units="in" /><g
     id="7935ec95c421cee6d86eb22ecd12f847"
     style="fill:#666666;fill-opacity:1"
     transform="translate(-0.501,-48.363)"><path
       style="fill:#666666;fill-opacity:1;display:inline"
       d="m 459.186,151.787 c 0.203,4.501 0.305,9.023 0.305,13.565 0,138.542 -105.461,298.285 -298.274,298.285 -59.209,0 -114.322,-17.357 -160.716,-47.104 8.212,0.973 16.546,1.47 25.012,1.47 49.121,0 94.318,-16.759 130.209,-44.884 -45.887,-0.841 -84.596,-31.154 -97.938,-72.804 6.408,1.227 12.968,1.886 19.73,1.886 9.55,0 18.816,-1.287 27.617,-3.68 -47.955,-9.633 -84.1,-52.001 -84.1,-102.795 0,-0.446 0,-0.882 0.011,-1.318 14.133,7.847 30.294,12.562 47.488,13.109 -28.134,-18.796 -46.637,-50.885 -46.637,-87.262 0,-19.212 5.16,-37.218 14.193,-52.7 51.707,63.426 128.941,105.156 216.072,109.536 -1.784,-7.675 -2.718,-15.674 -2.718,-23.896 0,-57.891 46.941,-104.832 104.832,-104.832 30.173,0 57.404,12.734 76.525,33.102 23.887,-4.694 46.313,-13.423 66.569,-25.438 -7.827,24.485 -24.434,45.025 -46.089,58.002 21.209,-2.535 41.426,-8.171 60.222,-16.505 -14.051,21.018 -31.833,39.48 -52.313,54.263 z"
       id="path5"
       inkscape:connector-curvature="0" /></g></svg>